<svg width="50" height="50" viewBox="0 0 50 50" fill="none" xmlns="http://www.w3.org/2000/svg">
<rect x="0.328608" y="0.328608" width="49.3428" height="49.3428" rx="24.6714" fill="#001F3F"/>
<rect x="0.328608" y="0.328608" width="49.3428" height="49.3428" rx="24.6714" stroke="white" stroke-width="0.657216"/>
<g clip-path="url(#clip0_375_9363)">
<path d="M24.9792 13.0417C24.5648 13.0417 24.1673 13.2063 23.8743 13.4993C23.5813 13.7923 23.4167 14.1898 23.4167 14.6042V27.1042C22.7604 27.5937 22.375 28.3646 22.375 29.1875C22.375 29.8782 22.6494 30.5405 23.1377 31.0289C23.6261 31.5173 24.2885 31.7917 24.9792 31.7917C25.6698 31.7917 26.3322 31.5173 26.8206 31.0289C27.309 30.5405 27.5833 29.8782 27.5833 29.1875C27.5833 28.3646 27.1979 27.625 26.5417 27.1042V25.5417H30.7083V23.4583H26.5417V21.375H30.7083V19.2917H26.5417V17.2083H30.7083V15.125H26.5417V14.6042C26.5417 14.1898 26.377 13.7923 26.084 13.4993C25.791 13.2063 25.3936 13.0417 24.9792 13.0417ZM13 27.625V29.7083C13.6979 29.7083 13.8229 29.9271 14.3437 30.4479C14.8646 30.9687 15.7812 31.7917 17.1667 31.7917C18.5521 31.7917 19.4688 30.9687 19.9896 30.4479C20.1042 30.3229 20.1979 30.2292 20.2917 30.1354V27.7917C19.4687 28.0625 18.8854 28.5937 18.5104 28.9687C17.9896 29.4896 17.8646 29.7083 17.1667 29.7083C16.4687 29.7083 16.3438 29.4896 15.8229 28.9687C15.3021 28.4479 14.3854 27.625 13 27.625ZM29.6667 27.625V29.7083C30.3646 29.7083 30.4896 29.9271 31.0104 30.4479C31.5312 30.9687 32.4479 31.7917 33.8333 31.7917C35.2188 31.7917 36.1354 30.9687 36.6562 30.4479C37.1771 29.9271 37.3021 29.7083 38 29.7083V27.625C36.6146 27.625 35.6979 28.4479 35.1771 28.9687C34.6562 29.4896 34.5312 29.7083 33.8333 29.7083C33.1354 29.7083 33.0104 29.4896 32.4896 28.9687C31.9687 28.4479 31.0521 27.625 29.6667 27.625ZM21.3333 32.8333C19.9479 32.8333 19.0312 33.6562 18.5104 34.1771C17.9896 34.6979 17.8646 34.9167 17.1667 34.9167C16.4687 34.9167 16.3438 34.6979 15.8229 34.1771C15.4479 33.8021 14.8646 33.2708 14.0417 33V35.3437C14.1354 35.4375 14.2292 35.5312 14.3437 35.6562C14.8646 36.1771 15.7812 37 17.1667 37C18.5521 37 19.4688 36.1771 19.9896 35.6562C20.5104 35.1354 20.6354 34.9167 21.3333 34.9167C22.0312 34.9167 22.1562 35.1354 22.6771 35.6562C23.1354 36.1042 23.875 36.7917 24.9792 36.9583C25.1458 37 25.3229 37 25.5 37C26.8854 37 27.8021 36.1771 28.3229 35.6562C28.8437 35.1354 28.9687 34.9167 29.6667 34.9167C30.3646 34.9167 30.4896 35.1354 31.0104 35.6562C31.5312 36.1771 32.4479 37 33.8333 37C35.2188 37 36.1354 36.1771 36.6562 35.6562C36.7708 35.5312 36.8646 35.4375 36.9583 35.3437V33C36.1354 33.2708 35.5521 33.8021 35.1771 34.1771C34.6562 34.6979 34.5312 34.9167 33.8333 34.9167C33.1354 34.9167 33.0104 34.6979 32.4896 34.1771C31.9687 33.6562 31.0521 32.8333 29.6667 32.8333C28.2812 32.8333 27.3646 33.6562 26.8437 34.1771C26.3229 34.6979 26.1979 34.9167 25.5 34.9167C25.2708 34.9167 25.1146 34.8854 24.9792 34.8333C24.6875 34.7292 24.5104 34.5312 24.1562 34.1771C23.6354 33.6562 22.7188 32.8333 21.3333 32.8333Z" fill="white"/>
</g>
<defs>
<clipPath id="clip0_375_9363">
<rect width="25" height="25" fill="white" transform="translate(13 12)"/>
</clipPath>
</defs>
</svg>
