<svg width="50" height="50" viewBox="0 0 50 50" fill="none" xmlns="http://www.w3.org/2000/svg">
<rect x="0.328608" y="0.328608" width="49.3428" height="49.3428" rx="24.6714" fill="#001F3F"/>
<rect x="0.328608" y="0.328608" width="49.3428" height="49.3428" rx="24.6714" stroke="white" stroke-width="0.657216"/>
<path d="M19.1028 36.2569C18.4657 36.2338 17.8602 36.0685 17.2861 35.7611C16.712 35.4546 16.169 35.0056 15.6569 34.4139C14.8208 33.463 14.169 32.2935 13.7014 30.9056C13.2338 29.5176 13 28.0759 13 26.5806C13 24.837 13.3245 23.2005 13.9736 21.6708C14.6218 20.1412 15.5134 18.8093 16.6486 17.675C17.7838 16.5407 19.1111 15.6449 20.6306 14.9875C22.1519 14.3292 23.775 14 25.5 14C27.225 14 28.8481 14.3301 30.3694 14.9903C31.8898 15.6514 33.2125 16.5472 34.3375 17.6778C35.4634 18.8083 36.3551 20.137 37.0125 21.6639C37.6708 23.188 38 24.8185 38 26.5556C38 28.0537 37.7593 29.4935 37.2778 30.875C36.7981 32.2565 36.1324 33.444 35.2806 34.4375C34.7398 35.0505 34.1861 35.5069 33.6194 35.8069C33.0537 36.1069 32.4537 36.2569 31.8194 36.2569C31.4917 36.2569 31.1731 36.2181 30.8639 36.1403C30.5537 36.0634 30.2435 35.9477 29.9333 35.7931L27.9889 34.8208C27.6046 34.6282 27.1981 34.4838 26.7694 34.3875C26.3417 34.2912 25.9097 34.2431 25.4736 34.2431C25.0199 34.2431 24.5829 34.2912 24.1625 34.3875C23.744 34.4838 23.3509 34.6278 22.9833 34.8194L21.0667 35.7917C20.7333 35.9704 20.4106 36.0981 20.0986 36.175C19.7856 36.2528 19.4537 36.2801 19.1028 36.2569ZM19.1458 34.8681C19.3542 34.8681 19.5685 34.8449 19.7889 34.7986C20.0093 34.7523 20.2231 34.6713 20.4306 34.5556L22.375 33.5833C22.8611 33.3287 23.3648 33.1435 23.8861 33.0278C24.4074 32.912 24.9338 32.8542 25.4653 32.8542C25.9977 32.8542 26.5301 32.912 27.0625 33.0278C27.5949 33.1435 28.1042 33.3287 28.5903 33.5833L30.5694 34.5556C30.7778 34.6713 30.9861 34.7523 31.1944 34.7986C31.4028 34.8449 31.6111 34.8681 31.8194 34.8681C32.2593 34.8681 32.6806 34.7523 33.0833 34.5208C33.4852 34.2894 33.8833 33.9421 34.2778 33.4792C35.0185 32.5995 35.5926 31.5463 36 30.3194C36.4074 29.0926 36.6111 27.8222 36.6111 26.5083C36.6111 23.4065 35.5347 20.7778 33.3819 18.6222C31.2292 16.4667 28.6019 15.3889 25.5 15.3889C22.3981 15.3889 19.7708 16.4769 17.6181 18.6528C15.4653 20.8287 14.3889 23.4676 14.3889 26.5694C14.3889 27.8889 14.6074 29.1736 15.0444 30.4236C15.4815 31.6736 16.0731 32.7269 16.8194 33.5833C17.213 34.0463 17.5949 34.3764 17.9653 34.5736C18.3356 34.7708 18.7292 34.869 19.1458 34.8681ZM25.5 28.5833C26.0861 28.5833 26.5796 28.3824 26.9806 27.9806C27.3824 27.5796 27.5833 27.0861 27.5833 26.5C27.5833 26.2963 27.5528 26.0977 27.4917 25.9042C27.4296 25.7097 27.3463 25.5292 27.2417 25.3625L29.8056 22.0472C30.1435 22.3657 30.4398 22.7287 30.6944 23.1361C30.9472 23.5435 31.1583 23.9792 31.3278 24.4431H32.7861C32.3324 22.7801 31.4338 21.4343 30.0903 20.4056C28.7468 19.3759 27.2167 18.8611 25.5 18.8611C23.7833 18.8611 22.2477 19.3769 20.8931 20.4083C19.5375 21.4417 18.6356 22.787 18.1875 24.4444H19.6181C20.0671 23.1769 20.8338 22.1611 21.9181 21.3972C23.0023 20.6324 24.1963 20.25 25.5 20.25C26.0898 20.25 26.6514 20.3333 27.1847 20.5C27.719 20.6685 28.2282 20.9023 28.7125 21.2014L26.1417 24.5319C26.0417 24.4958 25.9347 24.4681 25.8208 24.4486C25.7069 24.4273 25.6 24.4167 25.5 24.4167C24.9139 24.4167 24.4204 24.6176 24.0194 25.0194C23.6176 25.4204 23.4167 25.9139 23.4167 26.5C23.4167 27.0861 23.6176 27.5796 24.0194 27.9806C24.4204 28.3824 24.9139 28.5833 25.5 28.5833Z" fill="white"/>
</svg>
