<svg width="50" height="50" viewBox="0 0 50 50" fill="none" xmlns="http://www.w3.org/2000/svg">
<rect x="0.328608" y="0.328608" width="49.3428" height="49.3428" rx="24.6714" fill="#001F3F"/>
<rect x="0.328608" y="0.328608" width="49.3428" height="49.3428" rx="24.6714" stroke="white" stroke-width="0.657216"/>
<path d="M26.542 27.9167V17.7292C26.542 17.4529 26.4322 17.1879 26.2369 16.9926C26.0415 16.7972 25.7766 16.6875 25.5003 16.6875C25.2241 16.6875 24.9591 16.7972 24.7638 16.9926C24.5684 17.1879 24.4587 17.4529 24.4587 17.7292V27.9167C24.1438 28.0984 23.882 28.3595 23.6992 28.6738C23.5165 28.9881 23.4192 29.3448 23.417 29.7083C23.417 30.2609 23.6365 30.7908 24.0272 31.1815C24.4179 31.5722 24.9478 31.7917 25.5003 31.7917C26.0529 31.7917 26.5828 31.5722 26.9735 31.1815C27.3642 30.7908 27.5837 30.2609 27.5837 29.7083C27.5815 29.3448 27.4842 28.9881 27.3014 28.6738C27.1187 28.3595 26.8569 28.0984 26.542 27.9167ZM30.1878 25.5417V17.7292C30.1878 16.486 29.694 15.2937 28.8149 14.4146C27.9358 13.5355 26.7435 13.0417 25.5003 13.0417C24.2571 13.0417 23.0648 13.5355 22.1858 14.4146C21.3067 15.2937 20.8128 16.486 20.8128 17.7292V25.5417C20.0929 26.3575 19.5984 27.3471 19.3783 28.4127C19.1581 29.4783 19.22 30.5829 19.5578 31.6172C19.8955 32.6516 20.4975 33.5798 21.3041 34.3101C22.1106 35.0404 23.0939 35.5475 24.1566 35.7812C24.598 35.8819 25.0479 35.9411 25.5003 35.9583C26.7093 35.964 27.894 35.6188 28.9108 34.9647C29.9275 34.3106 30.7328 33.3757 31.2289 32.2732C31.725 31.1707 31.8908 29.9479 31.706 28.7531C31.5212 27.5583 30.9938 26.4428 30.1878 25.5417ZM28.1045 32.9062C27.5558 33.3523 26.9027 33.6514 26.2065 33.7754C25.5104 33.8994 24.7941 33.8442 24.1252 33.615C23.4563 33.3857 22.8567 32.99 22.3829 32.4651C21.9091 31.9402 21.5767 31.3034 21.417 30.6146C21.2561 29.9183 21.2769 29.1923 21.4776 28.5064C21.6783 27.8205 22.052 27.1977 22.5628 26.6979C22.6612 26.6014 22.7396 26.4864 22.7932 26.3594C22.8468 26.2325 22.8748 26.0961 22.8753 25.9583V17.7292C22.8753 17.0385 23.1497 16.3761 23.6381 15.8877C24.1264 15.3994 24.7888 15.125 25.4795 15.125C26.1702 15.125 26.8325 15.3994 27.3209 15.8877C27.8093 16.3761 28.0837 17.0385 28.0837 17.7292V26C28.0842 26.1378 28.1121 26.2741 28.1658 26.4011C28.2194 26.5281 28.2977 26.6431 28.3962 26.7396C28.8219 27.1509 29.1552 27.6482 29.3737 28.1985C29.5922 28.7487 29.6909 29.3391 29.6633 29.9305C29.6357 30.5219 29.4824 31.1006 29.2136 31.6281C28.9448 32.1555 28.5667 32.6197 28.1045 32.9896V32.9062Z" fill="white"/>
</svg>
