<svg width="22" height="26" viewBox="0 0 22 26" fill="none" xmlns="http://www.w3.org/2000/svg">
<g clip-path="url(#clip0_73_1576)">
<path d="M18.0336 13.8069C18.0043 10.5447 20.6979 8.97858 20.8198 8.90222C19.304 6.68463 16.9451 6.38083 16.1035 6.34508C14.0971 6.14201 12.1866 7.52617 11.1696 7.52617C10.1526 7.52617 8.57995 6.37433 6.91635 6.40682C4.72637 6.43932 2.71023 7.67889 1.58275 9.63818C-0.690082 13.5811 1.00276 19.4248 3.21548 22.6253C4.2991 24.1898 5.58904 25.9525 7.28513 25.8875C8.91949 25.8226 9.53684 24.8315 11.5091 24.8315C13.4814 24.8315 14.037 25.8875 15.764 25.8567C17.5202 25.8226 18.6347 24.2581 19.7102 22.6887C20.9514 20.8724 21.4647 19.1145 21.494 19.0219C21.455 19.0057 18.0693 17.7076 18.0336 13.8069Z" fill="#030206"/>
<path d="M14.7897 4.2279C15.6897 3.13778 16.2973 1.622 16.13 0.111168C14.8334 0.163212 13.2641 0.975479 12.3332 2.0656C11.4998 3.02903 10.7687 4.57237 10.9668 6.05244C12.4128 6.16454 13.8895 5.31641 14.7897 4.2279Z" fill="#030206"/>
</g>
<defs>
<clipPath id="clip0_73_1576">
<rect width="21" height="25.7983" fill="white" transform="translate(0.5 0.100845)"/>
</clipPath>
</defs>
</svg>
