<svg width="24" height="25" viewBox="0 0 24 25" fill="none" xmlns="http://www.w3.org/2000/svg">
<path d="M5.54422 19.2868H18.4491C20.0763 19.2868 20.9201 18.4506 20.9201 16.8459V9.64391C20.9201 8.03175 20.0763 7.19553 18.4491 7.19553H17.5451V6.25385C17.5451 5.60597 17.1684 5.22929 16.528 5.22929H14.4262C13.7783 5.22929 13.4092 5.60597 13.4092 6.25385V7.19553H10.5691V6.25385C10.5691 5.60597 10.1999 5.22929 9.55204 5.22929H7.4502C6.80232 5.22929 6.43318 5.60597 6.43318 6.25385V7.19553H5.54422C3.91699 7.19553 3.07324 8.03175 3.07324 9.64391V16.8459C3.07324 18.4506 3.91699 19.2868 5.54422 19.2868ZM5.63463 17.8102C4.93401 17.8102 4.5498 17.4486 4.5498 16.7179V9.77198C4.5498 9.0337 4.93401 8.6721 5.63463 8.6721H18.3587C19.0518 8.6721 19.4435 9.0337 19.4435 9.77198V16.7179C19.4435 17.4486 19.0518 17.8102 18.3587 17.8102H5.63463ZM9.65751 13.712C9.65751 13.8551 9.77804 13.9606 9.92118 13.9606H11.7367L10.7649 16.5371C10.6293 16.9137 11.0286 17.1171 11.2772 16.8158L14.2379 13.1244C14.2981 13.0566 14.3358 12.9737 14.3358 12.8984C14.3358 12.7477 14.2153 12.6422 14.0646 12.6422H12.2566L13.2208 10.0658C13.3564 9.68912 12.9572 9.48571 12.7161 9.78705L9.74791 13.486C9.68764 13.5613 9.65751 13.6367 9.65751 13.712Z" fill="#1C1C1E"/>
</svg>
