<svg width="30" height="30" viewBox="0 0 30 30" fill="none" xmlns="http://www.w3.org/2000/svg">
<path d="M18.4055 5.22499V2.79999M18.4055 5.22499V7.64999M18.4055 5.22499H12.9492M3.85547 12.5V23.4125C3.85547 24.0556 4.11096 24.6724 4.56573 25.1272C5.02051 25.582 5.63732 25.8375 6.28047 25.8375H23.2555C23.8986 25.8375 24.5154 25.582 24.9702 25.1272C25.425 24.6724 25.6805 24.0556 25.6805 23.4125V12.5M3.85547 12.5H25.6805M3.85547 12.5V7.64999C3.85547 7.00684 4.11096 6.39003 4.56573 5.93525C5.02051 5.48048 5.63732 5.22499 6.28047 5.22499H8.70547M25.6805 12.5V7.64999C25.6805 7.00684 25.425 6.39003 24.9702 5.93525C24.5154 5.48048 23.8986 5.22499 23.2555 5.22499H22.6492M8.70547 2.79999V7.64999" stroke="#00BFFF" stroke-width="1.455" stroke-linecap="round" stroke-linejoin="round"/>
</svg>
