<svg width="285" height="69" viewBox="0 0 285 69" fill="none" xmlns="http://www.w3.org/2000/svg">
<path d="M283 34.0417C283 37.5533 279.957 41.519 272.818 45.5508C265.841 49.4916 255.611 53.1065 242.798 56.1675C217.203 62.2819 181.741 66.0833 142.5 66.0833C103.259 66.0833 67.797 62.2819 42.202 56.1675C29.3887 53.1065 19.1594 49.4916 12.1819 45.5508C5.04342 41.519 2 37.5533 2 34.0417C2 30.5301 5.04342 26.5644 12.1819 22.5326C19.1594 18.5917 29.3887 14.9768 42.202 11.9158C67.797 5.80147 103.259 2 142.5 2C181.741 2 217.203 5.80147 242.798 11.9158C255.611 14.9768 265.841 18.5917 272.818 22.5326C279.957 26.5644 283 30.5301 283 34.0417Z" fill="url(#paint0_linear_461_18628)" stroke="url(#paint1_linear_461_18628)" stroke-width="4"/>
<path d="M283 29.8194C283 31.1839 282.348 32.7196 280.675 34.4308C278.995 36.149 276.414 37.9026 272.915 39.6339C265.924 43.0927 255.678 46.2637 242.853 48.9474C217.237 54.3079 181.755 57.6389 142.5 57.6389C103.245 57.6389 67.7634 54.3079 42.1469 48.9474C29.3223 46.2637 19.0764 43.0927 12.0852 39.6339C8.58588 37.9026 6.00521 36.149 4.32504 34.4308C2.65169 32.7196 2 31.1839 2 29.8194C2 28.455 2.65169 26.9193 4.32504 25.2081C6.00521 23.4899 8.58588 21.7363 12.0852 20.005C19.0764 16.5461 29.3223 13.3752 42.1469 10.6915C67.7634 5.33102 103.245 2 142.5 2C181.755 2 217.237 5.33102 242.853 10.6915C255.678 13.3752 265.924 16.5461 272.915 20.005C276.414 21.7363 278.995 23.4899 280.675 25.2081C282.348 26.9193 283 28.455 283 29.8194Z" fill="#121212" stroke="url(#paint2_linear_461_18628)" stroke-width="4"/>
<defs>
<linearGradient id="paint0_linear_461_18628" x1="142.5" y1="29.0278" x2="142.5" y2="68.0833" gradientUnits="userSpaceOnUse">
<stop stop-color="#00BFFF" stop-opacity="0.2"/>
<stop offset="1" stop-color="#00BFFF"/>
</linearGradient>
<linearGradient id="paint1_linear_461_18628" x1="142.789" y1="68.0833" x2="142.789" y2="2.65928e-06" gradientUnits="userSpaceOnUse">
<stop stop-color="#87888C"/>
<stop offset="1" stop-color="#373838"/>
</linearGradient>
<linearGradient id="paint2_linear_461_18628" x1="142.789" y1="59.6389" x2="142.789" y2="2.32945e-06" gradientUnits="userSpaceOnUse">
<stop stop-color="#87888C"/>
<stop offset="1" stop-color="#87888C" stop-opacity="0"/>
</linearGradient>
</defs>
</svg>
