<svg width="50" height="51" viewBox="0 0 50 51" fill="none" xmlns="http://www.w3.org/2000/svg">
<rect y="0.5" width="50" height="50" rx="25" fill="#F8FAFB"/>
<path d="M32 27.5V33.5M32 33.5L34 31.5M32 33.5L30 31.5" stroke="#001F3F" stroke-width="1.5" stroke-linecap="round" stroke-linejoin="round"/>
<path d="M35 25.5C35 21.729 35 19.843 33.828 18.672C32.657 17.5 30.771 17.5 27 17.5H23C19.229 17.5 17.343 17.5 16.172 18.672C15 19.843 15 21.729 15 25.5C15 29.271 15 31.157 16.172 32.328C17.343 33.5 19.229 33.5 23 33.5H27M23 29.5H19M26 29.5H25.5M15 23.5H35" stroke="#001F3F" stroke-width="1.5" stroke-linecap="round"/>
</svg>
