<svg width="36" height="36" viewBox="0 0 36 36" fill="none" xmlns="http://www.w3.org/2000/svg">
<path d="M8.2024 29.4259C7.54283 29.4259 6.99222 29.2051 6.5506 28.7635C6.10801 28.3209 5.88672 27.7698 5.88672 27.1102V8.79983C5.88672 8.14026 6.10801 7.58966 6.5506 7.14803C6.99222 6.70544 7.54283 6.48415 8.2024 6.48415H21.5488V7.91801H8.2024C7.94526 7.91801 7.73401 8.0007 7.56864 8.16607C7.40326 8.33144 7.32058 8.5427 7.32058 8.79983V27.1102C7.32058 27.3674 7.40326 27.5786 7.56864 27.744C7.73401 27.9094 7.94526 27.992 8.2024 27.992H26.5128C26.7699 27.992 26.9812 27.9094 27.1465 27.744C27.3119 27.5786 27.3946 27.3674 27.3946 27.1102V13.7639H28.8285V27.1102C28.8285 27.7698 28.6077 28.3204 28.166 28.762C27.7234 29.2046 27.1724 29.4259 26.5128 29.4259H8.2024ZM11.2364 24.4074H12.6703V15.8042H11.2364V24.4074ZM16.6407 24.4074H18.0745V11.5027H16.6407V24.4074ZM22.0463 24.4074H23.4802V20.1058H22.0463V24.4074ZM25.9607 12.2196V9.35187H23.093V7.91801H25.9607V5.05029H27.3946V7.91801H30.2623V9.35187H27.3946V12.2196H25.9607Z" fill="#00BFFF" stroke="white" stroke-width="0.485"/>
</svg>
