<svg width="24" height="25" viewBox="0 0 24 25" fill="none" xmlns="http://www.w3.org/2000/svg">
<g clip-path="url(#clip0_371_7676)">
<path d="M11.5 1.86719C11.1022 1.86719 10.7206 2.02522 10.4393 2.30653C10.158 2.58783 10 2.96936 10 3.36719V15.3672C9.37 15.8372 9 16.5772 9 17.3672C9 18.0302 9.26339 18.6661 9.73223 19.135C10.2011 19.6038 10.837 19.8672 11.5 19.8672C12.163 19.8672 12.7989 19.6038 13.2678 19.135C13.7366 18.6661 14 18.0302 14 17.3672C14 16.5772 13.63 15.8672 13 15.3672V13.8672H17V11.8672H13V9.86719H17V7.86719H13V5.86719H17V3.86719H13V3.36719C13 2.96936 12.842 2.58783 12.5607 2.30653C12.2794 2.02522 11.8978 1.86719 11.5 1.86719ZM0 15.8672V17.8672C0.67 17.8672 0.79 18.0772 1.29 18.5772C1.79 19.0772 2.67 19.8672 4 19.8672C5.33 19.8672 6.21 19.0772 6.71 18.5772C6.82 18.4572 6.91 18.3672 7 18.2772V16.0272C6.21 16.2872 5.65 16.7972 5.29 17.1572C4.79 17.6572 4.67 17.8672 4 17.8672C3.33 17.8672 3.21 17.6572 2.71 17.1572C2.21 16.6572 1.33 15.8672 0 15.8672ZM16 15.8672V17.8672C16.67 17.8672 16.79 18.0772 17.29 18.5772C17.79 19.0772 18.67 19.8672 20 19.8672C21.33 19.8672 22.21 19.0772 22.71 18.5772C23.21 18.0772 23.33 17.8672 24 17.8672V15.8672C22.67 15.8672 21.79 16.6572 21.29 17.1572C20.79 17.6572 20.67 17.8672 20 17.8672C19.33 17.8672 19.21 17.6572 18.71 17.1572C18.21 16.6572 17.33 15.8672 16 15.8672ZM8 20.8672C6.67 20.8672 5.79 21.6572 5.29 22.1572C4.79 22.6572 4.67 22.8672 4 22.8672C3.33 22.8672 3.21 22.6572 2.71 22.1572C2.35 21.7972 1.79 21.2872 1 21.0272V23.2772C1.09 23.3672 1.18 23.4572 1.29 23.5772C1.79 24.0772 2.67 24.8672 4 24.8672C5.33 24.8672 6.21 24.0772 6.71 23.5772C7.21 23.0772 7.33 22.8672 8 22.8672C8.67 22.8672 8.79 23.0772 9.29 23.5772C9.73 24.0072 10.44 24.6672 11.5 24.8272C11.66 24.8672 11.83 24.8672 12 24.8672C13.33 24.8672 14.21 24.0772 14.71 23.5772C15.21 23.0772 15.33 22.8672 16 22.8672C16.67 22.8672 16.79 23.0772 17.29 23.5772C17.79 24.0772 18.67 24.8672 20 24.8672C21.33 24.8672 22.21 24.0772 22.71 23.5772C22.82 23.4572 22.91 23.3672 23 23.2772V21.0272C22.21 21.2872 21.65 21.7972 21.29 22.1572C20.79 22.6572 20.67 22.8672 20 22.8672C19.33 22.8672 19.21 22.6572 18.71 22.1572C18.21 21.6572 17.33 20.8672 16 20.8672C14.67 20.8672 13.79 21.6572 13.29 22.1572C12.79 22.6572 12.67 22.8672 12 22.8672C11.78 22.8672 11.63 22.8372 11.5 22.7872C11.22 22.6872 11.05 22.4972 10.71 22.1572C10.21 21.6572 9.33 20.8672 8 20.8672Z" fill="#001F3F"/>
</g>
<defs>
<clipPath id="clip0_371_7676">
<rect width="24" height="24" fill="white" transform="translate(0 0.867188)"/>
</clipPath>
</defs>
</svg>
