<svg width="65" height="20" viewBox="0 0 65 20" fill="none" xmlns="http://www.w3.org/2000/svg">
<rect width="65" height="20" rx="5" fill="#DFF2E4"/>
<path d="M16.3723 16.144C15.7403 16.144 15.1603 16.032 14.6323 15.808C14.1043 15.576 13.6443 15.256 13.2523 14.848C12.8683 14.432 12.5683 13.944 12.3523 13.384C12.1363 12.824 12.0283 12.208 12.0283 11.536C12.0283 10.864 12.1363 10.248 12.3523 9.688C12.5683 9.128 12.8683 8.64 13.2523 8.224C13.6443 7.808 14.1043 7.488 14.6323 7.264C15.1603 7.032 15.7403 6.916 16.3723 6.916C16.9803 6.916 17.5243 7.024 18.0043 7.24C18.4923 7.456 18.9003 7.736 19.2283 8.08C19.5643 8.416 19.8043 8.772 19.9483 9.148L19.0483 9.544C18.8243 9.024 18.4803 8.608 18.0163 8.296C17.5603 7.976 17.0123 7.816 16.3723 7.816C15.7163 7.816 15.1323 7.972 14.6203 8.284C14.1083 8.596 13.7083 9.032 13.4203 9.592C13.1323 10.144 12.9883 10.792 12.9883 11.536C12.9883 12.272 13.1323 12.92 13.4203 13.48C13.7083 14.04 14.1083 14.476 14.6203 14.788C15.1323 15.092 15.7163 15.244 16.3723 15.244C17.0123 15.244 17.5603 15.088 18.0163 14.776C18.4803 14.464 18.8243 14.048 19.0483 13.528L19.9483 13.924C19.8043 14.292 19.5643 14.648 19.2283 14.992C18.9003 15.328 18.4923 15.604 18.0043 15.82C17.5243 16.036 16.9803 16.144 16.3723 16.144ZM21.6673 16V7.06H24.7393C25.3233 7.06 25.8353 7.176 26.2753 7.408C26.7153 7.632 27.0553 7.952 27.2953 8.368C27.5433 8.776 27.6673 9.252 27.6673 9.796C27.6673 10.428 27.4993 10.968 27.1633 11.416C26.8353 11.864 26.3873 12.18 25.8193 12.364L27.9073 16H26.7793L24.5953 12.148L25.2433 12.52H22.6273V16H21.6673ZM22.6273 11.62H24.7873C25.1713 11.62 25.5073 11.548 25.7953 11.404C26.0833 11.252 26.3073 11.04 26.4673 10.768C26.6273 10.488 26.7073 10.16 26.7073 9.784C26.7073 9.408 26.6273 9.084 26.4673 8.812C26.3073 8.54 26.0833 8.332 25.7953 8.188C25.5073 8.036 25.1713 7.96 24.7873 7.96H22.6273V11.62ZM29.3548 16V7.06H35.1148V7.96H30.3148V11.068H34.8748V11.968H30.3148V15.1H35.1148V16H29.3548ZM36.7025 16V7.06H39.6425C40.5305 7.06 41.3025 7.244 41.9585 7.612C42.6145 7.972 43.1225 8.488 43.4825 9.16C43.8425 9.824 44.0225 10.612 44.0225 11.524C44.0225 12.428 43.8425 13.216 43.4825 13.888C43.1225 14.56 42.6145 15.08 41.9585 15.448C41.3025 15.816 40.5305 16 39.6425 16H36.7025ZM37.6625 15.1H39.6425C40.3305 15.1 40.9265 14.956 41.4305 14.668C41.9345 14.372 42.3225 13.956 42.5945 13.42C42.8745 12.884 43.0145 12.252 43.0145 11.524C43.0145 10.796 42.8745 10.168 42.5945 9.64C42.3145 9.104 41.9225 8.692 41.4185 8.404C40.9145 8.108 40.3225 7.96 39.6425 7.96H37.6625V15.1ZM45.6087 16V7.06H46.5687V16H45.6087ZM50.227 16V7.96H47.755V7.06H53.635V7.96H51.187V16H50.227Z" fill="#2BA84A"/>
</svg>
