<svg width="65" height="20" viewBox="0 0 65 20" fill="none" xmlns="http://www.w3.org/2000/svg">
<rect width="65" height="20" rx="5" fill="#FFE7E7"/>
<path d="M16.1634 16V7.06H19.1034C19.9914 7.06 20.7634 7.244 21.4194 7.612C22.0754 7.972 22.5834 8.488 22.9434 9.16C23.3034 9.824 23.4834 10.612 23.4834 11.524C23.4834 12.428 23.3034 13.216 22.9434 13.888C22.5834 14.56 22.0754 15.08 21.4194 15.448C20.7634 15.816 19.9914 16 19.1034 16H16.1634ZM17.1234 15.1H19.1034C19.7914 15.1 20.3874 14.956 20.8914 14.668C21.3954 14.372 21.7834 13.956 22.0554 13.42C22.3354 12.884 22.4754 12.252 22.4754 11.524C22.4754 10.796 22.3354 10.168 22.0554 9.64C21.7754 9.104 21.3834 8.692 20.8794 8.404C20.3754 8.108 19.7834 7.96 19.1034 7.96H17.1234V15.1ZM25.0697 16V7.06H30.8297V7.96H26.0297V11.068H30.5897V11.968H26.0297V15.1H30.8297V16H25.0697ZM32.4173 16V7.06H36.1733C36.6773 7.06 37.1133 7.156 37.4813 7.348C37.8573 7.532 38.1453 7.792 38.3453 8.128C38.5533 8.464 38.6573 8.856 38.6573 9.304C38.6573 9.768 38.5413 10.18 38.3093 10.54C38.0853 10.892 37.7613 11.16 37.3373 11.344L37.3253 11.056C37.6773 11.184 37.9773 11.364 38.2253 11.596C38.4813 11.828 38.6773 12.1 38.8133 12.412C38.9493 12.716 39.0173 13.044 39.0173 13.396C39.0173 14.196 38.7613 14.832 38.2493 15.304C37.7453 15.768 37.0573 16 36.1853 16H32.4173ZM33.3773 15.1H36.1853C36.7533 15.1 37.2053 14.952 37.5413 14.656C37.8853 14.352 38.0573 13.936 38.0573 13.408C38.0573 12.888 37.8853 12.476 37.5413 12.172C37.2053 11.86 36.7533 11.704 36.1853 11.704H33.3773V15.1ZM33.3773 10.84H36.1013C36.5813 10.84 36.9653 10.7 37.2533 10.42C37.5493 10.14 37.6973 9.78 37.6973 9.34C37.6973 8.892 37.5493 8.552 37.2533 8.32C36.9653 8.08 36.5813 7.96 36.1013 7.96H33.3773V10.84ZM40.7376 16V7.06H41.6976V16H40.7376ZM45.356 16V7.96H42.884V7.06H48.764V7.96H46.316V16H45.356Z" fill="#EA4335"/>
</svg>
