<svg width="47" height="46" viewBox="0 0 47 46" fill="none" xmlns="http://www.w3.org/2000/svg">
<rect x="0.331055" width="46" height="46" rx="23" fill="#F8FAFB"/>
<g clip-path="url(#clip0_507_14486)">
<path fill-rule="evenodd" clip-rule="evenodd" d="M33.2313 14.3375C33.3907 14.1725 33.4789 13.9514 33.4769 13.722C33.4749 13.4926 33.3829 13.2731 33.2206 13.1109C33.0584 12.9487 32.8389 12.8567 32.6095 12.8547C32.3801 12.8527 32.1591 12.9409 31.994 13.1002L31.3535 13.7408C29.8589 12.4461 28.0731 11.5325 26.1486 11.078C24.2242 10.6235 22.2183 10.6416 20.3024 11.1308C18.3865 11.62 16.6175 12.5657 15.1465 13.8872C13.6755 15.2087 12.5463 16.8666 11.8553 18.7193C11.1643 20.572 10.9321 22.5645 11.1785 24.5265C11.4249 26.4885 12.1426 28.3616 13.2703 29.986C14.3979 31.6103 15.9021 32.9375 17.6541 33.8542C19.4062 34.7708 21.3541 35.2498 23.3315 35.25C22.9127 34.6929 22.562 34.0878 22.2868 33.4475C20.6495 33.2838 19.0737 32.7375 17.6863 31.8529C16.2989 30.9682 15.1389 29.7698 14.2998 28.3545C13.4606 26.9391 12.9658 25.3464 12.8554 23.7046C12.7449 22.0629 13.0218 20.4182 13.6637 18.9032C14.3057 17.3882 15.2947 16.0452 16.551 14.9826C17.8073 13.92 19.2958 13.1676 20.8963 12.7859C22.4969 12.4043 24.1647 12.4042 25.7653 12.7855C27.366 13.1669 28.8545 13.9191 30.111 14.9815L28.8685 16.224C27.8356 15.3806 26.6236 14.7845 25.3251 14.4811C24.0266 14.1777 22.6759 14.1751 21.3763 14.4736C20.0766 14.772 18.8623 15.3635 17.8262 16.2029C16.7901 17.0424 15.9596 18.1075 15.3981 19.317C14.8365 20.5265 14.5589 21.8483 14.5863 23.1815C14.6137 24.5147 14.9455 25.824 15.5563 27.0094C16.167 28.1948 17.0407 29.2249 18.1104 30.021C19.1801 30.8172 20.4177 31.3583 21.7285 31.603C21.6171 31.0019 21.569 30.3907 21.585 29.7795C19.9395 29.3496 18.5066 28.3355 17.5538 26.9266C16.6011 25.5176 16.1936 23.8102 16.4075 22.1228C16.6214 20.4355 17.4419 18.8837 18.716 17.757C19.9902 16.6303 21.6307 16.0058 23.3315 16C24.8864 15.9971 26.3976 16.5146 27.6243 17.47L26.373 18.7195C25.3001 17.9544 23.9788 17.6208 22.6713 17.7848C21.3638 17.9489 20.1658 18.5986 19.3152 19.6051C18.4646 20.6115 18.0236 21.901 18.0797 23.2175C18.1358 24.534 18.6849 25.7813 19.618 26.7118C19.6993 26.7931 19.7957 26.8577 19.9019 26.9017C20.0081 26.9458 20.1219 26.9685 20.2369 26.9686C20.3519 26.9687 20.4657 26.9461 20.572 26.9022C20.6782 26.8583 20.7748 26.7939 20.8562 26.7126C20.9375 26.6314 21.0021 26.5349 21.0461 26.4287C21.0902 26.3225 21.1129 26.2087 21.113 26.0937C21.1131 25.9788 21.0905 25.8649 21.0466 25.7587C21.0027 25.6524 20.9383 25.5559 20.857 25.4745C20.2548 24.8721 19.8928 24.0707 19.8391 23.2206C19.7854 22.3705 20.0435 21.5299 20.5652 20.8565C21.0868 20.1831 21.8362 19.723 22.6727 19.5625C23.5093 19.402 24.3757 19.5522 25.1095 19.9847L23.7848 21.3095C23.4127 21.2098 23.018 21.2356 22.6621 21.383C22.3062 21.5304 22.0088 21.7911 21.8162 22.1248C21.6236 22.4584 21.5464 22.8463 21.5967 23.2282C21.6469 23.6102 21.8219 23.9649 22.0943 24.2373C22.3667 24.5097 22.7214 24.6846 23.1033 24.7349C23.4853 24.7851 23.8731 24.708 24.2068 24.5153C24.5404 24.3227 24.8011 24.0254 24.9485 23.6694C25.0959 23.3135 25.1218 22.9189 25.022 22.5468L27.0433 20.5255L31.3483 16.2205C32.7234 17.8403 33.572 19.8408 33.7808 21.9552C34.423 22.2317 35.0285 22.5852 35.5815 23C35.5815 20.137 34.584 17.2757 32.589 14.978L33.2313 14.3375ZM37.3315 30C37.3315 31.8565 36.594 33.637 35.2813 34.9497C33.9685 36.2625 32.188 37 30.3315 37C28.475 37 26.6945 36.2625 25.3818 34.9497C24.069 33.637 23.3315 31.8565 23.3315 30C23.3315 28.1435 24.069 26.363 25.3818 25.0503C26.6945 23.7375 28.475 23 30.3315 23C32.188 23 33.9685 23.7375 35.2813 25.0503C36.594 26.363 37.3315 28.1435 37.3315 30ZM30.3315 30.875C30.0892 30.8734 29.8555 30.7853 29.6726 30.6264C29.4896 30.4675 29.3695 30.2484 29.334 30.0088L28.8265 26.4825C28.7972 26.2679 28.8141 26.0495 28.8762 25.8419C28.9383 25.6344 29.0441 25.4426 29.1865 25.2794C29.3289 25.1161 29.5047 24.9853 29.7019 24.8956C29.8991 24.806 30.1132 24.7596 30.3298 24.7596C30.5464 24.7596 30.7605 24.806 30.9577 24.8956C31.1549 24.9853 31.3306 25.1161 31.473 25.2794C31.6154 25.4426 31.7213 25.6344 31.7834 25.8419C31.8455 26.0495 31.8624 26.2679 31.833 26.4825L31.329 30.0088C31.2935 30.2484 31.1735 30.4675 30.9905 30.6264C30.8076 30.7853 30.5738 30.8734 30.3315 30.875ZM30.3315 35.25C30.7957 35.25 31.2408 35.0656 31.569 34.7374C31.8972 34.4092 32.0815 33.9641 32.0815 33.5C32.0815 33.0359 31.8972 32.5908 31.569 32.2626C31.2408 31.9344 30.7957 31.75 30.3315 31.75C29.8674 31.75 29.4223 31.9344 29.0941 32.2626C28.7659 32.5908 28.5815 33.0359 28.5815 33.5C28.5815 33.9641 28.7659 34.4092 29.0941 34.7374C29.4223 35.0656 29.8674 35.25 30.3315 35.25Z" fill="black"/>
</g>
<defs>
<clipPath id="clip0_507_14486">
<rect width="28" height="28" fill="white" transform="translate(9.33105 9)"/>
</clipPath>
</defs>
</svg>
