<svg width="34" height="33" viewBox="0 0 34 33" fill="none" xmlns="http://www.w3.org/2000/svg">
<rect x="1" y="0.5" width="32" height="32" rx="16" fill="#F8FAFB"/>
<rect x="1" y="0.5" width="32" height="32" rx="16" stroke="#D6D5D6"/>
<path d="M17.9899 19.5C17.9899 19.7171 18.0606 19.9284 18.1913 20.1018C18.322 20.2752 18.5055 20.4014 18.7142 20.4613C18.923 20.5211 19.1455 20.5114 19.3482 20.4336C19.551 20.3558 19.7228 20.2141 19.8379 20.03L22.5259 17.343C22.6188 17.2501 22.6924 17.1398 22.7426 17.0184C22.7929 16.8971 22.8187 16.767 22.8186 16.6356C22.8186 16.5043 22.7927 16.3742 22.7424 16.2529C22.6921 16.1316 22.6183 16.0213 22.5254 15.9285C22.4325 15.8357 22.3222 15.762 22.2009 15.7118C22.0795 15.6616 21.9494 15.6358 21.8181 15.6358C21.6867 15.6358 21.5567 15.6618 21.4353 15.7121C21.314 15.7624 21.2038 15.8361 21.1109 15.929L19.9909 17.049V9.5C19.9909 9.23478 19.8856 8.98043 19.698 8.79289C19.5105 8.60536 19.2561 8.5 18.9909 8.5C18.7257 8.5 18.4714 8.60536 18.2838 8.79289C18.0963 8.98043 17.9909 9.23478 17.9909 9.5L17.9899 19.5ZM16.0219 13.5C16.0219 13.2829 15.9513 13.0716 15.8206 12.8982C15.6899 12.7248 15.5063 12.5986 15.2976 12.5387C15.0889 12.4789 14.8663 12.4886 14.6636 12.5664C14.4609 12.6442 14.289 12.7859 14.1739 12.97L11.4869 15.657C11.3914 15.7492 11.3152 15.8596 11.2628 15.9816C11.2104 16.1036 11.1828 16.2348 11.1817 16.3676C11.1805 16.5004 11.2058 16.6321 11.2561 16.755C11.3064 16.8779 11.3806 16.9895 11.4745 17.0834C11.5684 17.1773 11.6801 17.2515 11.803 17.3018C11.9259 17.3521 12.0576 17.3774 12.1903 17.3763C12.3231 17.3751 12.4543 17.3475 12.5763 17.2951C12.6983 17.2427 12.8087 17.1665 12.9009 17.071L14.0219 15.951V23.5C14.0219 23.7652 14.1273 24.0196 14.3148 24.2071C14.5024 24.3946 14.7567 24.5 15.0219 24.5C15.2871 24.5 15.5415 24.3946 15.729 24.2071C15.9166 24.0196 16.0219 23.7652 16.0219 23.5V13.5Z" fill="#00BFFF"/>
</svg>
