<svg width="25" height="25" viewBox="0 0 25 25" fill="none" xmlns="http://www.w3.org/2000/svg">
<path d="M4.46094 20.6625C4.46094 21.0467 4.77734 21.3706 5.16908 21.3706H16.7932C17.1775 21.3706 17.5014 21.0467 17.5014 20.6625C17.5014 20.2783 17.185 19.9543 16.7932 19.9543H16.2132V15.0801C16.6576 15.1479 16.9288 15.4493 16.9288 15.9164V17.1594C16.9288 18.2894 17.6822 19.0428 18.8122 19.0428C19.9046 19.0428 20.6353 18.2894 20.6353 17.1594V9.36977C20.6353 8.38288 20.4545 7.56173 20.1004 6.92139C19.7388 6.31117 19.204 5.89683 18.5109 5.6859C18.202 5.58796 17.8555 5.7763 17.7575 6.08517C17.6671 6.40911 17.8479 6.75565 18.1719 6.84605C18.5711 6.95152 19.1211 7.26793 19.3396 8.33768H18.3301C17.9609 8.33768 17.6747 8.62395 17.6747 8.99309V11.9839C17.6747 12.3455 17.9685 12.6318 18.3301 12.6318H19.43V17.1594C19.43 17.5587 19.1814 17.8223 18.8198 17.8223C18.4054 17.8223 18.1267 17.5587 18.1267 17.1594V15.9013C18.1267 14.6809 17.4185 13.9275 16.2132 13.8597V5.64823C16.2132 4.3148 15.4975 3.59912 14.1641 3.59912H7.79827C6.46484 3.59912 5.74916 4.3148 5.74916 5.64823V19.9543H5.16908C4.78488 19.9543 4.46094 20.2783 4.46094 20.6625ZM8.09961 12.0517C7.51953 12.0517 7.16546 11.7277 7.16546 11.2004V5.8667C7.16546 5.33936 7.51953 5.01542 8.09961 5.01542H13.8627C14.4428 5.01542 14.7969 5.33936 14.7969 5.8667V11.2004C14.7969 11.7277 14.4428 12.0517 13.8627 12.0517H8.09961Z" fill="black"/>
</svg>
