<svg width="109" height="35" viewBox="0 0 109 35" fill="none" xmlns="http://www.w3.org/2000/svg">
<rect width="109" height="35" rx="17.5" fill="white"/>
<path fill-rule="evenodd" clip-rule="evenodd" d="M21 17.5C21 17.8958 20.6795 18.2174 20.2825 18.2174H16.2169V22.2826C16.2169 22.6784 15.8964 23 15.4994 23C15.1024 23 14.7831 22.6784 14.7831 22.2826V18.2174H10.7163C10.3193 18.2174 10 17.8958 10 17.5C10 17.1042 10.3193 16.7826 10.7163 16.7826H14.7831V12.7174C14.7831 12.3216 15.1024 12 15.4994 12C15.8964 12 16.2169 12.3216 16.2169 12.7174V16.7826H20.2825C20.6795 16.7826 21 17.1042 21 17.5Z" fill="#001F3F"/>
<path d="M30.544 22H29.02V12.844H35.08V14.212H30.544V16.732H34.576V18.088H30.544V22ZM38.1895 22.132C37.1815 22.132 36.4975 21.764 36.1375 21.028C36.0335 20.812 35.9575 20.572 35.9095 20.308C35.8695 20.036 35.8495 19.672 35.8495 19.216V15.292H37.2655V19.228C37.2655 19.9 37.3815 20.364 37.6135 20.62C37.8055 20.836 38.1095 20.944 38.5255 20.944C38.9815 20.944 39.3415 20.8 39.6055 20.512C39.7735 20.328 39.8935 20.084 39.9655 19.78C40.0375 19.468 40.0735 19.052 40.0735 18.532V15.292H41.4895V22H40.0735V21.088C39.7935 21.456 39.5055 21.724 39.2095 21.892C38.9215 22.052 38.5815 22.132 38.1895 22.132ZM43.0339 22V15.292H44.4499V16.204C44.7299 15.82 45.0179 15.552 45.3139 15.4C45.6099 15.248 45.9459 15.172 46.3219 15.172C47.3299 15.172 48.0139 15.536 48.3739 16.264C48.5099 16.528 48.5939 16.796 48.6259 17.068C48.6579 17.34 48.6739 17.676 48.6739 18.076V22H47.2459V18.076C47.2459 17.724 47.2179 17.436 47.1619 17.212C47.1139 16.988 47.0299 16.812 46.9099 16.684C46.7179 16.468 46.4139 16.36 45.9979 16.36C45.5099 16.36 45.1459 16.504 44.9059 16.792C44.7459 16.976 44.6299 17.22 44.5579 17.524C44.4859 17.828 44.4499 18.244 44.4499 18.772V22H43.0339ZM52.8706 22.132C52.2866 22.132 51.7706 21.988 51.3226 21.7C50.8826 21.404 50.5386 20.992 50.2906 20.464C50.0426 19.936 49.9186 19.332 49.9186 18.652C49.9186 17.972 50.0426 17.368 50.2906 16.84C50.5386 16.312 50.8826 15.904 51.3226 15.616C51.7706 15.32 52.2866 15.172 52.8706 15.172C53.2946 15.172 53.6626 15.248 53.9746 15.4C54.2866 15.552 54.5866 15.82 54.8746 16.204V12.844H56.2906V22H54.8746V21.088C54.5866 21.472 54.2866 21.744 53.9746 21.904C53.6706 22.056 53.3026 22.132 52.8706 22.132ZM53.1586 20.908C53.5186 20.908 53.8386 20.812 54.1186 20.62C54.3986 20.428 54.6186 20.16 54.7786 19.816C54.9386 19.472 55.0186 19.084 55.0186 18.652C55.0186 18.22 54.9386 17.832 54.7786 17.488C54.6186 17.144 54.3986 16.876 54.1186 16.684C53.8386 16.492 53.5186 16.396 53.1586 16.396C52.6066 16.396 52.1666 16.608 51.8386 17.032C51.5106 17.456 51.3466 17.996 51.3466 18.652C51.3466 19.308 51.5106 19.848 51.8386 20.272C52.1666 20.696 52.6066 20.908 53.1586 20.908ZM65.1719 22H63.0359L60.5279 12.844H62.1239L64.1399 20.44L66.0239 12.844H67.8359L69.7319 20.452L71.7359 12.844H73.3319L70.8359 22H68.6879L66.9359 14.824L65.1719 22ZM75.645 22.132C74.989 22.132 74.461 21.96 74.061 21.616C73.661 21.272 73.461 20.792 73.461 20.176C73.461 19.552 73.705 19.06 74.193 18.7C74.545 18.444 75.065 18.248 75.753 18.112L77.877 17.716C77.869 17.268 77.749 16.924 77.517 16.684C77.269 16.436 76.933 16.312 76.509 16.312C76.165 16.312 75.865 16.412 75.609 16.612C75.353 16.804 75.193 17.068 75.129 17.404H73.713C73.825 16.684 74.145 16.132 74.673 15.748C75.209 15.364 75.825 15.172 76.521 15.172C76.921 15.172 77.293 15.228 77.637 15.34C77.989 15.452 78.289 15.62 78.537 15.844C78.865 16.148 79.069 16.504 79.149 16.912C79.237 17.32 79.281 17.804 79.281 18.364V22H77.865V21.04C77.689 21.344 77.465 21.584 77.193 21.76C76.817 22.008 76.301 22.132 75.645 22.132ZM75.957 20.98C76.285 20.98 76.593 20.912 76.881 20.776C77.257 20.584 77.517 20.332 77.661 20.02C77.813 19.708 77.889 19.296 77.889 18.784L76.101 19.132C75.637 19.228 75.309 19.364 75.117 19.54C74.957 19.7 74.877 19.9 74.877 20.14C74.877 20.404 74.973 20.612 75.165 20.764C75.365 20.908 75.629 20.98 75.957 20.98ZM82.3043 22C81.7843 22 81.3923 21.88 81.1283 21.64C80.8643 21.4 80.7323 21.004 80.7323 20.452V12.844H82.1483V20.08C82.1483 20.344 82.1923 20.532 82.2803 20.644C82.3763 20.756 82.5443 20.812 82.7843 20.812H83.1803V22H82.3043ZM85.8199 22C85.2999 22 84.9079 21.88 84.6439 21.64C84.3799 21.4 84.2479 21.004 84.2479 20.452V12.844H85.6639V20.08C85.6639 20.344 85.7079 20.532 85.7959 20.644C85.8919 20.756 86.0599 20.812 86.2999 20.812H86.6959V22H85.8199ZM90.6372 22.132C89.9812 22.132 89.3972 21.984 88.8852 21.688C88.3812 21.384 87.9892 20.972 87.7092 20.452C87.4292 19.924 87.2892 19.332 87.2892 18.676C87.2892 18.068 87.4132 17.496 87.6612 16.96C87.9172 16.424 88.2932 15.992 88.7892 15.664C89.2932 15.336 89.8972 15.172 90.6012 15.172C91.1932 15.172 91.7412 15.3 92.2452 15.556C92.7572 15.804 93.1652 16.184 93.4692 16.696C93.7812 17.208 93.9372 17.836 93.9372 18.58V18.94H88.7292C88.7772 19.252 88.8532 19.5 88.9572 19.684C89.1172 20.06 89.3452 20.356 89.6412 20.572C89.9452 20.788 90.2892 20.896 90.6732 20.896C91.0812 20.896 91.4292 20.792 91.7172 20.584C92.0132 20.368 92.2252 20.1 92.3532 19.78H93.8172C93.6012 20.476 93.2252 21.044 92.6892 21.484C92.1532 21.916 91.4692 22.132 90.6372 22.132ZM92.4612 17.824C92.4292 17.576 92.3572 17.364 92.2452 17.188C92.0852 16.908 91.8652 16.696 91.5852 16.552C91.3052 16.4 90.9932 16.324 90.6492 16.324C90.2972 16.324 89.9852 16.4 89.7132 16.552C89.4412 16.696 89.2212 16.908 89.0532 17.188C88.9492 17.348 88.8692 17.56 88.8132 17.824H92.4612ZM97.2003 22C96.6803 22 96.2883 21.88 96.0243 21.64C95.7603 21.4 95.6283 21.004 95.6283 20.452V16.468H94.6203V15.292H95.6283V12.844H97.0443V15.292H98.4123V16.468H97.0443V20.056C97.0443 20.312 97.0843 20.504 97.1643 20.632C97.2443 20.752 97.4203 20.812 97.6923 20.812H98.4003V22H97.2003Z" fill="#001F3F"/>
</svg>
