<svg width="31" height="30" viewBox="0 0 31 30" fill="none" xmlns="http://www.w3.org/2000/svg">
<g clip-path="url(#clip0_218_43938)">
<path d="M14.5759 15.5054L14.675 15.4361C15.1963 15.0712 15.8999 15.0712 16.4212 15.4361L16.5203 15.5054L16.5247 15.6263C16.5789 17.0951 17.1743 18.492 18.1963 19.5483C19.2183 20.6046 20.5948 21.2457 22.061 21.3483C23.5272 21.4509 24.9796 21.0077 26.1388 20.1041C27.298 19.2004 28.0821 17.9001 28.3403 16.4531L28.3772 16.2465L28.587 16.2529L28.6789 16.2556C28.8462 16.2545 29.0114 16.2188 29.1642 16.1508C29.3183 16.0823 29.4564 15.9825 29.5698 15.8577L29.7497 16.0212L29.5698 15.8577C29.6832 15.733 29.7694 15.586 29.8229 15.4261C29.8764 15.2662 29.8961 15.097 29.8807 14.9291L30.1228 14.9069L29.8807 14.9291C29.8653 14.7612 29.8152 14.5984 29.7334 14.4509C29.6517 14.3034 29.5402 14.1746 29.406 14.0726C29.2718 13.9705 29.1178 13.8975 28.9539 13.8582C28.79 13.8188 28.6196 13.814 28.4537 13.844L28.2408 13.8826L28.1778 13.6755C27.8292 12.5285 27.1428 11.5133 26.2082 10.7626C25.2735 10.0118 24.1342 9.56039 22.939 9.4673C21.7438 9.37421 20.5484 9.64376 19.5088 10.2408C18.4692 10.8377 17.6338 11.7344 17.1118 12.8136L17.0186 13.0064L16.8155 12.9382C15.9932 12.6619 15.103 12.6619 14.2806 12.9382L14.0774 13.0065L13.9842 12.8133C13.4633 11.7329 12.6282 10.835 11.5885 10.2371C10.5487 9.63914 9.35258 9.36907 8.15676 9.46221C6.96093 9.55535 5.82109 10.0074 4.88643 10.7591C3.95176 11.5108 3.26584 12.5272 2.91843 13.6752L2.85539 13.8836L2.64138 13.8438C2.47186 13.8124 2.29757 13.8173 2.13011 13.8584C1.96265 13.8995 1.80584 13.9757 1.67009 14.082C1.53435 14.1883 1.42277 14.3223 1.34278 14.475C1.26279 14.6278 1.2162 14.7958 1.20612 14.9679C1.19604 15.14 1.2227 15.3123 1.28432 15.4734C1.34594 15.6344 1.44112 15.7805 1.56353 15.9019C1.68594 16.0234 1.83278 16.1174 1.9943 16.1777C2.15583 16.238 2.32834 16.2633 2.50038 16.2518L2.71756 16.2374L2.75585 16.4516C3.00186 17.8279 3.72405 19.0738 4.79602 19.9713C5.86799 20.8688 7.22145 21.3607 8.61951 21.3609L14.5759 15.5054ZM14.5759 15.5054L14.5714 15.6262M14.5759 15.5054L14.5714 15.6262M14.5714 15.6262C14.5141 17.1665 13.862 18.6245 12.7521 19.694C11.6421 20.7634 10.1609 21.3609 8.61956 21.3609L14.5714 15.6262ZM8.61952 18.9298C9.55442 18.9298 10.451 18.5585 11.1121 17.8974C11.7732 17.2363 12.1446 16.3397 12.1446 15.4048C12.1446 14.4699 11.7732 13.5733 11.1121 12.9122C10.451 12.2511 9.55442 11.8797 8.61952 11.8797C7.68461 11.8797 6.788 12.2511 6.12692 12.9122C5.46584 13.5733 5.09445 14.4699 5.09445 15.4048C5.09445 16.3397 5.46584 17.2363 6.12692 17.8974C6.788 18.5585 7.68461 18.9298 8.61952 18.9298ZM24.9693 17.8974C25.6303 17.2363 26.0017 16.3397 26.0017 15.4048C26.0017 14.4699 25.6303 13.5733 24.9693 12.9122C24.3082 12.2511 23.4116 11.8797 22.4767 11.8797C21.5418 11.8797 20.6451 12.2511 19.9841 12.9122C19.323 13.5733 18.9516 14.4699 18.9516 15.4048C18.9516 16.3397 19.323 17.2363 19.9841 17.8974C20.6451 18.5585 21.5418 18.9298 22.4767 18.9298C23.4116 18.9298 24.3082 18.5585 24.9693 17.8974Z" fill="black" stroke="#F8F8F8" stroke-width="0.486216"/>
</g>
<defs>
<clipPath id="clip0_218_43938">
<rect width="29.1729" height="29.1729" fill="white" transform="translate(0.960938 0.453644)"/>
</clipPath>
</defs>
</svg>
