<svg width="21" height="22" viewBox="0 0 21 22" fill="none" xmlns="http://www.w3.org/2000/svg">
<g clip-path="url(#clip0_73_1567)">
<path d="M21.0001 11.2411C21.0001 10.5274 20.9411 9.80975 20.8151 9.10756H10.7107V13.1509H16.497C16.2569 14.455 15.4854 15.6086 14.3557 16.3416V18.9652H17.8078C19.835 17.1364 21.0001 14.4357 21.0001 11.2411Z" fill="#030206"/>
<path d="M10.7109 21.5C13.6002 21.5 16.0367 20.5702 17.812 18.9652L14.3599 16.3416C13.3994 16.9821 12.1595 17.3447 10.7149 17.3447C7.92013 17.3447 5.5505 15.4967 4.70026 13.012H1.13794V15.7166C2.9565 19.2623 6.66053 21.5 10.7109 21.5Z" fill="#34A853"/>
<path d="M4.69623 13.012C4.24749 11.708 4.24749 10.2959 4.69623 8.99182V6.28725H1.13784C-0.381559 9.25418 -0.381559 12.7497 1.13784 15.7166L4.69623 13.012Z" fill="#FBBC04"/>
<path d="M10.7109 4.65524C12.2382 4.63209 13.7143 5.19538 14.8204 6.22937L17.8789 3.23157C15.9423 1.4491 13.3719 0.469125 10.7109 0.49999C6.66053 0.49999 2.9565 2.73773 1.13794 6.28724L4.69633 8.99181C5.54263 6.5033 7.9162 4.65524 10.7109 4.65524Z" fill="#EA4335"/>
</g>
<defs>
<clipPath id="clip0_73_1567">
<rect width="21" height="21" fill="white" transform="translate(0 0.5)"/>
</clipPath>
</defs>
</svg>
