<svg width="30" height="30" viewBox="0 0 30 30" fill="none" xmlns="http://www.w3.org/2000/svg">
<path d="M15.2305 2.83002C15.6063 2.83002 15.9737 2.86397 16.3314 2.92944C15.5964 3.41789 14.9481 4.02562 14.4132 4.72758C13.8421 4.83977 13.3001 5.06822 12.821 5.39874C12.3418 5.72926 11.9358 6.15478 11.6281 6.64887C11.3204 7.14296 11.1176 7.69505 11.0323 8.27084C10.947 8.84663 10.981 9.43381 11.1322 9.99589C11.1737 10.1502 11.1738 10.3126 11.1325 10.467C11.0912 10.6213 11.01 10.762 10.897 10.875L4.92422 16.8477V20.4113H7.34922V18.2894C7.34922 18.0482 7.44503 17.8169 7.61557 17.6464C7.78611 17.4758 8.01741 17.38 8.25859 17.38H10.9867V15.8644C10.9869 15.6233 11.0829 15.3921 11.2535 15.2218L13.5754 12.8998C13.8458 13.4649 14.1817 13.9923 14.5733 14.4737L12.8055 16.2403V18.2882C12.8055 18.5294 12.7097 18.7607 12.5391 18.9312C12.3686 19.1017 12.1373 19.1976 11.8961 19.1976H9.16797V21.3194C9.16797 21.5606 9.07216 21.7919 8.90162 21.9625C8.73108 22.133 8.49977 22.2288 8.25859 22.2288H4.01484C3.77366 22.2288 3.54236 22.133 3.37182 21.9625C3.20128 21.7919 3.10547 21.5606 3.10547 21.3194V16.4694C3.10568 16.2283 3.20163 15.9972 3.37222 15.8268L9.25891 9.94012C9.106 9.06858 9.14574 8.17413 9.37531 7.31958C9.60489 6.46503 10.0187 5.6711 10.5878 4.99352C11.1569 4.31594 11.8674 3.77115 12.6694 3.39739C13.4715 3.02364 14.3456 2.82998 15.2305 2.83002ZM20.6867 4.64877C19.6061 4.64835 18.5563 5.00882 17.7039 5.67297C16.8516 6.33713 16.2454 7.26692 15.9816 8.31482C15.7178 9.36272 15.8115 10.4687 16.2479 11.4573C16.6842 12.4458 17.4382 13.2604 18.3902 13.7716C18.5347 13.8495 18.6553 13.965 18.7394 14.1059C18.8235 14.2468 18.8679 14.4078 18.868 14.5719V23.9493L21.3136 26.1731L23.8877 23.9918L22.771 22.8714C22.6014 22.701 22.5063 22.4704 22.5063 22.23C22.5063 21.9896 22.6014 21.759 22.771 21.5886L23.9435 20.4113L22.771 19.2351C22.6009 19.0646 22.5054 18.8334 22.5055 18.5925V14.5719C22.5055 14.4078 22.5499 14.2468 22.634 14.1059C22.7181 13.965 22.8388 13.8495 22.9832 13.7716C23.9352 13.2604 24.6892 12.4458 25.1256 11.4573C25.5619 10.4687 25.6556 9.36272 25.3919 8.31482C25.1281 7.26692 24.5219 6.33713 23.6695 5.67297C22.8171 5.00882 21.7673 4.64835 20.6867 4.64877ZM14.018 9.49877C14.018 8.34324 14.3183 7.20756 14.8894 6.20303C15.4605 5.19851 16.2829 4.35962 17.2758 3.7686C18.2688 3.17758 19.3982 2.8547 20.5535 2.83162C21.7088 2.80854 22.8503 3.08605 23.866 3.63695C24.8818 4.18785 25.737 4.99322 26.3477 5.97414C26.9585 6.95505 27.3039 8.07784 27.3501 9.23244C27.3963 10.387 27.1417 11.5338 26.6113 12.5604C26.0808 13.587 25.2927 14.4581 24.3242 15.0884V18.2166L25.8714 19.7686C26.0417 19.9391 26.1373 20.1703 26.1373 20.4113C26.1373 20.6523 26.0417 20.8834 25.8714 21.0539L24.6989 22.23L25.8714 23.4061C25.9601 23.4951 26.0295 23.6015 26.0751 23.7185C26.1207 23.8356 26.1415 23.9609 26.1363 24.0865C26.131 24.212 26.0998 24.3351 26.0446 24.448C25.9895 24.5609 25.9115 24.6611 25.8156 24.7423L21.881 28.0767C21.7126 28.2197 21.4979 28.2964 21.277 28.2926C21.0561 28.2888 20.8441 28.2047 20.6807 28.0561L17.3463 25.0248C17.2526 24.9395 17.1778 24.8356 17.1267 24.7197C17.0755 24.6039 17.0491 24.4786 17.0492 24.3519V15.0884C16.1182 14.483 15.3533 13.6546 14.8239 12.6784C14.2945 11.7023 14.0175 10.6093 14.018 9.49877ZM21.8992 8.28627C21.8992 8.60784 21.7715 8.91625 21.5441 9.14363C21.3167 9.37102 21.0083 9.49877 20.6867 9.49877C20.3651 9.49877 20.0567 9.37102 19.8294 9.14363C19.602 8.91625 19.4742 8.60784 19.4742 8.28627C19.4742 7.96469 19.602 7.65629 19.8294 7.4289C20.0567 7.20151 20.3651 7.07377 20.6867 7.07377C21.0083 7.07377 21.3167 7.20151 21.5441 7.4289C21.7715 7.65629 21.8992 7.96469 21.8992 8.28627Z" fill="#00BFFF" stroke="#F8F8F8" stroke-width="0.97"/>
</svg>
