<svg width="48" height="48" viewBox="0 0 48 48" fill="none" xmlns="http://www.w3.org/2000/svg">
<rect width="47.6871" height="47.6871" rx="23.8436" fill="#001F3F"/>
<path d="M29.5052 29.4611C29.8892 29.0797 30.5048 29.0797 30.8888 29.4611L33.4268 31.5098H33.4709C33.9843 32.0288 33.9843 32.8702 33.4709 33.3892C32.9574 33.9082 32.1249 33.9082 31.6114 33.3892L29.5052 30.9753L29.4253 30.8852C29.2764 30.6967 29.1942 30.4617 29.1942 30.2182C29.1942 29.9341 29.3061 29.6616 29.5052 29.4611ZM22.5081 13.9088C24.7682 13.9088 26.9357 14.8163 28.5338 16.4316C30.132 18.047 31.0298 20.2378 31.0298 22.5223C31.0298 27.2793 27.2145 31.1357 22.5081 31.1357C17.8016 31.1357 13.9863 27.2793 13.9863 22.5223C13.9863 17.7652 17.8016 13.9088 22.5081 13.9088Z" fill="white"/>
</svg>
