<svg width="69" height="54" viewBox="0 0 69 54" fill="none" xmlns="http://www.w3.org/2000/svg">
<path fill-rule="evenodd" clip-rule="evenodd" d="M63.1389 28.8276V29.5331H63.0101V29.0005L62.8114 29.4602H62.6762L62.4775 29.0016V29.5331H62.347V28.8276H62.5313L62.7426 29.3118L62.9552 28.8276H63.1389ZM61.9711 28.9484V29.5331H61.97H61.8406V28.9484H61.6055V28.8294H62.2063V28.9484H61.9711Z" fill="#F79410"/>
<path d="M42.2535 32.5588H26.3555V3.98779H42.2538L42.2535 32.5588Z" fill="#FF5F00"/>
<path d="M27.3652 18.2738C27.3652 12.4782 30.0789 7.3154 34.3046 3.9883C31.1059 1.46614 27.1497 0.0972725 23.0763 0.103291C13.0421 0.103291 4.9082 8.23838 4.9082 18.2738C4.9082 28.3092 13.0421 36.4443 23.0763 36.4443C27.1498 36.4504 31.1061 35.0815 34.3049 32.5593C30.0795 29.2327 27.3652 24.0697 27.3652 18.2738Z" fill="#EB001B"/>
<path d="M63.7028 18.2738C63.7028 28.3092 55.5689 36.4443 45.5347 36.4443C41.4608 36.4502 37.504 35.0814 34.3047 32.5593C38.5315 29.2322 41.2452 24.0697 41.2452 18.2738C41.2452 12.4779 38.5315 7.3154 34.3047 3.9883C37.5039 1.46621 41.4606 0.097378 45.5344 0.103291C55.5686 0.103291 63.7025 8.23837 63.7025 18.2738" fill="#F79E1B"/>
<path d="M2.91309 50.4443H1.49709V41.2883H3.92109L6.09309 48.7163L8.27709 41.2883H10.7011V50.4443H9.28509V42.2603L6.80109 50.4443H5.40909L2.91309 42.3203V50.4443ZM14.2898 50.5763C13.6338 50.5763 13.1058 50.4043 12.7058 50.0603C12.3058 49.7083 12.1058 49.2323 12.1058 48.6323C12.1058 48.0163 12.3458 47.5323 12.8258 47.1803C13.1858 46.9163 13.7018 46.7203 14.3738 46.5923L16.5578 46.1723C16.5498 45.7083 16.4258 45.3523 16.1858 45.1043C15.9218 44.8403 15.5698 44.7083 15.1298 44.7083C14.7698 44.7083 14.4538 44.8123 14.1818 45.0203C13.9178 45.2203 13.7498 45.4923 13.6778 45.8363H12.3698C12.4818 45.1323 12.7978 44.5883 13.3178 44.2043C13.8378 43.8203 14.4458 43.6283 15.1418 43.6283C15.5338 43.6283 15.9018 43.6883 16.2458 43.8083C16.5978 43.9203 16.8938 44.0883 17.1338 44.3123C17.4538 44.6083 17.6538 44.9563 17.7338 45.3563C17.8218 45.7563 17.8658 46.2163 17.8658 46.7363V50.4443H16.5458V49.4603C16.3618 49.7723 16.1298 50.0163 15.8498 50.1923C15.4498 50.4483 14.9298 50.5763 14.2898 50.5763ZM14.5538 49.4843C14.9058 49.4843 15.2258 49.4123 15.5138 49.2683C15.9058 49.0683 16.1778 48.8043 16.3298 48.4763C16.4898 48.1403 16.5698 47.7083 16.5698 47.1803L14.6858 47.5523C14.2218 47.6483 13.8858 47.7923 13.6778 47.9843C13.5098 48.1523 13.4258 48.3563 13.4258 48.5963C13.4258 48.8763 13.5258 49.0963 13.7258 49.2563C13.9338 49.4083 14.2098 49.4843 14.5538 49.4843ZM22.1857 50.5763C21.3457 50.5763 20.6417 50.3763 20.0737 49.9763C19.5137 49.5683 19.1777 48.9923 19.0657 48.2483H20.3977C20.4937 48.6403 20.6897 48.9443 20.9857 49.1603C21.2897 49.3763 21.6897 49.4843 22.1857 49.4843C22.5937 49.4843 22.9217 49.4083 23.1697 49.2563C23.4177 49.0963 23.5417 48.8723 23.5417 48.5843C23.5417 48.3603 23.4657 48.1843 23.3137 48.0563C23.1617 47.9203 22.9697 47.8163 22.7377 47.7443C22.5057 47.6723 22.1977 47.5963 21.8137 47.5163C21.2857 47.4123 20.8577 47.3043 20.5297 47.1923C20.2017 47.0803 19.9217 46.8963 19.6897 46.6403C19.4577 46.3843 19.3417 46.0323 19.3417 45.5843C19.3417 44.9523 19.5777 44.4683 20.0497 44.1323C20.5217 43.7963 21.1217 43.6283 21.8497 43.6283C22.6017 43.6283 23.2297 43.8243 23.7337 44.2163C24.2377 44.6003 24.5497 45.1363 24.6697 45.8243H23.4337C23.3377 45.4483 23.1497 45.1683 22.8697 44.9843C22.5897 44.8003 22.2497 44.7083 21.8497 44.7083C21.4657 44.7083 21.1657 44.7803 20.9497 44.9243C20.7337 45.0683 20.6257 45.2643 20.6257 45.5123C20.6257 45.7123 20.6977 45.8723 20.8417 45.9923C20.9857 46.1043 21.1617 46.1923 21.3697 46.2563C21.5857 46.3203 21.8857 46.3883 22.2697 46.4603C22.8137 46.5643 23.2577 46.6763 23.6017 46.7963C23.9457 46.9083 24.2377 47.1003 24.4777 47.3723C24.7257 47.6363 24.8497 48.0043 24.8497 48.4763C24.8497 49.1163 24.6137 49.6283 24.1417 50.0123C23.6697 50.3883 23.0177 50.5763 22.1857 50.5763ZM28.2399 50.4443C27.7199 50.4443 27.3279 50.3243 27.0639 50.0843C26.7999 49.8443 26.6679 49.4403 26.6679 48.8723V44.8643H25.6359V43.7603H26.6679V41.2883H27.9879V43.7603H29.3799V44.8643H27.9879V48.5243C27.9879 48.8043 28.0279 49.0083 28.1079 49.1363C28.1879 49.2643 28.3719 49.3283 28.6599 49.3283H29.3679V50.4443H28.2399ZM33.4884 50.5763C32.8404 50.5763 32.2644 50.4283 31.7604 50.1323C31.2564 49.8283 30.8644 49.4163 30.5844 48.8963C30.3044 48.3683 30.1644 47.7803 30.1644 47.1323C30.1644 46.5243 30.2884 45.9523 30.5364 45.4163C30.7924 44.8803 31.1684 44.4483 31.6644 44.1203C32.1604 43.7923 32.7564 43.6283 33.4524 43.6283C34.0444 43.6283 34.5884 43.7563 35.0844 44.0123C35.5884 44.2683 35.9924 44.6523 36.2964 45.1643C36.6004 45.6683 36.7524 46.2843 36.7524 47.0123V47.3723H31.5084C31.5324 47.6363 31.5964 47.8763 31.7004 48.0923C31.8604 48.5003 32.1004 48.8243 32.4204 49.0643C32.7404 49.3043 33.1044 49.4243 33.5124 49.4243C33.9364 49.4243 34.3004 49.3163 34.6044 49.1003C34.9084 48.8763 35.1284 48.5923 35.2644 48.2483H36.6444C36.4204 48.9363 36.0404 49.4963 35.5044 49.9283C34.9764 50.3603 34.3044 50.5763 33.4884 50.5763ZM35.3844 46.3043C35.3524 46.0563 35.2844 45.8443 35.1804 45.6683C35.0204 45.3643 34.7884 45.1323 34.4844 44.9723C34.1884 44.8043 33.8604 44.7203 33.5004 44.7203C33.1244 44.7203 32.7924 44.8043 32.5044 44.9723C32.2164 45.1323 31.9884 45.3643 31.8204 45.6683C31.7244 45.8283 31.6484 46.0403 31.5924 46.3043H35.3844ZM38.0576 50.4443V43.7603H39.3776V44.6123C39.6496 44.2603 39.9496 44.0083 40.2776 43.8563C40.6056 43.7043 40.9856 43.6283 41.4176 43.6283H41.5496V44.9243H41.1896C40.6536 44.9243 40.2376 45.0723 39.9416 45.3683C39.5656 45.7283 39.3776 46.3203 39.3776 47.1443V50.4443H38.0576ZM45.4413 50.5763C44.7933 50.5763 44.2173 50.4283 43.7133 50.1323C43.2173 49.8363 42.8293 49.4243 42.5493 48.8963C42.2693 48.3603 42.1293 47.7523 42.1293 47.0723C42.1293 46.4083 42.2693 45.8163 42.5493 45.2963C42.8293 44.7763 43.2173 44.3683 43.7133 44.0723C44.2173 43.7763 44.7933 43.6283 45.4413 43.6283C46.2173 43.6283 46.8733 43.8283 47.4093 44.2283C47.9533 44.6283 48.3053 45.1643 48.4653 45.8363H47.0493C46.9293 45.4923 46.7293 45.2243 46.4493 45.0323C46.1693 44.8403 45.8333 44.7443 45.4413 44.7443C45.0573 44.7443 44.7173 44.8443 44.4213 45.0443C44.1253 45.2363 43.8933 45.5083 43.7253 45.8603C43.5573 46.2123 43.4733 46.6163 43.4733 47.0723C43.4733 47.5443 43.5573 47.9603 43.7253 48.3203C43.8933 48.6803 44.1253 48.9603 44.4213 49.1603C44.7173 49.3603 45.0573 49.4603 45.4413 49.4603C45.8573 49.4603 46.2093 49.3523 46.4973 49.1363C46.7933 48.9123 46.9893 48.6163 47.0853 48.2483H48.5133C48.3613 48.9683 48.0053 49.5363 47.4453 49.9523C46.8933 50.3683 46.2253 50.5763 45.4413 50.5763ZM51.6492 50.5763C50.9932 50.5763 50.4652 50.4043 50.0652 50.0603C49.6652 49.7083 49.4652 49.2323 49.4652 48.6323C49.4652 48.0163 49.7052 47.5323 50.1852 47.1803C50.5452 46.9163 51.0612 46.7203 51.7332 46.5923L53.9172 46.1723C53.9092 45.7083 53.7852 45.3523 53.5452 45.1043C53.2812 44.8403 52.9292 44.7083 52.4892 44.7083C52.1292 44.7083 51.8132 44.8123 51.5412 45.0203C51.2772 45.2203 51.1092 45.4923 51.0372 45.8363H49.7292C49.8412 45.1323 50.1572 44.5883 50.6772 44.2043C51.1972 43.8203 51.8052 43.6283 52.5012 43.6283C52.8932 43.6283 53.2612 43.6883 53.6052 43.8083C53.9572 43.9203 54.2532 44.0883 54.4932 44.3123C54.8132 44.6083 55.0132 44.9563 55.0932 45.3563C55.1812 45.7563 55.2252 46.2163 55.2252 46.7363V50.4443H53.9052V49.4603C53.7212 49.7723 53.4892 50.0163 53.2092 50.1923C52.8092 50.4483 52.2892 50.5763 51.6492 50.5763ZM51.9132 49.4843C52.2652 49.4843 52.5852 49.4123 52.8732 49.2683C53.2652 49.0683 53.5372 48.8043 53.6892 48.4763C53.8492 48.1403 53.9292 47.7083 53.9292 47.1803L52.0452 47.5523C51.5812 47.6483 51.2452 47.7923 51.0372 47.9843C50.8692 48.1523 50.7852 48.3563 50.7852 48.5963C50.7852 48.8763 50.8852 49.0963 51.0852 49.2563C51.2932 49.4083 51.5692 49.4843 51.9132 49.4843ZM56.749 50.4443V43.7603H58.069V44.6123C58.341 44.2603 58.641 44.0083 58.969 43.8563C59.297 43.7043 59.677 43.6283 60.109 43.6283H60.241V44.9243H59.881C59.345 44.9243 58.929 45.0723 58.633 45.3683C58.257 45.7283 58.069 46.3203 58.069 47.1443V50.4443H56.749ZM63.8321 50.5763C63.2481 50.5763 62.7321 50.4323 62.2841 50.1443C61.8361 49.8483 61.4881 49.4363 61.2401 48.9083C61.0001 48.3803 60.8801 47.7803 60.8801 47.1083C60.8801 46.4283 61.0001 45.8243 61.2401 45.2963C61.4881 44.7683 61.8361 44.3603 62.2841 44.0723C62.7321 43.7763 63.2481 43.6283 63.8321 43.6283C64.2721 43.6283 64.6481 43.7083 64.9601 43.8683C65.2721 44.0203 65.5761 44.2963 65.8721 44.6963V41.2883H67.1921V50.4443H65.8721V49.4963C65.5761 49.8963 65.2721 50.1763 64.9601 50.3363C64.6481 50.4963 64.2721 50.5763 63.8321 50.5763ZM64.0721 49.4243C64.4401 49.4243 64.7681 49.3283 65.0561 49.1363C65.3521 48.9363 65.5801 48.6603 65.7401 48.3083C65.9081 47.9563 65.9921 47.5563 65.9921 47.1083C65.9921 46.6603 65.9081 46.2603 65.7401 45.9083C65.5801 45.5483 65.3521 45.2723 65.0561 45.0803C64.7681 44.8803 64.4401 44.7803 64.0721 44.7803C63.5041 44.7803 63.0481 45.0003 62.7041 45.4403C62.3681 45.8723 62.2001 46.4283 62.2001 47.1083C62.2001 47.7883 62.3681 48.3443 62.7041 48.7763C63.0481 49.2083 63.5041 49.4243 64.0721 49.4243Z" fill="#7C797A"/>
</svg>
