<svg width="126" height="44" viewBox="0 0 126 44" fill="none" xmlns="http://www.w3.org/2000/svg">
<rect x="0.285156" y="0.162109" width="124.835" height="43.2385" rx="5.93272" fill="#E4AD23"/>
<path d="M28.8292 28.2812H26.589V13.7959H30.4239L33.8602 25.5475L37.3154 13.7959H41.1503V28.2812H38.9101V15.3337L34.9803 28.2812H32.778L28.8292 15.4286V28.2812ZM48.6694 28.4901C47.6442 28.4901 46.7266 28.2559 45.9166 27.7876C45.1193 27.3194 44.4928 26.6675 44.0371 25.8322C43.5942 24.9842 43.3727 24.0223 43.3727 22.9465C43.3727 21.8961 43.5942 20.9595 44.0371 20.1368C44.4928 19.3141 45.1193 18.6687 45.9166 18.2004C46.7266 17.7321 47.6442 17.4979 48.6694 17.4979C49.6946 17.4979 50.6059 17.7321 51.4032 18.2004C52.2132 18.6687 52.8397 19.3141 53.2827 20.1368C53.7383 20.9595 53.9661 21.8961 53.9661 22.9465C53.9661 24.0097 53.7447 24.9653 53.3017 25.8132C52.8587 26.6486 52.2322 27.3067 51.4222 27.7876C50.6248 28.2559 49.7072 28.4901 48.6694 28.4901ZM48.6694 26.6675C49.2769 26.6675 49.8212 26.5093 50.3021 26.1929C50.783 25.8765 51.1564 25.4335 51.4222 24.864C51.7006 24.2945 51.8399 23.6553 51.8399 22.9465C51.8399 22.2631 51.7006 21.6493 51.4222 21.105C51.1564 20.5481 50.783 20.1115 50.3021 19.7951C49.8212 19.4787 49.2769 19.3205 48.6694 19.3205C48.0619 19.3205 47.5177 19.4787 47.0367 19.7951C46.5558 20.0988 46.1761 20.5292 45.8976 21.086C45.6319 21.6303 45.499 22.2504 45.499 22.9465C45.499 23.668 45.6319 24.3134 45.8976 24.883C46.1761 25.4399 46.5558 25.8765 47.0367 26.1929C47.5177 26.5093 48.0619 26.6675 48.6694 26.6675ZM56.0456 28.2812V17.7068H58.1339V19.1876C58.6022 18.5674 59.0705 18.1308 59.5388 17.8776C60.007 17.6245 60.5386 17.4979 61.1335 17.4979C62.7155 17.4979 63.785 18.0675 64.3419 19.2066C64.557 19.6242 64.6899 20.0545 64.7406 20.4975C64.7912 20.9278 64.8165 21.4468 64.8165 22.0543V28.2812H62.7282V22.0353C62.7282 20.9595 62.5447 20.2127 62.1776 19.7951C61.8359 19.4407 61.3423 19.2635 60.6968 19.2635C59.9248 19.2635 59.3299 19.504 58.9123 19.9849C58.6338 20.2887 58.4313 20.7 58.3047 21.2189C58.1908 21.7379 58.1339 22.4403 58.1339 23.3262V28.2812H56.0456ZM70.3439 28.2812C69.5212 28.2812 68.901 28.0914 68.4834 27.7117C68.0657 27.332 67.8569 26.6929 67.8569 25.7943V19.4534H66.2242V17.7068H67.8569V13.7959H69.9452V17.7068H72.1474V19.4534H69.9452V25.2437C69.9452 25.6867 70.0085 26.0094 70.135 26.2119C70.2616 26.4144 70.5527 26.5157 71.0083 26.5157H72.1284V28.2812H70.3439ZM74.0852 28.2812V13.7959H76.1735V19.1876C76.6291 18.5674 77.0911 18.1308 77.5594 17.8776C78.0403 17.6245 78.5782 17.4979 79.1731 17.4979C80.7298 17.4979 81.7993 18.0675 82.3815 19.2066C82.5967 19.6242 82.7296 20.0545 82.7802 20.4975C82.8308 20.9278 82.8561 21.4468 82.8561 22.0543V28.2812H80.7678V22.0353C80.7678 21.4784 80.7235 21.0228 80.6349 20.6684C80.5463 20.3013 80.4008 20.0102 80.1983 19.7951C79.8819 19.4407 79.3883 19.2635 78.7175 19.2635C77.9581 19.2635 77.3695 19.504 76.9519 19.9849C76.6734 20.2887 76.4709 20.7 76.3444 21.2189C76.2305 21.7379 76.1735 22.4403 76.1735 23.3262V28.2812H74.0852ZM87.7318 28.2812C86.9091 28.2812 86.2889 28.0914 85.8713 27.7117C85.4536 27.332 85.2448 26.6929 85.2448 25.7943V13.7959H87.3331V25.2817C87.3331 25.7246 87.4027 26.0411 87.5419 26.2309C87.6812 26.4207 87.9659 26.5157 88.3962 26.5157H88.9848V28.2812H87.7318ZM90.8465 32.1921V30.3696H91.9286C92.3463 30.3696 92.65 30.3126 92.8399 30.1987C93.0424 30.0848 93.2259 29.8127 93.3904 29.3824L93.8081 28.2243L89.8023 17.7068H92.0805L94.9092 25.6993L97.5101 17.7068H99.7693L95.3648 29.9519C95.0611 30.7999 94.7004 31.3821 94.2827 31.6985C93.865 32.0276 93.2765 32.1921 92.5171 32.1921H90.8465Z" fill="white"/>
</svg>
