<svg width="79" height="22" viewBox="0 0 79 22" fill="none" xmlns="http://www.w3.org/2000/svg">
<path fill-rule="evenodd" clip-rule="evenodd" d="M46.8603 0.749001H52.9317L52.9325 0.748217C54.9639 0.748217 56.4943 1.28522 57.3577 2.29974C58.1429 3.22267 58.4035 4.54091 58.1319 6.21768C57.5291 10.0542 55.2214 11.9885 51.2213 11.9885H49.3003C48.8854 11.9885 48.5316 12.2915 48.4674 12.7009L47.7707 17.1159C47.7253 17.4024 47.4779 17.6138 47.1875 17.6138H44.0719C43.9241 17.6135 43.7838 17.5486 43.6878 17.4362C43.5918 17.3238 43.5496 17.1751 43.5725 17.029L46.0258 1.46135C46.0912 1.05115 46.4449 0.749207 46.8603 0.749001ZM50.0276 8.61471C51.637 8.61471 53.3013 8.61471 53.6332 6.43538C53.7537 5.67058 53.6575 5.11635 53.3389 4.74295C52.805 4.11906 51.7701 4.11906 50.6742 4.11906H50.2538C50.0049 4.11906 49.7935 4.29988 49.7544 4.54569L49.1117 8.61471H50.0276Z" fill="#009CDE"/>
<path fill-rule="evenodd" clip-rule="evenodd" d="M24.8653 6.36475H27.7726L27.7719 6.36553C27.92 6.36536 28.0607 6.43001 28.1571 6.54248C28.2534 6.65495 28.2957 6.80397 28.2728 6.95029L26.701 16.9021C26.636 17.3131 26.2822 17.6145 25.8673 17.6145H23.2496C23.1015 17.6147 22.9608 17.55 22.8646 17.4375C22.7683 17.325 22.7262 17.1759 22.7494 17.0297L22.8793 16.2218C22.8793 16.2218 21.4436 17.8845 18.8541 17.8845C17.3457 17.8845 16.0799 17.4501 15.1929 16.4066C14.227 15.2707 13.8324 13.6433 14.1103 11.9391C14.6442 8.52608 17.3879 6.09155 20.5998 6.09155C22.001 6.09155 23.4046 6.39763 24.034 7.31116L24.2375 7.6055L24.3643 6.79295C24.4029 6.54622 24.6156 6.36445 24.8653 6.36475ZM3.55573 0.748936H9.62717L9.62795 0.748154C11.6593 0.748154 13.1897 1.28516 14.0532 2.29967C14.8383 3.2226 15.099 4.54085 14.8273 6.21762C14.2246 10.0541 11.9169 11.9892 7.91674 11.9892H5.99573C5.58084 11.9892 5.22702 12.2914 5.16283 12.7016L4.49979 16.9014C4.43482 17.3115 4.08177 17.6137 3.66688 17.6137H0.767371C0.61945 17.6137 0.478951 17.5489 0.382884 17.4364C0.286817 17.324 0.244814 17.1751 0.267941 17.0289L2.72204 1.46129C2.78701 1.0511 3.14084 0.748936 3.55573 0.748936ZM6.72276 8.61458C8.333 8.61458 9.99724 8.61458 10.3292 6.43524C10.4497 5.67044 10.3534 5.11622 10.034 4.74282C9.50016 4.11892 8.46529 4.11892 7.36936 4.11892H6.94899C6.70006 4.11892 6.4887 4.29975 6.44956 4.54555L5.80688 8.61458H6.72276ZM23.7233 12.0244C23.4415 13.6855 22.124 14.801 20.4418 14.801C19.5987 14.801 18.9231 14.5294 18.4895 14.0158C18.0589 13.507 17.8977 12.7814 18.0339 11.9743C18.2953 10.3273 19.6355 9.17653 21.2919 9.17653C22.1178 9.17653 22.7871 9.45051 23.2301 9.96873C23.6756 10.4909 23.8509 11.2204 23.7233 12.0244Z" fill="#003087"/>
<path fill-rule="evenodd" clip-rule="evenodd" d="M68.174 6.36475H71.0813L71.0805 6.36553C71.2286 6.36536 71.3694 6.43001 71.4657 6.54248C71.5621 6.65495 71.6044 6.80397 71.5815 6.95029L70.0096 16.9021C69.9439 17.3131 69.5901 17.6145 69.1752 17.6145H66.5582C66.4103 17.6147 66.2697 17.55 66.1736 17.4374C66.0776 17.3248 66.0359 17.1758 66.0596 17.0297L66.1895 16.2218C66.1895 16.2218 64.7539 17.8845 62.1636 17.8845C60.6551 17.8845 59.3893 17.4501 58.5024 16.4066C57.5364 15.2707 57.1411 13.6433 57.419 11.9391C57.9536 8.52608 60.6974 6.09155 63.9085 6.09155C65.3097 6.09155 66.7132 6.39763 67.3426 7.31116L67.5461 7.6055L67.673 6.79295C67.7116 6.54622 67.9242 6.36445 68.174 6.36475ZM63.748 14.801C65.4302 14.801 66.7477 13.6855 67.0295 12.0244C67.1571 11.2204 66.9818 10.4909 66.5363 9.96873C66.0933 9.45051 65.424 9.17653 64.5981 9.17653C62.9409 9.17653 61.6015 10.3273 61.3401 11.9743C61.2039 12.7814 61.3651 13.507 61.7957 14.0158C62.2294 14.5294 62.9049 14.801 63.748 14.801Z" fill="#009CDE"/>
<path d="M43.2599 6.36553H40.3369C40.0574 6.36553 39.7968 6.50408 39.6402 6.73579L35.6087 12.6726L33.8999 6.9675C33.7928 6.6102 33.4642 6.36528 33.0912 6.36474H30.2191C30.0557 6.36482 29.9024 6.44373 29.8074 6.57665C29.7123 6.70958 29.6873 6.88018 29.74 7.03482L32.9574 16.4802L29.9311 20.7504C29.822 20.9049 29.8082 21.1073 29.8951 21.2752C29.982 21.4431 30.1553 21.5486 30.3444 21.5488H33.2642C33.5398 21.5488 33.7989 21.4134 33.957 21.1864L43.6748 7.16007C43.7823 7.00554 43.7951 6.80405 43.708 6.63715C43.6208 6.47026 43.4482 6.3656 43.2599 6.36553Z" fill="#003087"/>
<path d="M74.5064 1.17715L72.0139 17.0297C71.991 17.1759 72.0332 17.3248 72.1294 17.4373C72.2256 17.5497 72.3661 17.6145 72.5141 17.6145H75.0199C75.4348 17.6145 75.7886 17.3123 75.8536 16.9021L78.3108 1.33371C78.3339 1.18747 78.2918 1.03843 78.1956 0.925924C78.0994 0.813416 77.9586 0.748735 77.8106 0.748951H75.0066C74.7571 0.748316 74.5446 0.929899 74.5064 1.17636" fill="#009CDE"/>
</svg>
