<svg width="108" height="105" viewBox="0 0 108 105" fill="none" xmlns="http://www.w3.org/2000/svg">
<rect width="101.445" height="104.298" transform="translate(6)" fill="white"/>
<g clip-path="url(#clip0_65_4464)">
<path d="M72.8758 79.1094L72.6093 79.3041C69.5006 81.551 66.7018 82.7882 64.25 82.9947C64.2143 82.9983 64.179 82.9996 64.1433 83.0033L64.1292 82.8361L64.1177 82.6752C66.7874 82.4829 69.6791 80.9923 72.3911 79.0332C72.4791 78.9709 72.5685 78.9076 72.6559 78.8417C73.7966 78.0021 74.9022 77.0862 75.944 76.1516C76.0253 76.08 76.1069 76.0061 76.1885 75.9322C77.5572 74.6915 78.8097 73.4295 79.8724 72.2981C79.9479 72.2185 80.0224 72.1376 80.0956 72.0576C81.8864 70.1351 83.0977 68.6238 83.3638 68.2866C83.397 68.246 83.4146 68.223 83.4189 68.2178L83.5462 68.3185L83.5485 68.3189L83.6768 68.421C83.6725 68.4262 83.6137 68.5038 83.5009 68.6433C83.0819 69.1678 81.9323 70.5748 80.3255 72.3057C80.2527 72.3834 80.1782 72.4643 80.1027 72.544C79.2413 73.463 78.2595 74.4639 77.1944 75.4665C76.9273 75.7188 76.6613 75.9641 76.3963 76.2026C76.3156 76.2779 76.234 76.3518 76.1527 76.4234C75.0267 77.4338 73.9344 78.3292 72.8758 79.1094Z" fill="white"/>
<path d="M80.3259 72.3055C80.2493 72.2248 80.1718 72.1427 80.0959 72.0574C79.8896 71.826 79.695 71.5841 79.5131 71.3328C78.7366 70.2626 78.2074 69.0321 77.9644 67.732C77.8539 67.727 77.7435 67.722 77.6307 67.7167C77.8758 69.0921 78.4294 70.3948 79.2493 71.5255C79.4435 71.7938 79.6516 72.0517 79.8728 72.298C79.9476 72.382 80.0252 72.464 80.103 72.5438C80.7416 73.2053 81.4757 73.766 82.2801 74.2067C82.3111 74.0963 82.3418 73.9882 82.3721 73.8824C81.6173 73.4606 80.9278 72.9293 80.3259 72.3055Z" fill="white"/>
<path d="M76.3965 76.2029C76.3246 76.1147 76.2554 76.0245 76.1888 75.9325C76.1672 75.9054 76.1459 75.876 76.1256 75.848C75.2858 74.6873 74.7358 73.341 74.5227 71.924C74.3095 70.507 74.4394 69.0613 74.9014 67.7101C74.785 67.7136 74.6685 67.7171 74.5518 67.7229C74.0989 69.1103 73.9816 70.5884 74.2094 72.0349C74.4372 73.4814 75.0037 74.8546 75.8618 76.0408C75.8889 76.0781 75.9159 76.1155 75.9443 76.1519C76.0132 76.2443 76.0824 76.3345 76.153 76.4237C77.256 77.7957 78.7261 78.8213 80.3875 79.3778C80.4344 79.2783 80.4813 79.1787 80.5273 79.0778C78.9044 78.5429 77.4689 77.5438 76.3965 76.2029Z" fill="white"/>
<path d="M72.876 79.1093C72.8005 79.0217 72.7276 78.9322 72.6561 78.8416C72.5797 78.7445 72.5047 78.6463 72.4323 78.5462C71.3055 76.9852 70.7089 75.1018 70.7317 73.1781C70.7546 71.2544 71.3957 69.3939 72.559 67.8751C72.4087 67.8931 72.2597 67.9101 72.1114 67.9308C70.9916 69.5026 70.3944 71.3929 70.4047 73.3331C70.4149 75.2733 71.0321 77.1649 72.1685 78.739C72.2409 78.8391 72.3146 78.9382 72.3913 79.0331C72.4625 79.1259 72.5354 79.2154 72.6096 79.304C74.1206 81.0841 76.2433 82.2237 78.5478 82.4922C78.6252 82.3928 78.6983 82.2904 78.7727 82.1871C76.4893 81.9698 74.3742 80.8658 72.876 79.1093Z" fill="white"/>
<path d="M69.3282 87.4928L43.7576 87.0866C42.2246 87.0605 40.7606 86.4232 39.6868 85.3145C38.613 84.2058 38.0171 82.7162 38.0299 81.1726L38.6402 16.0014C38.6564 14.4578 39.28 12.9876 40.3742 11.9134C41.4684 10.8391 42.9439 10.2485 44.4769 10.2711L70.0476 10.6773C71.5806 10.7034 73.0446 11.3407 74.1184 12.4494C75.1921 13.5581 75.788 15.0477 75.7753 16.5913L75.165 81.7625C75.1488 83.3061 74.5252 84.7763 73.431 85.8505C72.3367 86.9248 70.8613 87.5154 69.3282 87.4928Z" fill="#3F3D56"/>
<path d="M69.6154 12.693L66.7691 12.6478C66.5151 12.644 66.2706 12.7419 66.0893 12.9199C65.9079 13.0979 65.8046 13.3415 65.802 13.5973C65.7966 14.1202 65.5854 14.6183 65.2146 14.9823C64.8439 15.3462 64.344 15.5463 63.8247 15.5385L49.904 15.3174C49.3847 15.3086 48.8887 15.0928 48.5249 14.7171C48.1611 14.3415 47.9593 13.8369 47.9637 13.3139C47.9658 13.0581 47.8671 12.8113 47.6891 12.6276C47.5112 12.4438 47.2686 12.3383 47.0146 12.334L44.5049 12.2941C43.3422 12.2771 42.2232 12.7251 41.3933 13.5399C40.5635 14.3546 40.0904 15.4696 40.078 16.6402L39.472 81.3482C39.4625 82.5189 39.9145 83.6486 40.7289 84.4894C41.5433 85.3303 42.6535 85.8137 43.8162 85.8337L68.9267 86.2326C70.0894 86.2495 71.2084 85.8015 72.0383 84.9868C72.8681 84.1721 73.3412 83.0571 73.3536 81.8865L73.9596 17.1784C73.9691 16.0077 73.5171 14.8781 72.7027 14.0372C71.8883 13.1964 70.7781 12.713 69.6154 12.693Z" fill="white"/>
<path d="M60.5152 13.6325L52.6618 13.5077C52.5874 13.5065 52.5164 13.4757 52.4643 13.4219C52.4122 13.3681 52.3833 13.2958 52.384 13.2209C52.3847 13.146 52.4149 13.0746 52.468 13.0225C52.5211 12.9703 52.5927 12.9417 52.6671 12.9429L60.5205 13.0677C60.5573 13.0682 60.5937 13.0761 60.6276 13.0909C60.6615 13.1056 60.6922 13.1269 60.718 13.1535C60.7438 13.1802 60.7642 13.2116 60.778 13.2461C60.7917 13.2806 60.7986 13.3174 60.7983 13.3545C60.798 13.3916 60.7904 13.4282 60.7759 13.4623C60.7615 13.4963 60.7406 13.5271 60.7143 13.5529C60.688 13.5787 60.6569 13.599 60.6227 13.6127C60.5886 13.6263 60.552 13.6331 60.5152 13.6325Z" fill="white"/>
<path d="M61.8338 13.5805C61.9492 13.5358 62.0061 13.405 61.9609 13.2886C61.9157 13.1721 61.7855 13.1139 61.6701 13.1587C61.5547 13.2035 61.4978 13.3342 61.543 13.4507C61.5882 13.5671 61.7184 13.6253 61.8338 13.5805Z" fill="white"/>
<path d="M75.8141 36.4717C75.6802 36.4695 75.5524 36.4138 75.4587 36.317C75.3649 36.2202 75.3129 36.0901 75.314 35.9554L75.4071 26.0145C75.4085 25.8798 75.4629 25.7515 75.5585 25.6578C75.6541 25.5641 75.7829 25.5126 75.9167 25.5148C76.0505 25.5169 76.1783 25.5724 76.2721 25.6691C76.3659 25.7658 76.4179 25.8959 76.4168 26.0306L76.3237 35.9714C76.3223 36.1062 76.2678 36.2345 76.1723 36.3283C76.0768 36.4221 75.9479 36.4737 75.8141 36.4717Z" fill="#3F3D56"/>
<path d="M38.5231 28.5358C38.3893 28.5335 38.2615 28.4779 38.1677 28.3811C38.074 28.2843 38.0219 28.1542 38.023 28.0194L38.0442 25.7602C38.0447 25.6933 38.0583 25.6273 38.0842 25.566C38.1101 25.5046 38.1478 25.449 38.1951 25.4025C38.2425 25.3559 38.2985 25.3193 38.3601 25.2947C38.4216 25.27 38.4875 25.2579 38.5538 25.259C38.6202 25.26 38.6858 25.2742 38.7469 25.3008C38.8079 25.3274 38.8633 25.3658 38.9097 25.4138C38.9562 25.4619 38.9928 25.5186 39.0176 25.5808C39.0423 25.643 39.0547 25.7094 39.0539 25.7762L39.0328 28.0355C39.0313 28.1702 38.9769 28.2986 38.8814 28.3924C38.7858 28.4862 38.657 28.5378 38.5231 28.5358Z" fill="#3F3D56"/>
<path d="M38.4837 32.7156C38.3499 32.7133 38.2221 32.6577 38.1283 32.5608C38.0346 32.464 37.9825 32.334 37.9836 32.1992L38.0048 29.9399C38.0053 29.8731 38.0189 29.8071 38.0448 29.7457C38.0707 29.6843 38.1084 29.6288 38.1557 29.5822C38.203 29.5356 38.2591 29.499 38.3206 29.4744C38.3822 29.4497 38.4481 29.4376 38.5144 29.4386C38.5808 29.4397 38.6464 29.4539 38.7075 29.4805C38.7686 29.5071 38.8239 29.5455 38.8704 29.5935C38.9168 29.6416 38.9535 29.6983 38.9782 29.7605C39.0029 29.8227 39.0153 29.8891 39.0145 29.956L38.9934 32.2153C38.992 32.35 38.9375 32.4784 38.842 32.5722C38.7464 32.666 38.6176 32.7175 38.4837 32.7156Z" fill="#3F3D56"/>
<path d="M57.3264 29.8712C57.762 29.7022 57.9768 29.2088 57.8062 28.7692C57.6357 28.3295 57.1443 28.1101 56.7088 28.279C56.2732 28.448 56.0584 28.9414 56.229 29.381C56.3995 29.8207 56.8909 30.0401 57.3264 29.8712Z" fill="white"/>
<path d="M56.9472 70.3897C57.3827 70.2208 57.5975 69.7274 57.427 69.2877C57.2564 68.8481 56.7651 68.6286 56.3295 68.7976C55.894 68.9665 55.6792 69.4599 55.8497 69.8996C56.0203 70.3392 56.5116 70.5587 56.9472 70.3897Z" fill="white"/>
<path d="M60.8997 49.6286L60.899 49.6286L52.5138 49.4954C52.3967 49.4933 52.283 49.4549 52.188 49.3855C52.0929 49.3161 52.0213 49.2191 51.9827 49.1076L50.7909 45.6298C50.7612 45.5432 50.7525 45.4507 50.7657 45.3603C50.7788 45.2698 50.8133 45.184 50.8663 45.11C50.9193 45.036 50.9893 44.9761 51.0703 44.9351C51.1513 44.8942 51.241 44.8735 51.3319 44.8748L62.4217 45.032C62.5716 45.0342 62.7149 45.096 62.8204 45.2039C62.9259 45.3118 62.985 45.4571 62.9848 45.6081L63.0286 45.6276L62.8452 46.0465L62.8451 46.0464L61.4243 49.2905C61.3798 49.3927 61.3063 49.4792 61.213 49.5393C61.1197 49.5994 61.0107 49.6305 60.8997 49.6286Z" fill="white"/>
<path d="M55.5571 51.9875L51.8277 51.9283C51.7359 51.9268 51.6481 51.8886 51.5838 51.8221C51.5195 51.7557 51.4838 51.6664 51.4847 51.5739C51.4856 51.4814 51.5229 51.3933 51.5884 51.3289C51.654 51.2645 51.7424 51.2292 51.8343 51.2306L55.5636 51.2898C55.6555 51.2913 55.7432 51.3295 55.8075 51.3959C55.8719 51.4624 55.9075 51.5517 55.9067 51.6442C55.9058 51.7367 55.8685 51.8248 55.8029 51.8892C55.7374 51.9536 55.649 51.9889 55.5571 51.9875Z" fill="white"/>
<path d="M68 21.9995L45 21.9995C43.8954 21.9995 43 22.8949 43 23.9995L43 33.9995C43 35.1041 43.8954 35.9995 45 35.9995L68 35.9995C69.1046 35.9995 70 35.1041 70 33.9995L70 23.9995C70 22.8949 69.1046 21.9995 68 21.9995Z" fill="#001F3F" stroke="black" stroke-width="0.5" stroke-linecap="round"/>
<path d="M46.5005 25.4995L64.0005 25.4995" stroke="white" stroke-width="0.5" stroke-linecap="round"/>
<path d="M46.5005 28.4995L56.0005 28.4995" stroke="white" stroke-width="0.5" stroke-linecap="round"/>
<path d="M46.5005 31.4995L50.5005 31.4995" stroke="white" stroke-width="0.5" stroke-linecap="round"/>
<circle cx="66.5" cy="32.5" r="1.5" fill="#00BFFF"/>
</g>
<defs>
<clipPath id="clip0_65_4464">
<rect width="77" height="82" fill="white" transform="translate(-2 27.8486) rotate(-21.203)"/>
</clipPath>
</defs>
</svg>
