<svg width="130" height="130" viewBox="0 0 130 130" fill="none" xmlns="http://www.w3.org/2000/svg">
<rect x="0.5" y="0.5" width="129" height="129" rx="64.5" stroke="#C5C9FB"/>
<rect x="6.5" y="6.5" width="117" height="117" rx="58.5" fill="white"/>
<rect x="6.5" y="6.5" width="117" height="117" rx="58.5" stroke="#001F3F" stroke-width="3"/>
<path d="M78.2499 59.3216V53.6431C78.2499 50.1289 76.8539 46.7588 74.369 44.2739C71.8842 41.789 68.514 40.3931 64.9999 40.3931C61.4857 40.3931 58.1156 41.789 55.6307 44.2739C53.1458 46.7588 51.7499 50.1289 51.7499 53.6431V59.3216M80.1427 59.3216H49.857C48.853 59.3216 47.8901 59.7205 47.1801 60.4304C46.4701 61.1404 46.0713 62.1033 46.0713 63.1074V85.8216C46.0713 86.8257 46.4701 87.7886 47.1801 88.4985C47.8901 89.2085 48.853 89.6074 49.857 89.6074H80.1427C81.1468 89.6074 82.1097 89.2085 82.8196 88.4985C83.5296 87.7886 83.9284 86.8257 83.9284 85.8216V63.1074C83.9284 62.1033 83.5296 61.1404 82.8196 60.4304C82.1097 59.7205 81.1468 59.3216 80.1427 59.3216Z" stroke="#001F3F" stroke-width="2" stroke-linecap="round" stroke-linejoin="round"/>
<path d="M64.9998 76.3575C65.5018 76.3575 65.9833 76.1581 66.3382 75.8031C66.6932 75.4481 66.8926 74.9667 66.8926 74.4646C66.8926 73.9626 66.6932 73.4812 66.3382 73.1262C65.9833 72.7712 65.5018 72.5718 64.9998 72.5718C64.4978 72.5718 64.0163 72.7712 63.6613 73.1262C63.3064 73.4812 63.1069 73.9626 63.1069 74.4646C63.1069 74.9667 63.3064 75.4481 63.6613 75.8031C64.0163 76.1581 64.4978 76.3575 64.9998 76.3575Z" stroke="#001F3F" stroke-width="2" stroke-linecap="round" stroke-linejoin="round"/>
</svg>
