<svg width="139" height="44" viewBox="0 0 139 44" fill="none" xmlns="http://www.w3.org/2000/svg">
<rect x="0.785156" y="0.635742" width="137.835" height="43.2385" rx="5.93272" fill="#23A9F9"/>
<path d="M40.3214 21.5027C40.3214 22.6798 40.1252 23.7809 39.7328 24.8061C39.3531 25.8312 38.7899 26.6792 38.0432 27.35L39.9796 30.4066H37.4926L36.2207 28.4891C35.4106 28.8182 34.4804 28.9827 33.4299 28.9827C31.9238 28.9827 30.6518 28.6473 29.614 27.9765C28.5888 27.2931 27.8231 26.3881 27.3168 25.2617C26.8106 24.1226 26.5574 22.8696 26.5574 21.5027C26.5574 20.1232 26.8106 18.8702 27.3168 17.7438C27.8231 16.6173 28.5888 15.7187 29.614 15.0479C30.6518 14.3771 31.9238 14.0417 33.4299 14.0417C34.936 14.0417 36.2017 14.3771 37.2268 15.0479C38.2647 15.7187 39.0367 16.6173 39.543 17.7438C40.0619 18.8702 40.3214 20.1232 40.3214 21.5027ZM28.8546 21.5027C28.8546 22.5785 29.0318 23.5278 29.3862 24.3504C29.7405 25.1731 30.2595 25.8186 30.9429 26.2869C31.639 26.7425 32.468 26.9703 33.4299 26.9703C34.3918 26.9703 35.2145 26.7425 35.8979 26.2869C36.594 25.8186 37.1193 25.1731 37.4736 24.3504C37.8407 23.5278 38.0242 22.5785 38.0242 21.5027C38.0242 20.4269 37.8407 19.484 37.4736 18.674C37.1193 17.8513 36.594 17.2122 35.8979 16.7565C35.2145 16.2883 34.3918 16.0541 33.4299 16.0541C32.468 16.0541 31.639 16.2883 30.9429 16.7565C30.2595 17.2122 29.7405 17.8513 29.3862 18.674C29.0318 19.484 28.8546 20.4269 28.8546 21.5027ZM46.1 28.9637C44.5559 28.9637 43.4864 28.3878 42.8916 27.2361C42.727 26.907 42.6068 26.5273 42.5308 26.097C42.4676 25.6667 42.4359 25.1035 42.4359 24.4074V18.1804H44.5242V24.4264C44.5242 25.5022 44.7078 26.2489 45.0748 26.6666C45.4039 27.0209 45.8975 27.1981 46.5556 27.1981C47.315 27.1981 47.9035 26.9577 48.3212 26.4767C48.5996 26.173 48.8021 25.7616 48.9287 25.2427C49.0553 24.7238 49.1185 24.0214 49.1185 23.1354V18.1804H51.2069V28.7549H49.1185V27.2551C48.6629 27.8626 48.1946 28.2992 47.7137 28.565C47.2454 28.8308 46.7075 28.9637 46.1 28.9637ZM56.7275 28.9637C55.6897 28.9637 54.8544 28.6916 54.2216 28.1474C53.5887 27.5905 53.2723 26.8374 53.2723 25.8882C53.2723 24.9136 53.652 24.1479 54.4114 23.591C54.981 23.1734 55.7973 22.8633 56.8604 22.6608L60.3157 21.9963C60.303 21.2623 60.1068 20.699 59.7271 20.3067C59.3095 19.889 58.7526 19.6802 58.0565 19.6802C57.4869 19.6802 56.987 19.8447 56.5567 20.1738C56.139 20.4902 55.8732 20.9205 55.7593 21.4648H53.69C53.8672 20.351 54.3671 19.4903 55.1898 18.8828C56.0125 18.2753 56.9744 17.9716 58.0755 17.9716C58.6956 17.9716 59.2778 18.0665 59.8221 18.2563C60.3789 18.4335 60.8472 18.6993 61.2269 19.0537C61.7332 19.522 62.0496 20.0725 62.1762 20.7054C62.3154 21.3382 62.385 22.0659 62.385 22.8886V28.7549H60.2967V27.1981C60.0056 27.6917 59.6385 28.0778 59.1956 28.3562C58.5627 28.7612 57.7401 28.9637 56.7275 28.9637ZM57.1452 27.2361C57.7021 27.2361 58.2084 27.1222 58.664 26.8944C59.2842 26.578 59.7145 26.1603 59.955 25.6414C60.2081 25.1098 60.3346 24.4264 60.3346 23.591L57.354 24.1796C56.62 24.3314 56.0884 24.5593 55.7593 24.863C55.4935 25.1288 55.3607 25.4515 55.3607 25.8312C55.3607 26.2742 55.5189 26.6223 55.8353 26.8754C56.1643 27.1159 56.601 27.2361 57.1452 27.2361ZM64.7958 28.7549V18.1804H66.8841V19.5283C67.3144 18.9714 67.789 18.5728 68.3079 18.3323C68.8268 18.0918 69.428 17.9716 70.1115 17.9716H70.3203V20.0219H69.7508C68.9028 20.0219 68.2446 20.2561 67.7764 20.7244C67.1815 21.2939 66.8841 22.2305 66.8841 23.5341V28.7549H64.7958ZM75.2934 28.7549C74.4707 28.7549 73.8506 28.565 73.4329 28.1853C73.0152 27.8056 72.8064 27.1665 72.8064 26.2679V19.927H71.1737V18.1804H72.8064V14.2695H74.8947V18.1804H77.097V19.927H74.8947V25.7173C74.8947 26.1603 74.958 26.483 75.0846 26.6855C75.2111 26.8881 75.5022 26.9893 75.9579 26.9893H77.078V28.7549H75.2934ZM83.5968 28.9637C82.5717 28.9637 81.6604 28.7296 80.863 28.2613C80.0657 27.7803 79.4455 27.1285 79.0025 26.3059C78.5596 25.4705 78.3381 24.5403 78.3381 23.5151C78.3381 22.5532 78.5343 21.6483 78.9266 20.8003C79.3316 19.9523 79.9265 19.2689 80.7112 18.7499C81.4959 18.231 82.4388 17.9716 83.5399 17.9716C84.4765 17.9716 85.3371 18.1741 86.1218 18.5791C86.9192 18.9841 87.5583 19.5916 88.0393 20.4016C88.5202 21.199 88.7607 22.1735 88.7607 23.3253V23.8948H80.4644C80.5023 24.3125 80.6036 24.6922 80.7681 25.0339C81.0213 25.6794 81.4009 26.1919 81.9072 26.5716C82.4135 26.9513 82.9893 27.1412 83.6348 27.1412C84.3056 27.1412 84.8815 26.9703 85.3624 26.6286C85.8434 26.2742 86.1914 25.8249 86.4066 25.2807H88.5898C88.2354 26.3691 87.6343 27.2551 86.7863 27.9385C85.951 28.622 84.8878 28.9637 83.5968 28.9637ZM86.5964 22.2052C86.5458 21.8128 86.4382 21.4774 86.2737 21.199C86.0206 20.718 85.6535 20.351 85.1726 20.0979C84.7043 19.8321 84.1854 19.6992 83.6158 19.6992C83.021 19.6992 82.4957 19.8321 82.0401 20.0979C81.5845 20.351 81.2238 20.718 80.958 21.199C80.8061 21.4521 80.6859 21.7875 80.5973 22.2052H86.5964ZM90.8256 28.7549V18.1804H92.9139V19.5283C93.3442 18.9714 93.8188 18.5728 94.3377 18.3323C94.8567 18.0918 95.4578 17.9716 96.1413 17.9716H96.3501V20.0219H95.7806C94.9326 20.0219 94.2745 20.2561 93.8062 20.7244C93.2113 21.2939 92.9139 22.2305 92.9139 23.5341V28.7549H90.8256ZM100.431 28.7549C99.6083 28.7549 98.9881 28.565 98.5704 28.1853C98.1528 27.8056 97.9439 27.1665 97.9439 26.2679V14.2695H100.032V25.7553C100.032 26.1983 100.102 26.5147 100.241 26.7045C100.38 26.8944 100.665 26.9893 101.095 26.9893H101.684V28.7549H100.431ZM103.546 32.6657V30.8432H104.628C105.045 30.8432 105.349 30.7862 105.539 30.6723C105.742 30.5584 105.925 30.2863 106.09 29.856L106.507 28.6979L102.501 18.1804H104.78L107.608 26.173L110.209 18.1804H112.468L108.064 30.4255C107.76 31.2735 107.4 31.8557 106.982 32.1721C106.564 32.5012 105.976 32.6657 105.216 32.6657H103.546Z" fill="white"/>
</svg>
