<svg width="25" height="25" viewBox="0 0 25 25" fill="none" xmlns="http://www.w3.org/2000/svg">
<path d="M12.7734 7.49951C12.9392 7.49951 13.0982 7.56536 13.2154 7.68257C13.3326 7.79978 13.3984 7.95875 13.3984 8.12451V9.99951C13.3984 10.1653 13.3326 10.3242 13.2154 10.4415C13.0982 10.5587 12.9392 10.6245 12.7734 10.6245C12.6077 10.6245 12.4487 10.5587 12.3315 10.4415C12.2143 10.3242 12.1484 10.1653 12.1484 9.99951V8.12451C12.1484 7.95875 12.2143 7.79978 12.3315 7.68257C12.4487 7.56536 12.6077 7.49951 12.7734 7.49951ZM7.43844 9.66451C7.55564 9.54734 7.71458 9.48152 7.88031 9.48152C8.04604 9.48152 8.20498 9.54734 8.32219 9.66451L9.46594 10.807C9.52405 10.8651 9.57014 10.9341 9.60159 11.01C9.63304 11.086 9.64923 11.1673 9.64923 11.2495C9.64923 11.3317 9.63304 11.4131 9.60159 11.489C9.57014 11.5649 9.52405 11.6339 9.46594 11.692C9.40783 11.7501 9.33884 11.7962 9.26292 11.8277C9.18699 11.8591 9.10562 11.8753 9.02344 11.8753C8.94126 11.8753 8.85988 11.8591 8.78396 11.8277C8.70803 11.7962 8.63905 11.7501 8.58094 11.692L7.43844 10.5483C7.32127 10.4311 7.25545 10.2721 7.25545 10.1064C7.25545 9.94066 7.32127 9.78172 7.43844 9.66451ZM5.27344 14.9995C5.27344 14.8337 5.33929 14.6748 5.4565 14.5576C5.57371 14.4404 5.73268 14.3745 5.89844 14.3745H7.88094C8.0467 14.3745 8.20567 14.4404 8.32288 14.5576C8.44009 14.6748 8.50594 14.8337 8.50594 14.9995C8.50594 15.1653 8.44009 15.3242 8.32288 15.4415C8.20567 15.5587 8.0467 15.6245 7.88094 15.6245H5.89844C5.73268 15.6245 5.57371 15.5587 5.4565 15.4415C5.33929 15.3242 5.27344 15.1653 5.27344 14.9995ZM17.1484 14.9995C17.1484 14.8337 17.2143 14.6748 17.3315 14.5576C17.4487 14.4404 17.6077 14.3745 17.7734 14.3745H19.6484C19.8142 14.3745 19.9732 14.4404 20.0904 14.5576C20.2076 14.6748 20.2734 14.8337 20.2734 14.9995C20.2734 15.1653 20.2076 15.3242 20.0904 15.4415C19.9732 15.5587 19.8142 15.6245 19.6484 15.6245H17.7734C17.6077 15.6245 17.4487 15.5587 17.3315 15.4415C17.2143 15.3242 17.1484 15.1653 17.1484 14.9995ZM18.0909 9.69201C18.0042 9.60613 17.8884 9.55592 17.7664 9.55129C17.6445 9.54666 17.5252 9.58795 17.4322 9.66701L12.2072 14.137C12.0854 14.2396 11.9866 14.3666 11.917 14.5097C11.8474 14.6529 11.8087 14.8091 11.8033 14.9682C11.7979 15.1273 11.8259 15.2858 11.8856 15.4333C11.9453 15.5809 12.0352 15.7143 12.1497 15.8249C12.2642 15.9356 12.4006 16.0209 12.5502 16.0755C12.6997 16.13 12.859 16.1526 13.0179 16.1417C13.1767 16.1309 13.3314 16.0868 13.4721 16.0123C13.6129 15.9379 13.7364 15.8347 13.8347 15.7095L18.1272 10.3383C18.2016 10.2447 18.239 10.127 18.2323 10.0076C18.2257 9.88823 18.1753 9.77546 18.0909 9.69076V9.69201Z" fill="black"/>
<path fill-rule="evenodd" clip-rule="evenodd" d="M2.77344 14.9993C2.77475 13.5441 3.09366 12.1066 3.70791 10.7874C4.32216 9.46812 5.21694 8.29882 6.3298 7.36111C7.44265 6.4234 8.74676 5.73988 10.1511 5.35826C11.5554 4.97664 13.0261 4.90613 14.4605 5.15164C15.8949 5.39714 17.2584 5.95276 18.4559 6.77969C19.6533 7.60663 20.6559 8.68496 21.3935 9.9394C22.1312 11.1938 22.5862 12.5942 22.7267 14.0426C22.8672 15.4911 22.6899 16.9527 22.2072 18.3256C21.6547 19.8918 19.9009 20.3281 18.5422 19.8881C16.9097 19.3593 14.6172 18.7493 12.7734 18.7493C10.9309 18.7493 8.63594 19.3593 7.00469 19.8881C5.64594 20.3281 3.89219 19.8918 3.33969 18.3256C2.9639 17.2569 2.77243 16.1321 2.77344 14.9993ZM12.7734 6.24932C11.3739 6.24896 9.9947 6.58431 8.75158 7.22724C7.50846 7.87016 6.43769 8.80189 5.62915 9.94424C4.8206 11.0866 4.29787 12.4062 4.10482 13.7924C3.91178 15.1785 4.05405 16.5908 4.51969 17.9106C4.77344 18.6293 5.67344 19.0056 6.61969 18.6981C8.26969 18.1656 10.7209 17.4993 12.7734 17.4993C14.8259 17.4993 17.2784 18.1643 18.9272 18.6993C19.8734 19.0056 20.7734 18.6293 21.0272 17.9106C21.4928 16.5908 21.6351 15.1785 21.4421 13.7924C21.249 12.4062 20.7263 11.0866 19.9177 9.94424C19.1092 8.80189 18.0384 7.87016 16.7953 7.22724C15.5522 6.58431 14.173 6.24896 12.7734 6.24932Z" fill="black"/>
</svg>
