<svg width="25" height="24" viewBox="0 0 25 24" fill="none" xmlns="http://www.w3.org/2000/svg">
<path fill-rule="evenodd" clip-rule="evenodd" d="M22.5 13.25C22.6989 13.25 22.8897 13.329 23.0303 13.4697C23.171 13.6103 23.25 13.8011 23.25 14V14.056C23.25 15.894 23.25 17.35 23.097 18.489C22.939 19.661 22.607 20.61 21.859 21.359C21.11 22.107 20.161 22.439 18.989 22.597C17.849 22.75 16.394 22.75 14.556 22.75H14.5C14.3011 22.75 14.1103 22.671 13.9697 22.5303C13.829 22.3897 13.75 22.1989 13.75 22C13.75 21.8011 13.829 21.6103 13.9697 21.4697C14.1103 21.329 14.3011 21.25 14.5 21.25C16.407 21.25 17.762 21.248 18.79 21.11C19.795 20.975 20.375 20.721 20.798 20.298C21.221 19.875 21.475 19.295 21.61 18.289C21.748 17.262 21.75 15.907 21.75 14C21.75 13.8011 21.829 13.6103 21.9697 13.4697C22.1103 13.329 22.3011 13.25 22.5 13.25ZM2.5 13.25C2.69891 13.25 2.88968 13.329 3.03033 13.4697C3.17098 13.6103 3.25 13.8011 3.25 14C3.25 15.907 3.252 17.262 3.39 18.29C3.525 19.295 3.779 19.875 4.202 20.298C4.625 20.721 5.205 20.975 6.211 21.11C7.239 21.248 8.593 21.25 10.5 21.25C10.6989 21.25 10.8897 21.329 11.0303 21.4697C11.171 21.6103 11.25 21.8011 11.25 22C11.25 22.1989 11.171 22.3897 11.0303 22.5303C10.8897 22.671 10.6989 22.75 10.5 22.75H10.444C8.606 22.75 7.15 22.75 6.011 22.597C4.839 22.439 3.89 22.107 3.141 21.359C2.393 20.61 2.061 19.661 1.903 18.489C1.75 17.349 1.75 15.894 1.75 14.056V14C1.75 13.8011 1.82902 13.6103 1.96967 13.4697C2.11032 13.329 2.30109 13.25 2.5 13.25ZM10.444 1.25H10.5C10.6989 1.25 10.8897 1.32902 11.0303 1.46967C11.171 1.61032 11.25 1.80109 11.25 2C11.25 2.19891 11.171 2.38968 11.0303 2.53033C10.8897 2.67098 10.6989 2.75 10.5 2.75C8.593 2.75 7.239 2.752 6.21 2.89C5.205 3.025 4.625 3.279 4.202 3.702C3.779 4.125 3.525 4.705 3.39 5.711C3.252 6.739 3.25 8.093 3.25 10C3.25 10.1989 3.17098 10.3897 3.03033 10.5303C2.88968 10.671 2.69891 10.75 2.5 10.75C2.30109 10.75 2.11032 10.671 1.96967 10.5303C1.82902 10.3897 1.75 10.1989 1.75 10V9.944C1.75 8.106 1.75 6.65 1.903 5.511C2.061 4.339 2.393 3.39 3.141 2.641C3.89 1.893 4.839 1.561 6.011 1.403C7.151 1.25 8.606 1.25 10.444 1.25ZM18.79 2.89C17.762 2.752 16.407 2.75 14.5 2.75C14.3011 2.75 14.1103 2.67098 13.9697 2.53033C13.829 2.38968 13.75 2.19891 13.75 2C13.75 1.80109 13.829 1.61032 13.9697 1.46967C14.1103 1.32902 14.3011 1.25 14.5 1.25H14.556C16.394 1.25 17.85 1.25 18.989 1.403C20.161 1.561 21.11 1.893 21.859 2.641C22.607 3.39 22.939 4.339 23.097 5.511C23.25 6.651 23.25 8.106 23.25 9.944V10C23.25 10.1989 23.171 10.3897 23.0303 10.5303C22.8897 10.671 22.6989 10.75 22.5 10.75C22.3011 10.75 22.1103 10.671 21.9697 10.5303C21.829 10.3897 21.75 10.1989 21.75 10C21.75 8.093 21.748 6.739 21.61 5.71C21.475 4.705 21.221 4.125 20.798 3.702C20.375 3.279 19.795 3.025 18.789 2.89" fill="white"/>
<path fill-rule="evenodd" clip-rule="evenodd" d="M6.525 13.109C7.275 12.746 8.943 11.5 12.5 11.5C16.057 11.5 17.724 12.746 18.475 13.109L18.487 13.115C18.5793 13.1569 18.6673 13.2075 18.75 13.266C18.882 13.363 18.979 13.476 19.058 13.603C19.252 13.913 19.25 14.207 19.249 14.38V14.552C19.249 15.451 19.249 16.2 19.169 16.794C19.085 17.422 18.899 17.989 18.444 18.444C17.988 18.9 17.422 19.086 16.794 19.17C16.199 19.25 15.45 19.25 14.551 19.25H10.448C9.55 19.25 8.801 19.25 8.206 19.17C7.578 19.086 7.011 18.9 6.556 18.444C6.1 17.989 5.915 17.422 5.83 16.794C5.75 16.2 5.75 15.45 5.75 14.552V14.38C5.75 14.206 5.747 13.912 5.942 13.603C6.021 13.477 6.118 13.363 6.25 13.266C6.33641 13.205 6.42851 13.1524 6.525 13.109Z" fill="white"/>
<path d="M16.7951 4.83C16.2001 4.75 15.4501 4.75 14.5521 4.75H10.4481C9.55008 4.75 8.80008 4.75 8.20608 4.83C7.57808 4.914 7.01108 5.1 6.55608 5.555C6.10008 6.011 5.91408 6.578 5.83008 7.205C5.75008 7.8 5.75008 8.55 5.75008 9.448V9.734C5.55608 9.858 5.39108 9.974 5.25408 10.079C5.08025 10.2112 4.9143 10.3534 4.75708 10.505L4.74708 10.515L4.74308 10.519L4.74208 10.521L4.74008 10.522C4.59019 10.6869 4.50499 10.9004 4.50021 11.1231C4.49543 11.3459 4.5714 11.5629 4.71408 11.734C4.77939 11.8142 4.86115 11.8794 4.95384 11.9252C5.04653 11.971 5.14798 11.9964 5.25133 11.9996C5.35468 12.0028 5.45751 11.9838 5.55287 11.9439C5.64824 11.9039 5.73391 11.8439 5.80408 11.768L5.81208 11.759L5.86708 11.709C5.95154 11.6332 6.03929 11.5611 6.13008 11.493C6.49681 11.2195 6.88933 10.9823 7.30208 10.785C8.37908 10.26 10.0801 9.715 12.5001 9.715C14.9201 9.715 16.6201 10.26 17.6981 10.785C18.2381 11.047 18.6251 11.307 18.8701 11.493C18.9805 11.5762 19.0867 11.665 19.1881 11.759L19.1961 11.768C19.2663 11.8439 19.3519 11.9039 19.4473 11.9439C19.5427 11.9838 19.6455 12.0028 19.7488 11.9996C19.8522 11.9964 19.9536 11.971 20.0463 11.9252C20.139 11.8794 20.2208 11.8142 20.2861 11.734C20.4288 11.5629 20.5047 11.3459 20.5 11.1231C20.4952 10.9004 20.41 10.6869 20.2601 10.522L20.2131 10.475C20.0647 10.3346 19.9088 10.2024 19.7461 10.079C19.5854 9.95743 19.42 9.84234 19.2501 9.734V9.448C19.2501 8.55 19.2501 7.8 19.1701 7.206C19.0861 6.578 18.9001 6.011 18.4441 5.556C17.9891 5.1 17.4231 4.914 16.7951 4.83Z" fill="white"/>
</svg>
