<svg width="40" height="40" viewBox="0 0 40 40" fill="none" xmlns="http://www.w3.org/2000/svg">
<rect width="40" height="40" rx="20" fill="#F8FAFB"/>
<path fill-rule="evenodd" clip-rule="evenodd" d="M12 11C11.7348 11 11.4804 11.1054 11.2929 11.2929C11.1054 11.4804 11 11.7348 11 12V20C11 20.2652 11.1054 20.5196 11.2929 20.7071C11.4804 20.8946 11.7348 21 12 21H13V23C13 23.1978 13.0587 23.391 13.1686 23.5555C13.2785 23.7199 13.4346 23.848 13.6173 23.9237C13.8 23.9993 14.0011 24.0192 14.195 23.9806C14.389 23.942 14.5671 23.8468 14.707 23.707L17.414 21H23C23.2652 21 23.5196 20.8946 23.7071 20.7071C23.8946 20.5196 24 20.2652 24 20V12C24 11.7348 23.8946 11.4804 23.7071 11.2929C23.5196 11.1054 23.2652 11 23 11H12Z" fill="#2B2A2B"/>
<path fill-rule="evenodd" clip-rule="evenodd" d="M16.0234 25.215C16.0568 25.1843 16.0894 25.153 16.1214 25.121L18.2434 23H23.0004C23.7961 23 24.5591 22.6839 25.1218 22.1213C25.6844 21.5587 26.0004 20.7956 26.0004 20V16H28.0004C28.2657 16 28.52 16.1054 28.7075 16.2929C28.8951 16.4804 29.0004 16.7348 29.0004 17V25C29.0004 25.2652 28.8951 25.5196 28.7075 25.7071C28.52 25.8946 28.2657 26 28.0004 26H27.0004V28C27.0004 28.1978 26.9417 28.391 26.8318 28.5555C26.722 28.7199 26.5658 28.848 26.3831 28.9237C26.2004 28.9993 25.9994 29.0192 25.8054 28.9806C25.6115 28.942 25.4333 28.8468 25.2934 28.707L22.5864 26H17.0004C16.7725 26.0001 16.5514 25.9223 16.3737 25.7795C16.196 25.6368 16.0724 25.4376 16.0234 25.215Z" fill="#2B2A2B"/>
</svg>
