<svg width="40" height="40" viewBox="0 0 40 40" fill="none" xmlns="http://www.w3.org/2000/svg">
<rect width="40" height="40" rx="20" fill="#F8FAFB"/>
<path d="M20.001 10C25.524 10 30.001 14.477 30.001 20C30.001 25.523 25.524 30 20.001 30C18.2337 30.003 16.4976 29.5353 14.971 28.645L10.005 30L11.357 25.032C10.466 23.5049 9.99789 21.768 10.001 20C10.001 14.477 14.478 10 20.001 10ZM16.593 15.3L16.393 15.308C16.2637 15.3169 16.1373 15.3509 16.021 15.408C15.9126 15.4695 15.8136 15.5463 15.727 15.636C15.607 15.749 15.539 15.847 15.466 15.942C15.0961 16.4229 14.897 17.0133 14.9 17.62C14.902 18.11 15.03 18.587 15.23 19.033C15.639 19.935 16.312 20.89 17.2 21.775C17.414 21.988 17.624 22.202 17.85 22.401C18.9534 23.3724 20.2683 24.073 21.69 24.447L22.258 24.534C22.443 24.544 22.628 24.53 22.814 24.521C23.1052 24.5056 23.3895 24.4268 23.647 24.29C23.7778 24.2223 23.9056 24.1489 24.03 24.07C24.03 24.07 24.0723 24.0413 24.155 23.98C24.29 23.88 24.373 23.809 24.485 23.692C24.569 23.6053 24.639 23.5047 24.695 23.39C24.773 23.227 24.851 22.916 24.883 22.657C24.907 22.459 24.9 22.351 24.897 22.284C24.893 22.177 24.804 22.066 24.707 22.019L24.125 21.758C24.125 21.758 23.255 21.379 22.723 21.137C22.6673 21.1128 22.6077 21.0989 22.547 21.096C22.4786 21.0888 22.4094 21.0965 22.3442 21.1184C22.279 21.1403 22.2192 21.176 22.169 21.223C22.164 21.221 22.097 21.278 21.374 22.154C21.3325 22.2098 21.2753 22.2519 21.2098 22.2751C21.1443 22.2982 21.0733 22.3013 21.006 22.284C20.9408 22.2666 20.877 22.2446 20.815 22.218C20.691 22.166 20.648 22.146 20.563 22.11C19.9889 21.8599 19.4574 21.5215 18.988 21.107C18.862 20.997 18.745 20.877 18.625 20.761C18.2316 20.3842 17.8887 19.958 17.605 19.493L17.546 19.398C17.5043 19.3338 17.47 19.265 17.444 19.193C17.406 19.046 17.505 18.928 17.505 18.928C17.505 18.928 17.748 18.662 17.861 18.518C17.971 18.378 18.064 18.242 18.124 18.145C18.242 17.955 18.279 17.76 18.217 17.609C17.937 16.925 17.6477 16.2447 17.349 15.568C17.29 15.434 17.115 15.338 16.956 15.319C16.902 15.3123 16.848 15.307 16.794 15.303C16.6597 15.2953 16.5251 15.2966 16.391 15.307L16.593 15.3Z" fill="#2B2A2B"/>
</svg>
