<svg width="40" height="40" viewBox="0 0 40 40" fill="none" xmlns="http://www.w3.org/2000/svg">
<rect width="40" height="40" rx="20" fill="#F8FAFB"/>
<g clip-path="url(#clip0_715_9762)">
<path d="M28.2497 11.5321C28.4278 11.486 28.6151 11.49 28.791 11.5435C28.967 11.597 29.1247 11.698 29.247 11.8354C29.3693 11.9727 29.4513 12.1412 29.4841 12.3221C29.5168 12.5031 29.4991 12.6896 29.4327 12.8611L23.4327 28.3611C23.3734 28.5146 23.277 28.6511 23.1523 28.7585C23.0275 28.8658 22.8782 28.9407 22.7175 28.9765C22.5569 29.0124 22.3899 29.008 22.2314 28.9637C22.0728 28.9195 21.9276 28.8369 21.8087 28.7231L18.4267 25.4881L17.2237 26.6901C16.5877 27.3261 15.4997 26.8761 15.4997 25.9761V22.6881L10.3087 17.7231C10.1799 17.5999 10.0864 17.4445 10.0378 17.273C9.98927 17.1015 9.98743 16.9201 10.0325 16.7476C10.0776 16.5752 10.1679 16.4179 10.2942 16.2921C10.4205 16.1663 10.5781 16.0765 10.7507 16.0321L28.2497 11.5321ZM26.1357 15.8371L18.1377 22.4441L22.1077 26.2421L26.1357 15.8371ZM24.5577 14.5471L12.9907 17.5201L16.6827 21.0501L24.5577 14.5451V14.5471Z" fill="#030206"/>
</g>
<defs>
<clipPath id="clip0_715_9762">
<rect width="24" height="24" fill="white" transform="translate(8 8)"/>
</clipPath>
</defs>
</svg>
