<svg width="40" height="40" viewBox="0 0 40 40" fill="none" xmlns="http://www.w3.org/2000/svg">
<rect width="40" height="40" rx="20" fill="#F8FAFB"/>
<path d="M28.772 21.155L27.404 17.051C27.2056 16.4535 26.8238 15.9337 26.3131 15.5655C25.8024 15.1973 25.1886 14.9994 24.559 15H15.441C14.8114 14.9994 14.1976 15.1973 13.6869 15.5655C13.1762 15.9337 12.7944 16.4535 12.596 17.051L11.228 21.155C10.8643 21.3073 10.5537 21.5637 10.3352 21.892C10.1168 22.2202 10.0001 22.6057 10 23V26C10 26.738 10.404 27.376 11 27.723V29C11 29.2652 11.1054 29.5196 11.2929 29.7071C11.4804 29.8946 11.7348 30 12 30H13C13.2652 30 13.5196 29.8946 13.7071 29.7071C13.8946 29.5196 14 29.2652 14 29V28H26V29C26 29.2652 26.1054 29.5196 26.2929 29.7071C26.4804 29.8946 26.7348 30 27 30H28C28.2652 30 28.5196 29.8946 28.7071 29.7071C28.8946 29.5196 29 29.2652 29 29V27.723C29.3034 27.549 29.5556 27.2981 29.7311 26.9956C29.9067 26.6932 29.9994 26.3497 30 26V23C30 22.169 29.493 21.458 28.772 21.155ZM15.441 17H24.558C24.768 16.9999 24.9726 17.066 25.143 17.1888C25.3133 17.3115 25.4407 17.4848 25.507 17.684L26.613 21H13.387L14.492 17.684C14.629 17.275 15.011 17 15.441 17ZM13.5 26C13.303 25.9999 13.1078 25.9611 12.9258 25.8856C12.7438 25.8101 12.5784 25.6995 12.4391 25.5602C12.1578 25.2787 11.9999 24.897 12 24.499C12.0001 24.101 12.1583 23.7194 12.4398 23.4381C12.7213 23.1568 13.103 22.9989 13.501 22.999C13.899 22.9991 14.2806 23.1573 14.5619 23.4388C14.8432 23.7203 15.0011 24.102 15.001 24.5C15.0009 24.898 14.8427 25.2796 14.5612 25.5609C14.2797 25.8422 13.898 26.0001 13.5 26ZM26.5 26C26.102 25.9999 25.7204 25.8417 25.4391 25.5602C25.1578 25.2787 24.9999 24.897 25 24.499C25.0001 24.101 25.1583 23.7194 25.4398 23.4381C25.7213 23.1568 26.103 22.9989 26.501 22.999C26.899 22.9991 27.2806 23.1573 27.5619 23.4388C27.8432 23.7203 28.0011 24.102 28.001 24.5C28.0009 24.898 27.8427 25.2796 27.5612 25.5609C27.2797 25.8422 26.898 26.0001 26.5 26ZM13.277 13C13.624 13.595 14.262 14 15 14C15.738 14 16.376 13.595 16.723 13H23.278C23.624 13.595 24.262 14 25 14C25.738 14 26.376 13.595 26.723 13H25V11H26.723C26.376 10.405 25.738 10 25 10C24.262 10 23.624 10.405 23.277 11H16.723C16.376 10.405 15.738 10 15 10C14.262 10 13.624 10.405 13.277 11H15V13H13.277Z" fill="#2B2A2B"/>
</svg>
