<svg width="25" height="25" viewBox="0 0 25 25" fill="none" xmlns="http://www.w3.org/2000/svg">
<path fill-rule="evenodd" clip-rule="evenodd" d="M1.5 12.5C1.5 6.425 6.425 1.5 12.5 1.5C18.575 1.5 23.5 6.425 23.5 12.5C23.5 18.575 18.575 23.5 12.5 23.5C6.425 23.5 1.5 18.575 1.5 12.5ZM12.5 7.5C12.5 7.30225 12.5587 7.10895 12.6686 6.94454C12.7785 6.78013 12.9346 6.65199 13.1173 6.57632C13.3 6.50065 13.5011 6.48085 13.695 6.51942C13.889 6.55798 14.0671 6.65319 14.207 6.793L18.207 10.793C18.3945 10.9805 18.4998 11.2348 18.4998 11.5C18.4998 11.7652 18.3945 12.0195 18.207 12.207L14.207 16.207C14.0671 16.3468 13.889 16.442 13.695 16.4806C13.5011 16.5192 13.3 16.4993 13.1173 16.4237C12.9346 16.348 12.7785 16.2199 12.6686 16.0555C12.5587 15.891 12.5 15.6978 12.5 15.5V14.54C10.869 14.672 9.875 15.124 9.295 15.554C9.02596 15.7445 8.79667 15.9857 8.62 16.264C8.56944 16.3432 8.53007 16.429 8.503 16.519C8.50239 16.5218 8.50138 16.5245 8.5 16.527V16.525C8.49836 16.6563 8.47087 16.786 8.4191 16.9067C8.36732 17.0274 8.29229 17.1367 8.19827 17.2284C8.10425 17.3201 7.99309 17.3924 7.87113 17.4412C7.74918 17.4899 7.61882 17.5141 7.4875 17.5125C7.35618 17.5109 7.22647 17.4834 7.10577 17.4316C6.98507 17.3798 6.87575 17.3048 6.78405 17.2108C6.69236 17.1167 6.62007 17.0056 6.57134 16.8836C6.5226 16.7617 6.49836 16.6313 6.5 16.5C6.5 13.794 7.637 11.785 9.073 10.464C10.135 9.487 11.39 8.861 12.5 8.617V7.5ZM13.5 12.5C13.7038 12.4999 13.9028 12.5622 14.0702 12.6783C14.2377 12.7945 14.3657 12.9591 14.437 13.15L16.086 11.5L14.436 9.85C14.3647 10.0408 14.2369 10.2052 14.0696 10.3214C13.9024 10.4375 13.7036 10.4998 13.5 10.5C12.796 10.5 11.529 10.922 10.427 11.936C10.0132 12.3154 9.65565 12.7518 9.365 13.232C10.403 12.79 11.757 12.5 13.5 12.5Z" fill="white"/>
</svg>
