<svg width="30" height="30" viewBox="0 0 30 30" fill="none" xmlns="http://www.w3.org/2000/svg">
<path d="M14.9211 27.9594C22.1198 27.9594 27.9555 22.1237 27.9555 14.925C27.9555 7.72631 22.1198 1.89062 14.9211 1.89062C7.72241 1.89062 1.88672 7.72631 1.88672 14.925C1.88672 22.1237 7.72241 27.9594 14.9211 27.9594Z" stroke="#00BFFF" stroke-width="0.97" stroke-linecap="round" stroke-linejoin="round"/>
<path d="M6.97703 18.8656C6.85578 18.5625 6.73453 18.32 6.61328 18.0169" stroke="#00BFFF" stroke-width="0.97" stroke-linecap="round" stroke-linejoin="round"/>
<path d="M6.12992 16.3194C5.92123 15.0094 6.0092 13.6694 6.38735 12.398C6.76551 11.1266 7.4242 9.95628 8.31487 8.97334C9.20553 7.99041 10.3055 7.21991 11.5336 6.71867C12.7616 6.21742 14.0866 5.99821 15.4107 6.07719C16.7348 6.15617 18.0242 6.53133 19.184 7.17501C20.3438 7.81869 21.3444 8.71448 22.1119 9.79632C22.8794 10.8782 23.3943 12.1185 23.6186 13.4258C23.8429 14.7332 23.771 16.0742 23.408 17.35" stroke="#00BFFF" stroke-width="0.97" stroke-linecap="round" stroke-linejoin="round"/>
<path d="M23.1636 18.1987C23.0423 18.5019 22.9211 18.7444 22.7998 19.0475M16.0705 14.925L14.9186 7.77124L13.8273 14.925C13.8229 15.1208 13.8712 15.3141 13.9672 15.4848C14.0632 15.6554 14.2034 15.7971 14.373 15.895C14.5517 15.9846 14.7489 16.0313 14.9489 16.0313C15.1489 16.0313 15.3461 15.9846 15.5248 15.895C15.6907 15.793 15.8279 15.6504 15.9233 15.4807C16.0188 15.311 16.0694 15.1197 16.0705 14.925ZM11.4023 20.9269H11.7661V21.2906H11.4023V20.9269ZM13.6455 20.9269H14.0092V21.2906H13.6455V20.9269ZM15.828 20.9269H16.1917V21.2906H15.828V20.9269ZM18.0711 20.9269H18.4348V21.2906H18.0711V20.9269Z" stroke="#00BFFF" stroke-width="0.97" stroke-linecap="round" stroke-linejoin="round"/>
</svg>
