<svg width="21" height="20" viewBox="0 0 21 20" fill="none" xmlns="http://www.w3.org/2000/svg">
<path d="M5.38222 19.1601C4.87259 19.141 4.38815 19.005 3.92889 18.7518C3.46963 18.4995 3.03519 18.1297 2.62556 17.6425C1.95667 16.8595 1.43519 15.8965 1.06111 14.7537C0.687037 13.6108 0.5 12.4237 0.5 11.1924C0.5 9.75674 0.75963 8.40916 1.27889 7.14963C1.79741 5.89011 2.51074 4.79336 3.41889 3.85939C4.32704 2.92542 5.38889 2.18778 6.60444 1.64645C7.82148 1.10437 9.12 0.833328 10.5 0.833328C11.88 0.833328 13.1785 1.10513 14.3956 1.64874C15.6119 2.19311 16.67 2.93076 17.57 3.86168C18.4707 4.7926 19.1841 5.88668 19.71 7.14392C20.2367 8.39887 20.5 9.7415 20.5 11.1718C20.5 12.4054 20.3074 13.591 19.9222 14.7285C19.5385 15.8661 19.0059 16.8439 18.3244 17.6619C17.8919 18.1667 17.4489 18.5425 16.9956 18.7896C16.543 19.0366 16.063 19.1601 15.5556 19.1601C15.2933 19.1601 15.0385 19.1281 14.7911 19.064C14.543 19.0008 14.2948 18.9055 14.0467 18.7781L12.4911 17.9776C12.1837 17.819 11.8585 17.7001 11.5156 17.6208C11.1733 17.5415 10.8278 17.5018 10.4789 17.5018C10.1159 17.5018 9.7663 17.5415 9.43 17.6208C9.09519 17.7001 8.78074 17.8186 8.48667 17.9764L6.95333 18.777C6.68667 18.9241 6.42852 19.0294 6.17889 19.0926C5.92852 19.1567 5.66296 19.1792 5.38222 19.1601ZM5.41667 18.0165C5.58333 18.0165 5.75482 17.9974 5.93111 17.9593C6.10741 17.9212 6.27852 17.8545 6.44445 17.7592L8 16.9586C8.38889 16.7489 8.79185 16.5965 9.20889 16.5012C9.62593 16.4058 10.047 16.3582 10.4722 16.3582C10.8981 16.3582 11.3241 16.4058 11.75 16.5012C12.1759 16.5965 12.5833 16.7489 12.9722 16.9586L14.5556 17.7592C14.7222 17.8545 14.8889 17.9212 15.0556 17.9593C15.2222 17.9974 15.3889 18.0165 15.5556 18.0165C15.9074 18.0165 16.2444 17.9212 16.5667 17.7306C16.8881 17.54 17.2067 17.254 17.5222 16.8728C18.1148 16.1485 18.5741 15.2813 18.9 14.2711C19.2259 13.2608 19.3889 12.2148 19.3889 11.1329C19.3889 8.5788 18.5278 6.41428 16.8056 4.63935C15.0833 2.86443 12.9815 1.97696 10.5 1.97696C8.01852 1.97696 5.91667 2.87281 4.19444 4.66451C2.47222 6.45621 1.61111 8.62912 1.61111 11.1832C1.61111 12.2697 1.78593 13.3276 2.13556 14.3568C2.48519 15.3861 2.95852 16.2534 3.55556 16.9586C3.87037 17.3398 4.17593 17.6116 4.47222 17.774C4.76852 17.9364 5.08333 18.0172 5.41667 18.0165ZM10.5 12.8415C10.9689 12.8415 11.3637 12.6761 11.6844 12.3452C12.0059 12.015 12.1667 11.6087 12.1667 11.1261C12.1667 10.9583 12.1422 10.7948 12.0933 10.6354C12.0437 10.4753 11.977 10.3267 11.8933 10.1894L13.9444 7.45956C14.2148 7.72183 14.4519 8.0207 14.6556 8.35617C14.8578 8.69164 15.0267 9.05036 15.1622 9.43233H16.3289C15.9659 8.06302 15.247 6.95483 14.1722 6.10778C13.0974 5.25997 11.8733 4.83606 10.5 4.83606C9.12667 4.83606 7.89815 5.26073 6.81444 6.11007C5.73 6.96093 5.00852 8.06874 4.65 9.43348H5.79444C6.1537 8.38972 6.76704 7.55334 7.63444 6.92434C8.50185 6.29457 9.45704 5.97969 10.5 5.97969C10.9719 5.97969 11.4211 6.04831 11.8478 6.18555C12.2752 6.32431 12.6826 6.51682 13.07 6.76308L11.0133 9.50553C10.9333 9.47579 10.8478 9.45292 10.7567 9.43691C10.6656 9.41937 10.58 9.4106 10.5 9.4106C10.0311 9.4106 9.6363 9.57605 9.31556 9.90694C8.99407 10.2371 8.83333 10.6434 8.83333 11.1261C8.83333 11.6087 8.99407 12.015 9.31556 12.3452C9.6363 12.6761 10.0311 12.8415 10.5 12.8415Z" fill="#00BFFF"/>
</svg>
