<svg width="54" height="54" viewBox="0 0 54 54" fill="none" xmlns="http://www.w3.org/2000/svg">
<path d="M43.7851 22.5C43.5632 22.828 43.4317 23.2088 43.4041 23.6038C43.3764 23.9989 43.4535 24.3943 43.6276 24.75C44.1861 26.0534 44.5791 27.4215 44.7976 28.8225C45.3768 32.4453 44.8351 36.1586 43.2451 39.465C43.052 39.8277 42.7633 40.1305 42.4103 40.3407C42.0573 40.551 41.6535 40.6605 41.2426 40.6575H12.7801C12.367 40.6584 11.9615 40.5454 11.6083 40.3311C11.2551 40.1168 10.9677 39.8094 10.7776 39.4425C9.33734 36.5207 8.71693 33.2629 8.98253 30.0163C9.24812 26.7697 10.3898 23.656 12.2857 21.0071C14.1817 18.3583 16.761 16.2736 19.7486 14.9753C22.7361 13.677 26.02 13.2138 29.2501 13.635C30.8845 13.8271 32.4831 14.2514 33.9976 14.895C34.3533 15.0691 34.7487 15.1462 35.1438 15.1186C35.5388 15.0909 35.9196 14.9595 36.2476 14.7375C36.5893 14.5124 36.8632 14.1983 37.0397 13.8291C37.2162 13.4599 37.2887 13.0496 37.2494 12.6423C37.21 12.235 37.0603 11.8461 36.8164 11.5175C36.5725 11.1889 36.2436 10.9331 35.8651 10.7775C31.5186 8.91374 26.6952 8.46696 22.0803 9.50063C17.4653 10.5343 13.2934 12.9959 10.1572 16.5357C7.02094 20.0755 5.07983 24.5135 4.60957 29.2194C4.13932 33.9252 5.16385 38.6596 7.53761 42.75C7.93026 43.4301 8.49406 43.9956 9.17298 44.3904C9.8519 44.7851 10.6223 44.9953 11.4076 45H42.5701C43.3631 45.0032 44.1428 44.7967 44.8303 44.4016C45.5178 44.0065 46.0886 43.4367 46.4851 42.75C48.223 39.7382 49.2391 36.3647 49.4538 32.8941C49.6686 29.4236 49.076 25.9505 47.7226 22.7475C47.5512 22.3825 47.2848 22.0702 46.9514 21.8434C46.6179 21.6166 46.2296 21.4836 45.8271 21.4583C45.4246 21.433 45.0227 21.5163 44.6635 21.6996C44.3043 21.8829 44.0009 22.1593 43.7851 22.5Z" fill="white"/>
<path d="M23.8275 28.3275C22.9832 29.1719 22.5088 30.3171 22.5088 31.5113C22.5088 32.1025 22.6252 32.688 22.8515 33.2343C23.0778 33.7806 23.4094 34.2769 23.8275 34.695C24.2456 35.1131 24.742 35.4447 25.2883 35.671C25.8345 35.8973 26.42 36.0138 27.0113 36.0138C28.2054 36.0138 29.3507 35.5394 30.195 34.695L42.93 15.5925L23.8275 28.3275Z" fill="white"/>
</svg>
