<svg width="54" height="54" viewBox="0 0 54 54" fill="none" xmlns="http://www.w3.org/2000/svg">
<path d="M27.5 15.6048C27.873 15.6048 28.2306 15.753 28.4944 16.0167C28.7581 16.2804 28.9062 16.6381 28.9062 17.011V21.2298C28.9062 21.6028 28.7581 21.9604 28.4944 22.2242C28.2306 22.4879 27.873 22.636 27.5 22.636C27.127 22.636 26.7694 22.4879 26.5056 22.2242C26.2419 21.9604 26.0937 21.6028 26.0937 21.2298V17.011C26.0937 16.6381 26.2419 16.2804 26.5056 16.0167C26.7694 15.753 27.127 15.6048 27.5 15.6048ZM15.4962 20.476C15.76 20.2124 16.1176 20.0643 16.4905 20.0643C16.8634 20.0643 17.221 20.2124 17.4847 20.476L20.0581 23.0467C20.1889 23.1774 20.2926 23.3326 20.3633 23.5035C20.4341 23.6743 20.4705 23.8574 20.4705 24.0423C20.4705 24.2272 20.4341 24.4103 20.3633 24.5811C20.2926 24.752 20.1889 24.9072 20.0581 25.0379C19.9274 25.1687 19.7722 25.2724 19.6013 25.3431C19.4305 25.4139 19.2474 25.4503 19.0625 25.4503C18.8776 25.4503 18.6945 25.4139 18.5237 25.3431C18.3528 25.2724 18.1976 25.1687 18.0669 25.0379L15.4962 22.4645C15.2326 22.2008 15.0845 21.8432 15.0845 21.4703C15.0845 21.0974 15.2326 20.7398 15.4962 20.476ZM10.625 32.4798C10.625 32.1068 10.7732 31.7491 11.0369 31.4854C11.3006 31.2217 11.6583 31.0735 12.0312 31.0735H16.4919C16.8648 31.0735 17.2225 31.2217 17.4862 31.4854C17.75 31.7491 17.8981 32.1068 17.8981 32.4798C17.8981 32.8528 17.75 33.2104 17.4862 33.4742C17.2225 33.7379 16.8648 33.886 16.4919 33.886H12.0312C11.6583 33.886 11.3006 33.7379 11.0369 33.4742C10.7732 33.2104 10.625 32.8528 10.625 32.4798ZM37.3437 32.4798C37.3437 32.1068 37.4919 31.7491 37.7556 31.4854C38.0194 31.2217 38.377 31.0735 38.75 31.0735H42.9687C43.3417 31.0735 43.6994 31.2217 43.9631 31.4854C44.2268 31.7491 44.375 32.1068 44.375 32.4798C44.375 32.8528 44.2268 33.2104 43.9631 33.4742C43.6994 33.7379 43.3417 33.886 42.9687 33.886H38.75C38.377 33.886 38.0194 33.7379 37.7556 33.4742C37.4919 33.2104 37.3437 32.8528 37.3437 32.4798ZM39.4644 20.5379C39.2692 20.3447 39.0087 20.2317 38.7342 20.2213C38.4598 20.2109 38.1914 20.3038 37.9822 20.4817L26.2259 30.5392C25.952 30.77 25.7296 31.0557 25.5731 31.3778C25.4165 31.7 25.3293 32.0514 25.3171 32.4094C25.305 32.7673 25.368 33.1239 25.5023 33.4559C25.6366 33.788 25.8391 34.0881 26.0966 34.337C26.3542 34.5859 26.6612 34.7779 26.9977 34.9007C27.3341 35.0235 27.6926 35.0743 28.05 35.0498C28.4073 35.0253 28.7555 34.9261 29.0721 34.7586C29.3887 34.5911 29.6666 34.359 29.8878 34.0773L39.5459 21.992C39.7134 21.7814 39.7976 21.5166 39.7825 21.248C39.7675 20.9794 39.6543 20.7257 39.4644 20.5351V20.5379Z" fill="white"/>
<path fill-rule="evenodd" clip-rule="evenodd" d="M5.00001 32.4798C5.00295 29.2055 5.7205 25.9713 7.10256 23.0029C8.48461 20.0346 10.4979 17.4037 13.0018 15.2938C15.5057 13.184 18.44 11.6461 21.5997 10.7874C24.7594 9.92877 28.0685 9.77011 31.2959 10.3225C34.5232 10.8749 37.5912 12.125 40.2855 13.9856C42.9798 15.8462 45.2355 18.2725 46.8952 21.095C48.555 23.9175 49.5786 27.0682 49.8948 30.3272C50.211 33.5862 49.8121 36.875 48.7259 39.9639C47.4828 43.4879 43.5369 44.4695 40.4797 43.4795C36.8066 42.2898 31.6484 40.9173 27.5 40.9173C23.3544 40.9173 18.1906 42.2898 14.5203 43.4795C11.4631 44.4695 7.5172 43.4879 6.27407 39.9639C5.42854 37.5593 4.99773 35.0286 5.00001 32.4798ZM27.5 12.7923C24.3511 12.7915 21.2478 13.546 18.4508 14.9926C15.6538 16.4392 13.2446 18.5356 11.4254 21.1059C9.60613 23.6761 8.42998 26.6453 7.99562 29.7642C7.56126 32.883 7.88137 36.0606 8.92907 39.0301C9.50001 40.6473 11.525 41.4939 13.6541 40.802C17.3666 39.6039 22.8819 38.1048 27.5 38.1048C32.1181 38.1048 37.6363 39.601 41.3459 40.8048C43.475 41.4939 45.5 40.6473 46.0709 39.0301C47.1186 36.0606 47.4388 32.883 47.0044 29.7642C46.57 26.6453 45.3939 23.6761 43.5747 21.1059C41.7554 18.5356 39.3462 16.4392 36.5492 14.9926C33.7522 13.546 30.649 12.7915 27.5 12.7923Z" fill="white"/>
</svg>
