<svg width="25" height="25" viewBox="0 0 25 25" fill="none" xmlns="http://www.w3.org/2000/svg">
<path d="M20.0117 10.5212C19.9131 10.667 19.8546 10.8363 19.8424 11.0118C19.8301 11.1874 19.8643 11.3631 19.9417 11.5212C20.1899 12.1005 20.3646 12.7086 20.4617 13.3312C20.7191 14.9414 20.4784 16.5917 19.7717 18.0612C19.6859 18.2224 19.5576 18.357 19.4007 18.4505C19.2438 18.5439 19.0643 18.5926 18.8817 18.5912H6.2317C6.04807 18.5916 5.86788 18.5414 5.71089 18.4462C5.5539 18.3509 5.42617 18.2143 5.3417 18.0512C4.70158 16.7527 4.42584 15.3048 4.54388 13.8618C4.66193 12.4189 5.16932 11.035 6.01198 9.85774C6.85464 8.68048 8.00098 7.75395 9.32878 7.17694C10.6566 6.59992 12.1161 6.39404 13.5517 6.58124C14.2781 6.66662 14.9886 6.85519 15.6617 7.14124C15.8198 7.21862 15.9955 7.25289 16.1711 7.2406C16.3467 7.22831 16.5159 7.16989 16.6617 7.07124C16.8136 6.97119 16.9353 6.8316 17.0137 6.66752C17.0922 6.50343 17.1244 6.32106 17.1069 6.14003C17.0894 5.959 17.0229 5.78616 16.9145 5.64012C16.8061 5.49409 16.6599 5.38038 16.4917 5.31124C14.5599 4.4829 12.4162 4.28433 10.3651 4.74374C8.31402 5.20315 6.45984 6.29718 5.06596 7.87043C3.67207 9.44367 2.80935 11.4161 2.60035 13.5076C2.39135 15.5991 2.84669 17.7033 3.9017 19.5212C4.07621 19.8235 4.32679 20.0749 4.62853 20.2503C4.93027 20.4257 5.27267 20.5191 5.6217 20.5212H19.4717C19.8241 20.5226 20.1707 20.4309 20.4762 20.2553C20.7818 20.0797 21.0355 19.8265 21.2117 19.5212C21.9841 18.1827 22.4357 16.6833 22.5311 15.1409C22.6266 13.5984 22.3632 12.0548 21.7617 10.6312C21.6855 10.469 21.5671 10.3302 21.4189 10.2294C21.2707 10.1286 21.0981 10.0695 20.9193 10.0583C20.7404 10.047 20.5618 10.0841 20.4021 10.1655C20.2424 10.247 20.1076 10.3698 20.0117 10.5212Z" fill="black"/>
<path d="M11.1408 13.1117C10.7655 13.4869 10.5547 13.9959 10.5547 14.5267C10.5547 14.7895 10.6064 15.0497 10.707 15.2925C10.8076 15.5352 10.955 15.7558 11.1408 15.9417C11.3266 16.1275 11.5472 16.2749 11.79 16.3754C12.0328 16.476 12.293 16.5278 12.5558 16.5278C13.0865 16.5278 13.5955 16.3169 13.9708 15.9417L19.6308 7.45166L11.1408 13.1117Z" fill="black"/>
</svg>
