<svg width="69" height="26" viewBox="0 0 69 26" fill="none" xmlns="http://www.w3.org/2000/svg">
<rect width="69" height="26" rx="13" fill="#E6F9FF"/>
<path d="M13.2564 18.144C12.6244 18.144 12.0284 18.044 11.4684 17.844C10.9164 17.636 10.4484 17.308 10.0644 16.86C9.68039 16.404 9.44839 15.828 9.36839 15.132H10.8084C10.9444 15.772 11.2404 16.232 11.6964 16.512C12.1524 16.784 12.6804 16.92 13.2804 16.92C13.8644 16.92 14.3204 16.8 14.6484 16.56C14.9844 16.312 15.1524 15.952 15.1524 15.48C15.1524 15.128 15.0484 14.848 14.8404 14.64C14.6324 14.424 14.3724 14.268 14.0604 14.172C13.7484 14.068 13.3204 13.956 12.7764 13.836C12.1124 13.692 11.5764 13.548 11.1684 13.404C10.7604 13.252 10.4124 13.012 10.1244 12.684C9.83639 12.348 9.69239 11.888 9.69239 11.304C9.69239 10.76 9.82439 10.292 10.0884 9.9C10.3524 9.508 10.7204 9.212 11.1924 9.012C11.6644 8.804 12.2044 8.7 12.8124 8.7C13.7084 8.7 14.4804 8.932 15.1284 9.396C15.7764 9.852 16.1724 10.54 16.3164 11.46H14.9004C14.7804 10.94 14.5284 10.556 14.1444 10.308C13.7684 10.06 13.3164 9.936 12.7884 9.936C12.2604 9.936 11.8484 10.048 11.5524 10.272C11.2564 10.488 11.1084 10.792 11.1084 11.184C11.1084 11.488 11.2044 11.732 11.3964 11.916C11.5964 12.1 11.8404 12.24 12.1284 12.336C12.4164 12.432 12.8164 12.536 13.3284 12.648C14.0244 12.8 14.5844 12.956 15.0084 13.116C15.4404 13.276 15.8084 13.54 16.1124 13.908C16.4164 14.268 16.5684 14.764 16.5684 15.396C16.5684 16.244 16.2764 16.916 15.6924 17.412C15.1164 17.9 14.3044 18.144 13.2564 18.144ZM20.1992 18.132C19.2232 18.132 18.5472 17.768 18.1712 17.04C18.0672 16.832 17.9912 16.592 17.9432 16.32C17.9032 16.048 17.8832 15.692 17.8832 15.252V11.316H19.2032V15.264C19.2032 15.944 19.3192 16.416 19.5512 16.68C19.7592 16.904 20.0712 17.016 20.4872 17.016C20.9672 17.016 21.3392 16.864 21.6032 16.56C21.7792 16.368 21.9072 16.108 21.9872 15.78C22.0672 15.452 22.1072 15.008 22.1072 14.448V11.316H23.4272V18H22.1072V17.052C21.8192 17.436 21.5232 17.712 21.2192 17.88C20.9232 18.048 20.5832 18.132 20.1992 18.132ZM28.0448 18.132C27.3968 18.132 26.8208 17.984 26.3168 17.688C25.8208 17.392 25.4328 16.98 25.1528 16.452C24.8728 15.916 24.7328 15.308 24.7328 14.628C24.7328 13.964 24.8728 13.372 25.1528 12.852C25.4328 12.332 25.8208 11.924 26.3168 11.628C26.8208 11.332 27.3968 11.184 28.0448 11.184C28.8208 11.184 29.4768 11.384 30.0128 11.784C30.5568 12.184 30.9088 12.72 31.0688 13.392H29.6528C29.5328 13.048 29.3328 12.78 29.0528 12.588C28.7728 12.396 28.4368 12.3 28.0448 12.3C27.6608 12.3 27.3208 12.4 27.0248 12.6C26.7288 12.792 26.4968 13.064 26.3288 13.416C26.1608 13.768 26.0768 14.172 26.0768 14.628C26.0768 15.1 26.1608 15.516 26.3288 15.876C26.4968 16.236 26.7288 16.516 27.0248 16.716C27.3208 16.916 27.6608 17.016 28.0448 17.016C28.4608 17.016 28.8128 16.908 29.1008 16.692C29.3968 16.468 29.5928 16.172 29.6888 15.804H31.1168C30.9648 16.524 30.6088 17.092 30.0488 17.508C29.4968 17.924 28.8288 18.132 28.0448 18.132ZM35.3807 18.132C34.7327 18.132 34.1567 17.984 33.6527 17.688C33.1567 17.392 32.7687 16.98 32.4887 16.452C32.2087 15.916 32.0687 15.308 32.0687 14.628C32.0687 13.964 32.2087 13.372 32.4887 12.852C32.7687 12.332 33.1567 11.924 33.6527 11.628C34.1567 11.332 34.7327 11.184 35.3807 11.184C36.1567 11.184 36.8127 11.384 37.3487 11.784C37.8927 12.184 38.2447 12.72 38.4047 13.392H36.9887C36.8687 13.048 36.6687 12.78 36.3887 12.588C36.1087 12.396 35.7727 12.3 35.3807 12.3C34.9967 12.3 34.6567 12.4 34.3607 12.6C34.0647 12.792 33.8327 13.064 33.6647 13.416C33.4967 13.768 33.4127 14.172 33.4127 14.628C33.4127 15.1 33.4967 15.516 33.6647 15.876C33.8327 16.236 34.0647 16.516 34.3607 16.716C34.6567 16.916 34.9967 17.016 35.3807 17.016C35.7967 17.016 36.1487 16.908 36.4367 16.692C36.7327 16.468 36.9287 16.172 37.0247 15.804H38.4527C38.3007 16.524 37.9447 17.092 37.3847 17.508C36.8327 17.924 36.1647 18.132 35.3807 18.132ZM42.7287 18.132C42.0807 18.132 41.5047 17.984 41.0007 17.688C40.4967 17.384 40.1047 16.972 39.8247 16.452C39.5447 15.924 39.4047 15.336 39.4047 14.688C39.4047 14.08 39.5287 13.508 39.7767 12.972C40.0327 12.436 40.4087 12.004 40.9047 11.676C41.4007 11.348 41.9967 11.184 42.6927 11.184C43.2847 11.184 43.8287 11.312 44.3247 11.568C44.8287 11.824 45.2327 12.208 45.5367 12.72C45.8407 13.224 45.9927 13.84 45.9927 14.568V14.928H40.7487C40.7727 15.192 40.8367 15.432 40.9407 15.648C41.1007 16.056 41.3407 16.38 41.6607 16.62C41.9807 16.86 42.3447 16.98 42.7527 16.98C43.1767 16.98 43.5407 16.872 43.8447 16.656C44.1487 16.432 44.3687 16.148 44.5047 15.804H45.8847C45.6607 16.492 45.2807 17.052 44.7447 17.484C44.2167 17.916 43.5447 18.132 42.7287 18.132ZM44.6247 13.86C44.5927 13.612 44.5247 13.4 44.4207 13.224C44.2607 12.92 44.0287 12.688 43.7247 12.528C43.4287 12.36 43.1007 12.276 42.7407 12.276C42.3647 12.276 42.0327 12.36 41.7447 12.528C41.4567 12.688 41.2287 12.92 41.0607 13.224C40.9647 13.384 40.8887 13.596 40.8327 13.86H44.6247ZM50.0939 18.132C49.2539 18.132 48.5499 17.932 47.9819 17.532C47.4219 17.124 47.0859 16.548 46.9739 15.804H48.3059C48.4019 16.196 48.5979 16.5 48.8939 16.716C49.1979 16.932 49.5979 17.04 50.0939 17.04C50.5019 17.04 50.8299 16.964 51.0779 16.812C51.3259 16.652 51.4499 16.428 51.4499 16.14C51.4499 15.916 51.3739 15.74 51.2219 15.612C51.0699 15.476 50.8779 15.372 50.6459 15.3C50.4139 15.228 50.1059 15.152 49.7219 15.072C49.1939 14.968 48.7659 14.86 48.4379 14.748C48.1099 14.636 47.8299 14.452 47.5979 14.196C47.3659 13.94 47.2499 13.588 47.2499 13.14C47.2499 12.508 47.4859 12.024 47.9579 11.688C48.4299 11.352 49.0299 11.184 49.7579 11.184C50.5099 11.184 51.1379 11.38 51.6419 11.772C52.1459 12.156 52.4579 12.692 52.5779 13.38H51.3419C51.2459 13.004 51.0579 12.724 50.7779 12.54C50.4979 12.356 50.1579 12.264 49.7579 12.264C49.3739 12.264 49.0739 12.336 48.8579 12.48C48.6419 12.624 48.5339 12.82 48.5339 13.068C48.5339 13.268 48.6059 13.428 48.7499 13.548C48.8939 13.66 49.0699 13.748 49.2779 13.812C49.4939 13.876 49.7939 13.944 50.1779 14.016C50.7219 14.12 51.1659 14.232 51.5099 14.352C51.8539 14.464 52.1459 14.656 52.3859 14.928C52.6339 15.192 52.7579 15.56 52.7579 16.032C52.7579 16.672 52.5219 17.184 52.0499 17.568C51.5779 17.944 50.9259 18.132 50.0939 18.132ZM56.8907 18.132C56.0507 18.132 55.3467 17.932 54.7787 17.532C54.2187 17.124 53.8827 16.548 53.7707 15.804H55.1027C55.1987 16.196 55.3947 16.5 55.6907 16.716C55.9947 16.932 56.3947 17.04 56.8907 17.04C57.2987 17.04 57.6267 16.964 57.8747 16.812C58.1227 16.652 58.2467 16.428 58.2467 16.14C58.2467 15.916 58.1707 15.74 58.0187 15.612C57.8667 15.476 57.6747 15.372 57.4427 15.3C57.2107 15.228 56.9027 15.152 56.5187 15.072C55.9907 14.968 55.5627 14.86 55.2347 14.748C54.9067 14.636 54.6267 14.452 54.3947 14.196C54.1627 13.94 54.0467 13.588 54.0467 13.14C54.0467 12.508 54.2827 12.024 54.7547 11.688C55.2267 11.352 55.8267 11.184 56.5547 11.184C57.3067 11.184 57.9347 11.38 58.4387 11.772C58.9427 12.156 59.2547 12.692 59.3747 13.38H58.1387C58.0427 13.004 57.8547 12.724 57.5747 12.54C57.2947 12.356 56.9547 12.264 56.5547 12.264C56.1707 12.264 55.8707 12.336 55.6547 12.48C55.4387 12.624 55.3307 12.82 55.3307 13.068C55.3307 13.268 55.4027 13.428 55.5467 13.548C55.6907 13.66 55.8667 13.748 56.0747 13.812C56.2907 13.876 56.5907 13.944 56.9747 14.016C57.5187 14.12 57.9627 14.232 58.3067 14.352C58.6507 14.464 58.9427 14.656 59.1827 14.928C59.4307 15.192 59.5547 15.56 59.5547 16.032C59.5547 16.672 59.3187 17.184 58.8467 17.568C58.3747 17.944 57.7227 18.132 56.8907 18.132Z" fill="#00BFFF"/>
</svg>
