<svg width="24" height="25" viewBox="0 0 24 25" fill="none" xmlns="http://www.w3.org/2000/svg">
<path d="M13.0003 16.1472V6.36719C13.0003 6.10197 12.8949 5.84762 12.7074 5.66008C12.5198 5.47254 12.2655 5.36719 12.0003 5.36719C11.7351 5.36719 11.4807 5.47254 11.2932 5.66008C11.1056 5.84762 11.0003 6.10197 11.0003 6.36719V16.1472C10.698 16.3217 10.4467 16.5723 10.2712 16.874C10.0958 17.1758 10.0024 17.5182 10.0003 17.8672C10.0003 18.3976 10.211 18.9063 10.5861 19.2814C10.9611 19.6565 11.4698 19.8672 12.0003 19.8672C12.5307 19.8672 13.0394 19.6565 13.4145 19.2814C13.7896 18.9063 14.0003 18.3976 14.0003 17.8672C13.9982 17.5182 13.9048 17.1758 13.7293 16.874C13.5539 16.5723 13.3025 16.3217 13.0003 16.1472ZM16.5003 13.8672V6.36719C16.5003 5.17371 16.0262 4.02912 15.1823 3.18521C14.3383 2.34129 13.1937 1.86719 12.0003 1.86719C10.8068 1.86719 9.66221 2.34129 8.81829 3.18521C7.97438 4.02912 7.50027 5.17371 7.50027 6.36719V13.8672C6.80911 14.6504 6.3344 15.6005 6.12308 16.6234C5.91177 17.6464 5.97117 18.7068 6.29543 19.6997C6.61968 20.6927 7.19754 21.5838 7.97185 22.2849C8.74616 22.986 9.69009 23.4728 10.7103 23.6972C11.1341 23.7938 11.5659 23.8507 12.0003 23.8672C13.1609 23.8726 14.2982 23.5413 15.2743 22.9133C16.2504 22.2854 17.0234 21.3879 17.4997 20.3294C17.976 19.271 18.1351 18.0972 17.9577 16.9502C17.7803 15.8032 17.274 14.7323 16.5003 13.8672ZM14.5003 20.9372C13.9736 21.3654 13.3466 21.6526 12.6782 21.7716C12.0099 21.8906 11.3223 21.8376 10.6802 21.6176C10.038 21.3975 9.46241 21.0176 9.00757 20.5137C8.55274 20.0098 8.23362 19.3985 8.08027 18.7372C7.92578 18.0687 7.94581 17.3718 8.13845 16.7133C8.33109 16.0548 8.68986 15.457 9.18027 14.9772C9.27476 14.8846 9.34993 14.7741 9.40143 14.6523C9.45292 14.5304 9.47972 14.3995 9.48027 14.2672V6.36719C9.48027 5.70415 9.74366 5.06826 10.2125 4.59942C10.6813 4.13058 11.3172 3.86719 11.9803 3.86719C12.6433 3.86719 13.2792 4.13058 13.748 4.59942C14.2169 5.06826 14.4803 5.70415 14.4803 6.36719V14.3072C14.4808 14.4395 14.5076 14.5704 14.5591 14.6923C14.6106 14.8141 14.6858 14.9246 14.7803 15.0172C15.189 15.4121 15.5089 15.8895 15.7187 16.4177C15.9285 16.9459 16.0232 17.5128 15.9968 18.0805C15.9703 18.6482 15.8231 19.2038 15.565 19.7101C15.307 20.2165 14.944 20.6621 14.5003 21.0172V20.9372Z" fill="#001F3F"/>
</svg>
