<svg width="359" height="168" viewBox="0 0 359 168" fill="none" xmlns="http://www.w3.org/2000/svg">
<path d="M276.405 141.847C276.662 141.727 276.662 141.533 276.405 141.413L273.726 140.165C273.428 140.045 273.095 140.045 272.797 140.165L270.118 141.413C269.862 141.533 269.862 141.727 270.118 141.847L272.797 143.095C273.095 143.215 273.428 143.215 273.726 143.095L276.405 141.847Z" stroke="white" stroke-width="0.701462" stroke-miterlimit="10"/>
<path d="M201.931 146.558C202.765 143.316 203.288 140 203.491 136.656" stroke="white" stroke-width="0.701462" stroke-linecap="round" stroke-linejoin="round"/>
<path d="M173.726 129.354C172.924 129.346 172.278 128.687 172.278 127.878C172.278 127.068 172.924 126.409 173.726 126.401L179.856 126.401C180.657 126.409 181.303 127.068 181.303 127.878C181.303 128.687 180.657 129.346 179.856 129.354L173.726 129.354Z" stroke="white" stroke-width="0.701462" stroke-linecap="round" stroke-linejoin="round"/>
<path d="M176.79 129.354L176.79 126.401" stroke="white" stroke-width="0.701462" stroke-linecap="round" stroke-linejoin="round"/>
<path d="M128.845 157.425C128.845 157.425 125.895 153.179 126.291 150.326C126.471 149.024 128.277 149.333 129.462 149.333C130.646 149.333 134.307 149.623 134.307 149.623" stroke="white" stroke-width="0.701462" stroke-linecap="round" stroke-linejoin="round"/>
<path d="M127.741 146.122C128.39 146.615 130.284 147.73 131.314 148.649C132.3 149.529 134 149.616 135.901 149.748C137.802 149.88 137.974 150.715 138.493 151.903C139.011 153.09 142.596 162.63 142.769 163.641C142.942 164.652 142.38 165.18 139.789 165.268C137.197 165.355 135.944 165.268 133.309 162.893C131.033 160.842 127.26 155.142 125.182 152.145C124.649 151.375 123.943 150.744 123.121 150.304L114.436 145.662" stroke="white" stroke-width="0.701462" stroke-linecap="round" stroke-linejoin="round"/>
<path d="M114.179 153.604C114.101 153.453 114.031 153.298 113.969 153.14C113.576 152.072 113.437 150.926 113.561 149.793C113.718 148.367 114.075 146.971 114.621 145.645" stroke="white" stroke-width="0.701462" stroke-linecap="round" stroke-linejoin="round"/>
<path d="M192.688 152.98C193.169 151.904 193.542 150.783 193.803 149.632C194.021 148.634 194.16 147.619 194.22 146.598C195.561 143.386 196.578 140.046 197.256 136.628" stroke="white" stroke-width="0.701462" stroke-linecap="round" stroke-linejoin="round"/>
<path d="M191.28 136.603C189.969 140.157 188.205 143.524 186.033 146.618" stroke="white" stroke-width="0.701462" stroke-linecap="round" stroke-linejoin="round"/>
<path d="M18.7798 134.021C18.7798 134.021 74.7868 136.786 88.2768 137.287C96.9278 137.607 101.238 140.475 105.607 142.837" stroke="white" stroke-width="0.701462" stroke-linecap="round" stroke-linejoin="round"/>
<path d="M28.2289 145.978C28.2289 145.978 84.7592 147.301 89.6093 147.477C94.7069 147.662 98.1286 148.093 101.376 145.811C103.477 144.336 104.879 143.351 105.607 142.839" stroke="white" stroke-width="0.701462" stroke-linecap="round" stroke-linejoin="round"/>
<path d="M152.733 133.302L105.607 142.837" stroke="white" stroke-width="0.701462" stroke-linecap="round" stroke-linejoin="round"/>
<path d="M114.621 145.647L160.837 136.487" stroke="white" stroke-width="0.701462" stroke-linecap="round" stroke-linejoin="round"/>
<path d="M293.543 124.096C292.741 124.105 292.096 124.764 292.096 125.573C292.096 126.383 292.741 127.041 293.543 127.05L299.673 127.05C300.475 127.041 301.12 126.383 301.12 125.573C301.12 124.764 300.475 124.105 299.673 124.096L293.543 124.096Z" stroke="white" stroke-width="0.701462" stroke-linecap="round" stroke-linejoin="round"/>
<path d="M296.608 124.096L296.608 127.05" stroke="white" stroke-width="0.701462" stroke-linecap="round" stroke-linejoin="round"/>
<path d="M239.491 129.587C238.689 129.578 238.044 128.919 238.044 128.11C238.044 127.3 238.689 126.642 239.491 126.633L245.621 126.633C246.423 126.642 247.068 127.3 247.068 128.11C247.068 128.919 246.423 129.578 245.621 129.587L239.491 129.587Z" stroke="white" stroke-width="0.701462" stroke-linecap="round" stroke-linejoin="round"/>
<path d="M242.556 129.587L242.556 126.633" stroke="white" stroke-width="0.701462" stroke-linecap="round" stroke-linejoin="round"/>
<path d="M137.132 150.015C148.482 150.082 224.595 150.146 270.736 148.671C296.239 147.855 341.237 145.652 341.237 145.652" stroke="white" stroke-width="0.701462" stroke-linecap="round" stroke-linejoin="round"/>
<path d="M264.039 155.884C264.039 155.884 264.389 152.108 264.389 148.875C263.438 141.872 264.372 144.624 265.021 135.875" stroke="white" stroke-width="0.701462" stroke-linecap="round" stroke-linejoin="round"/>
<path d="M246.494 136.272C246.174 139.704 245.579 143.104 244.714 146.439" stroke="white" stroke-width="0.701462" stroke-linecap="round" stroke-linejoin="round"/>
<path d="M279.148 135.485C279.611 136.916 280.157 138.318 280.783 139.685C281.924 142.015 282.65 143.167 288.253 142.957C293.855 142.748 327.26 140.783 333.519 140.234C339.778 139.685 346.518 138.903 348.891 136.358C350.26 134.96 351.232 133.217 351.707 131.311" stroke="white" stroke-width="0.701462" stroke-linecap="round" stroke-linejoin="round"/>
<path d="M336.497 126.79C335.173 127.018 333.701 127.219 332.048 127.394C327.226 127.903 321.592 128.119 314.988 128.454C300.802 129.175 278.042 130.235 260.002 130.718C220.452 131.778 213.816 131.617 170.473 131.634C164.513 131.404 158.549 131.965 152.734 133.303" stroke="white" stroke-width="0.701462" stroke-linecap="round" stroke-linejoin="round"/>
<path d="M135.26 141.553L132.27 146.236" stroke="white" stroke-width="0.701462" stroke-linecap="round" stroke-linejoin="round"/>
<path d="M276.405 26.4558C276.662 26.5755 276.662 26.7695 276.405 26.8891L273.726 28.1378C273.428 28.2575 273.095 28.2575 272.797 28.1378L270.118 26.8891C269.862 26.7695 269.862 26.5755 270.118 26.4558L272.797 25.2071C273.095 25.0874 273.428 25.0874 273.726 25.2071L276.405 26.4558Z" stroke="white" stroke-width="0.701462" stroke-miterlimit="10"/>
<path d="M201.931 21.7462C202.765 24.9884 203.288 28.3043 203.491 31.6478" stroke="white" stroke-width="0.701462" stroke-linecap="round" stroke-linejoin="round"/>
<path d="M173.726 38.9467C172.924 38.9553 172.278 39.614 172.278 40.4235C172.278 41.233 172.924 41.8916 173.726 41.9003L179.856 41.9003C180.657 41.8916 181.303 41.233 181.303 40.4235C181.303 39.614 180.657 38.9553 179.856 38.9467L173.726 38.9467Z" stroke="white" stroke-width="0.701462" stroke-linecap="round" stroke-linejoin="round"/>
<path d="M176.79 38.9467L176.79 41.9003" stroke="white" stroke-width="0.701462" stroke-linecap="round" stroke-linejoin="round"/>
<path d="M125.895 15.1239C111.122 15.0462 97.3397 12.9664 89.6433 12.9664C86.0781 12.9664 60.4097 13.6863 51.7347 13.8063C43.0596 13.9262 34.0282 18.8456 31.4138 20.0454C28.7994 21.2452 27.247 23.2846 24.046 27.2444C20.845 31.2042 18.1042 34.3233 16.4405 39.3627C13.8261 47.6415 10.6174 66.0199 10.6174 84.1529C10.6174 102.286 13.8259 120.664 16.4405 128.943C18.1042 133.982 20.845 137.102 24.046 141.061C27.2471 145.021 28.7995 147.061 31.4138 148.26C34.0281 149.46 43.0601 154.379 51.7347 154.499C60.4093 154.619 86.0782 155.339 89.6433 155.339C97.3397 155.339 111.122 153.26 125.896 153.182" stroke="white" stroke-width="0.701462" stroke-miterlimit="10" stroke-linecap="round"/>
<path d="M128.845 10.8757C128.845 10.8757 125.895 15.1225 126.291 17.9755C126.471 19.2767 128.277 18.9684 129.462 18.9684C130.646 18.9684 134.307 18.6778 134.307 18.6778" stroke="white" stroke-width="0.701462" stroke-linecap="round" stroke-linejoin="round"/>
<path d="M127.741 22.1801C128.39 21.6873 130.284 20.5723 131.314 19.6529C132.3 18.7736 134 18.686 135.901 18.5538C137.802 18.4216 137.974 17.5868 138.493 16.3996C139.011 15.2123 142.596 5.67246 142.769 4.6613C142.942 3.65016 142.38 3.12257 139.789 3.03459C137.197 2.94662 135.944 3.03459 133.309 5.40878C131.033 7.45974 127.26 13.1597 125.182 16.1574C124.649 16.9269 123.943 17.5579 123.121 17.9985L114.436 22.6405" stroke="white" stroke-width="0.701462" stroke-linecap="round" stroke-linejoin="round"/>
<path d="M114.179 14.6978C114.063 14.9216 113.969 15.1611 113.969 15.1611C113.576 16.2295 113.437 17.3756 113.561 18.5081C113.718 19.9343 114.075 21.3308 114.621 22.6558" stroke="white" stroke-width="0.701462" stroke-linecap="round" stroke-linejoin="round"/>
<path d="M192.688 15.3217C193.169 16.3973 193.542 17.5186 193.803 18.669C194.021 19.6679 194.16 20.6826 194.22 21.7037C195.561 24.9156 196.578 28.2558 197.256 31.6737" stroke="white" stroke-width="0.701462" stroke-linecap="round" stroke-linejoin="round"/>
<path d="M191.281 31.6998C189.97 28.1461 188.206 24.7798 186.034 21.6856" stroke="white" stroke-width="0.701462" stroke-linecap="round" stroke-linejoin="round"/>
<path d="M21.8655 49.479C40.939 47.9793 64.935 48.2951 75.2464 48.5293C76.5716 48.5646 77.8252 49.1436 78.7182 50.1327C79.6111 51.1219 80.0663 52.4357 79.9786 53.7712C79.603 59.8344 79.0664 70.8968 79.0664 84.1499C79.0664 97.403 79.603 108.465 79.9786 114.528C80.0663 115.864 79.6112 117.178 78.7182 118.167C77.8252 119.156 76.5716 119.735 75.2464 119.77C64.935 120.005 40.9389 120.32 21.8655 118.821" stroke="white" stroke-width="0.701462" stroke-linecap="round" stroke-linejoin="round"/>
<path d="M18.7798 34.2796C18.7798 34.2796 74.7868 31.5147 88.2768 31.0142C96.9278 30.6932 101.238 27.8259 105.607 25.4637" stroke="white" stroke-width="0.701462" stroke-linecap="round" stroke-linejoin="round"/>
<path d="M28.2289 22.3258C28.2289 22.3258 84.7592 21.003 89.6093 20.8268C94.7069 20.6417 98.1286 20.2111 101.376 22.4923C103.477 23.9678 104.879 24.9528 105.607 25.4647" stroke="white" stroke-width="0.701462" stroke-linecap="round" stroke-linejoin="round"/>
<path d="M152.734 34.9993L105.608 25.4647" stroke="white" stroke-width="0.701462" stroke-linecap="round" stroke-linejoin="round"/>
<path d="M114.621 22.6558L160.837 31.8157" stroke="white" stroke-width="0.701462" stroke-linecap="round" stroke-linejoin="round"/>
<path d="M12.7798 84.152C12.7775 83.997 12.8272 83.8457 12.9208 83.7227L15.0615 81.0344C15.1405 80.9231 15.2679 80.8571 15.4035 80.8571C15.5391 80.8571 15.6665 80.9231 15.7455 81.0344L17.8863 83.7227C18.0744 83.9774 18.0744 84.3266 17.8863 84.5813L15.7455 87.2696C15.6665 87.3809 15.5391 87.4469 15.4035 87.4469C15.2679 87.4469 15.1405 87.3809 15.0615 87.2696L12.9208 84.5813C12.8272 84.4584 12.7775 84.3071 12.7798 84.152Z" stroke="white" stroke-width="0.701462" stroke-linecap="round" stroke-linejoin="round"/>
<path d="M293.543 44.2064C292.741 44.1977 292.096 43.539 292.096 42.7295C292.096 41.92 292.741 41.2614 293.543 41.2527L299.673 41.2527C300.475 41.2614 301.12 41.92 301.12 42.7295C301.12 43.539 300.475 44.1977 299.673 44.2064L293.543 44.2064Z" stroke="white" stroke-width="0.701462" stroke-linecap="round" stroke-linejoin="round"/>
<path d="M296.608 44.2064L296.608 41.2527" stroke="white" stroke-width="0.701462" stroke-linecap="round" stroke-linejoin="round"/>
<path d="M239.491 38.7148C238.689 38.7235 238.044 39.3821 238.044 40.1916C238.044 41.0011 238.689 41.6598 239.491 41.6685L245.621 41.6685C246.423 41.6598 247.068 41.0011 247.068 40.1916C247.068 39.3821 246.423 38.7235 245.621 38.7148L239.491 38.7148Z" stroke="white" stroke-width="0.701462" stroke-linecap="round" stroke-linejoin="round"/>
<path d="M242.556 38.7148L242.556 41.6685" stroke="white" stroke-width="0.701462" stroke-linecap="round" stroke-linejoin="round"/>
<path d="M137.132 18.2874C148.482 18.22 224.595 18.1562 270.736 19.6317C296.239 20.4473 341.237 22.6506 341.237 22.6506" stroke="white" stroke-width="0.701462" stroke-linecap="round" stroke-linejoin="round"/>
<path d="M264.039 12.4195C264.039 12.4195 264.389 16.1954 264.389 19.4283C263.438 26.4317 264.372 23.6788 265.021 32.4279" stroke="white" stroke-width="0.701462" stroke-linecap="round" stroke-linejoin="round"/>
<path d="M246.494 32.0289C246.174 28.5968 245.579 25.1967 244.714 21.8618" stroke="white" stroke-width="0.701462" stroke-linecap="round" stroke-linejoin="round"/>
<path d="M334.649 34.9486C336.912 37.5112 336.485 40.0742 336.497 41.5128C336.547 47.3603 336.668 63.7748 336.668 84.151C336.668 104.527 336.547 120.942 336.497 126.789C336.485 128.228 336.912 130.791 334.649 133.353" stroke="white" stroke-width="0.701462" stroke-linecap="round" stroke-linejoin="round"/>
<path d="M139.01 15.1046C235.663 15.3269 146.009 15.2826 229.387 15.2826C237.083 15.2798 244.768 14.6988 252.378 13.5443C258.46 12.4816 261.383 12.3635 271.441 12.3635L296.912 12.3635C303.812 12.3635 314.102 14.4889 322.406 16.8505C330.709 19.2121 341.169 21.3365 344.886 25.0223C346.161 26.2869 349.721 29.5721 350.613 32.5581C351.492 35.5006 356.384 53.8568 356.384 84.1499C356.384 114.443 351.492 132.799 350.613 135.741C349.721 138.727 346.161 142.013 344.886 143.277C341.169 146.963 330.709 149.088 322.406 151.449C314.102 153.811 303.812 155.936 296.912 155.936L271.441 155.936C261.383 155.936 258.459 155.818 252.378 154.755C244.767 153.601 237.082 153.02 229.386 153.017C146.009 153.017 235.663 152.973 139.01 153.195" stroke="white" stroke-width="0.701462" stroke-miterlimit="10" stroke-linecap="round"/>
<path d="M279.148 32.8176C279.611 31.3866 280.157 29.9841 280.783 28.6176C281.924 26.2876 282.65 25.1353 288.253 25.3449C293.855 25.5544 327.26 27.519 333.519 28.0683C339.778 28.6175 346.518 29.3994 348.891 31.9438C350.26 33.342 351.232 35.085 351.707 36.9915" stroke="white" stroke-width="0.701462" stroke-linecap="round" stroke-linejoin="round"/>
<path d="M315.453 39.847L315.453 84.1503L315.453 128.454" stroke="white" stroke-width="0.701462" stroke-linecap="round" stroke-linejoin="round"/>
<path d="M278.606 38.2049L278.606 84.1503L278.606 130.096" stroke="white" stroke-width="0.701462" stroke-linecap="round" stroke-linejoin="round"/>
<path d="M260.002 37.5846L260.002 84.1515L260.002 130.719" stroke="white" stroke-width="0.701462" stroke-linecap="round" stroke-linejoin="round"/>
<path d="M336.497 41.5137C338.71 41.866 340.885 42.4342 342.989 43.2101C343.709 43.4842 343.978 43.5868 344.24 44.9485C346.898 58.5612 347.53 72.1906 347.53 84.1524C347.53 96.1142 346.898 109.743 344.24 123.356C343.978 124.718 343.709 124.82 342.989 125.094C340.885 125.87 338.71 126.439 336.497 126.791" stroke="white" stroke-width="0.701462" stroke-linecap="round" stroke-linejoin="round"/>
<path d="M170.474 36.6682C170.474 36.6682 167.114 61.3825 167.114 84.1509C167.114 106.919 170.474 131.634 170.474 131.634" stroke="white" stroke-width="0.701462" stroke-linecap="round" stroke-linejoin="round"/>
<path d="M336.497 41.5127C335.173 41.2845 333.701 41.0831 332.048 40.9084C327.226 40.399 321.592 40.1832 314.988 39.8478C300.802 39.1268 278.042 38.0677 260.002 37.5843C220.452 36.5247 213.816 36.6852 170.473 36.6685C164.513 36.8984 158.549 36.3371 152.734 34.9989" stroke="white" stroke-width="0.701462" stroke-linecap="round" stroke-linejoin="round"/>
<path d="M332.046 40.9076L332.046 84.1508L332.046 127.394" stroke="white" stroke-width="0.701462" stroke-linecap="round" stroke-linejoin="round"/>
<path d="M351.479 36.1737L349.644 38.2048C349.161 38.7395 348.956 39.4721 349.089 40.1829C351.724 54.6907 353.11 69.4018 353.229 84.151C353.11 98.9003 351.724 113.611 349.088 128.119C348.955 128.83 349.161 129.563 349.644 130.097L351.478 132.128" stroke="white" stroke-width="0.701462" stroke-linecap="round" stroke-linejoin="round"/>
<path d="M338.111 28.5372C338.304 30.0654 338.021 31.6165 337.301 32.9748C336.297 35.1708 334.648 35.2 329.965 34.9597C244.688 30.5832 194.778 31.841 156.605 31.841C153.714 31.841 153.106 33.7955 152.734 34.9997C146.932 53.7613 146.847 83.651 146.848 84.152C146.847 84.6527 146.932 114.543 152.734 133.304C153.106 134.508 153.714 136.463 156.605 136.463C194.778 136.463 244.688 137.721 329.965 133.344C334.648 133.104 336.297 133.133 337.301 135.329C338.021 136.687 338.304 138.239 338.111 139.767" stroke="white" stroke-width="0.701462" stroke-linecap="round" stroke-linejoin="round"/>
<path d="M259.709 32.2978C259.349 28.7893 258.596 25.4715 258.083 24.5271C257.356 23.1899 255.892 22.221 253.038 22.0677C248.588 21.8289 231.265 21.7068 222.072 21.7068C177.906 21.7068 180.491 21.6472 165.484 21.7139C165.484 21.7139 154.154 21.7577 141.162 21.9117C128.169 22.0658 117.503 22.5153 113.896 22.6622C110.289 22.809 107.56 23.5202 104.567 26.3839C101.573 29.2476 95.1078 35.8423 92.7271 45.0942C90.3463 54.346 89.431 63.2108 89.431 84.1518C89.431 105.093 90.3459 113.957 92.7271 123.209C95.1082 132.462 101.573 139.056 104.567 141.92C107.561 144.783 110.289 145.494 113.896 145.641C117.503 145.788 128.169 146.238 141.162 146.392C154.154 146.546 165.484 146.59 165.484 146.59C180.491 146.656 177.906 146.597 222.072 146.597C231.265 146.597 248.588 146.475 253.038 146.236C255.892 146.082 257.356 145.113 258.083 143.776C258.596 142.832 259.349 139.514 259.709 136.006" stroke="white" stroke-width="0.701462" stroke-linecap="round" stroke-linejoin="round"/>
<path d="M318.428 84.1511C318.428 83.8031 317.899 81.6423 328.396 81.6941L328.396 86.608C317.899 86.6599 318.428 84.4992 318.428 84.1511Z" stroke="white" stroke-width="0.701462" stroke-linecap="round" stroke-linejoin="round"/>
<path d="M174.209 48.8602C174.471 46.94 176.1 45.5118 178.02 45.5181C203.92 45.5551 211.281 45.5229 251.379 46.4276C253.467 46.4743 255.135 48.1959 255.136 50.304L255.136 118C255.135 120.108 253.467 121.83 251.379 121.877C211.281 122.781 203.92 122.749 178.02 122.786C176.1 122.792 174.471 121.364 174.209 119.444C172.6 107.75 171.796 95.9583 171.801 84.1524C171.802 72.3465 172.606 60.5547 174.209 48.8602Z" stroke="white" stroke-width="0.701462" stroke-linecap="round" stroke-linejoin="round"/>
<path d="M281.632 84.1516L281.632 51.6777C281.633 50.6214 282.059 49.6109 282.814 48.8791C283.568 48.1473 284.585 47.7572 285.63 47.7989C293.528 48.123 300.869 48.3675 308.636 48.5327C310.726 48.5768 312.397 50.3006 312.396 52.4111L312.396 115.893C312.397 118.003 310.726 119.727 308.636 119.771C300.869 119.936 293.528 120.181 285.63 120.505C284.585 120.547 283.568 120.157 282.814 119.425C282.059 118.693 281.633 117.682 281.632 116.626L281.632 84.1516Z" stroke="white" stroke-width="0.701462" stroke-linecap="round" stroke-linejoin="round"/>
<path d="M358.093 84.1511C358.093 53.6699 353.173 35.1527 352.253 32.062C351.286 28.8231 347.868 25.5387 346.482 24.1806C346.329 24.0307 346.199 23.9031 346.084 23.789C342.676 20.4134 334.701 18.3604 327.871 16.5478C326.154 16.0923 324.472 15.6456 322.872 15.1909C314.53 12.8188 304.052 10.635 296.912 10.635L271.439 10.635C261.355 10.635 258.314 10.7542 252.082 11.8408C244.57 12.9778 236.985 13.5506 229.39 13.5546C211.218 13.5546 201.265 13.557 195.811 13.5582C176.404 13.5627 213.847 13.5543 141.499 13.3849C142.715 10.158 144.316 5.77748 144.456 4.95264C144.572 4.3661 144.508 3.7576 144.273 3.20868C144.043 2.71153 143.668 2.29718 143.199 2.02124C142.156 1.51382 141.007 1.26981 139.85 1.3102C136.928 1.21127 135.209 1.38549 132.168 4.11606C130.103 5.97416 127.079 10.3645 125.011 13.3874C116.944 13.3001 109.2 12.6317 102.582 12.0601C97.5031 11.6214 93.0215 11.2328 89.6449 11.2328C87.8634 11.2328 80.7473 11.4088 72.9859 11.6007C64.9172 11.8002 56.1155 12.0178 51.7125 12.0785C43.5849 12.1908 35.282 16.2542 31.7986 17.9478C31.3412 18.1702 30.9811 18.3449 30.7086 18.4706C27.7927 19.8049 26.01 22.0703 23.2118 25.536C23.0513 25.7345 22.8868 25.9382 22.7173 26.1482C22.4643 26.4616 22.2139 26.7698 21.9648 27.0768C19.1008 30.6051 16.458 33.8392 14.8127 38.8318C12.1362 47.3054 8.90863 65.8668 8.90863 84.1506C8.90864 102.435 12.1363 120.996 14.8194 129.49C16.4582 134.462 19.1009 137.696 21.9648 141.224C22.2137 141.531 22.4641 141.84 22.7181 142.154C22.9713 142.467 23.2116 142.765 23.2116 142.765C26.0098 146.231 27.7925 148.496 30.7045 149.829C30.9809 149.956 31.341 150.131 31.7984 150.353C35.2818 152.047 43.5847 156.111 51.7123 156.223C56.1153 156.283 64.917 156.501 72.9857 156.7C80.747 156.892 87.8632 157.068 89.6447 157.068C93.0215 157.068 97.503 156.68 102.582 156.241C109.202 155.669 116.949 155.001 125.01 154.914C127.079 157.937 130.103 162.327 132.169 164.187C135.209 166.916 136.929 167.09 139.85 166.991C141.007 167.032 142.156 166.788 143.199 166.28C143.669 166.004 144.043 165.59 144.273 165.093C144.508 164.545 144.572 163.939 144.457 163.354C144.316 162.524 142.715 158.144 141.499 154.917C188.239 154.809 189.413 154.813 189.897 154.592C189.467 154.789 189.028 154.747 229.39 154.747C236.986 154.751 244.571 155.324 252.083 156.461C258.314 157.548 261.355 157.667 271.439 157.667L296.912 157.667C304.052 157.667 314.531 155.483 322.873 153.111C324.472 152.656 326.155 152.21 327.872 151.754C334.702 149.942 342.677 147.889 346.089 144.509C346.199 144.399 346.33 144.271 346.482 144.121C347.868 142.763 351.287 139.479 352.253 136.239C353.173 133.149 358.093 114.632 358.093 84.1511Z" stroke="white" stroke-width="0.701462" stroke-miterlimit="3"/>
<path d="M357.665 84.1514C357.665 53.7161 352.753 35.2408 351.843 32.1868C350.915 29.0784 347.598 25.8765 346.184 24.4906C346.031 24.341 345.9 24.2121 345.785 24.0974C342.479 20.8237 334.657 18.7955 327.762 16.9656C326.046 16.5103 324.359 16.0626 322.756 15.6067C314.423 13.2372 303.99 11.0669 296.911 11.0669L271.438 11.0669C261.361 11.0669 258.349 11.1862 252.155 12.2664C244.619 13.4076 237.009 13.9826 229.389 13.9866C211.218 13.9866 201.265 13.9889 195.811 13.9901C176.362 13.9946 214.036 13.9861 140.878 13.8154C142.113 10.5559 143.893 5.71031 144.034 4.87865C144.136 4.37812 144.083 3.85823 143.884 3.38869C143.69 2.97086 143.374 2.62299 142.979 2.39197C141.998 1.92377 140.919 1.7009 139.835 1.74222C136.996 1.64614 135.393 1.79868 132.452 4.43905C130.391 6.29385 127.317 10.776 125.233 13.8221C117.066 13.7444 109.223 13.0678 102.545 12.491C97.4586 12.0516 92.9984 11.6652 89.6441 11.6652C87.8695 11.6652 80.7619 11.841 72.9955 12.0331C64.9282 12.2325 56.1236 12.4502 51.7176 12.511C43.6988 12.6216 35.4786 16.6378 31.9832 18.3375C31.5274 18.5591 31.1624 18.7364 30.8843 18.8646C28.0781 20.1486 26.3593 22.3205 23.5424 25.8095C23.3017 26.1077 23.0479 26.4216 23.0479 26.4216C22.7945 26.7357 22.5434 27.0446 22.2949 27.3511C19.4284 30.8822 16.8354 34.061 15.2194 38.9637C12.5583 47.389 9.33559 65.9054 9.3356 84.1511C9.3356 102.397 12.5583 120.913 15.2244 129.354C16.8354 134.241 19.4284 137.42 22.2949 140.951C22.5437 141.258 22.7945 141.567 23.0487 141.882C23.3021 142.195 23.5425 142.493 23.5425 142.493C26.3593 145.982 28.0782 148.154 30.8814 149.436C31.1627 149.566 31.5274 149.743 31.9833 149.965C35.4786 151.664 43.6988 155.681 51.7176 155.791C56.1236 155.852 64.9283 156.07 72.9956 156.269C80.7619 156.461 87.8696 156.637 89.6441 156.637C92.9984 156.637 97.4587 156.251 102.545 155.811C109.225 155.234 117.07 154.557 125.233 154.48C127.317 157.527 130.391 162.008 132.453 163.865C135.393 166.504 136.996 166.657 139.835 166.56C140.919 166.602 141.998 166.379 142.979 165.911C143.374 165.68 143.69 165.332 143.884 164.914C144.083 164.446 144.136 163.927 144.035 163.428C143.893 162.592 142.113 157.747 140.878 154.487C188.359 154.377 189.345 154.371 189.718 154.2C189.403 154.345 189.155 154.316 229.389 154.316C237.01 154.32 244.619 154.895 252.155 156.036C258.349 157.116 261.361 157.236 271.438 157.236L296.912 157.236C303.99 157.236 314.424 155.065 322.756 152.696C324.359 152.24 326.046 151.792 327.762 151.337C334.657 149.507 342.479 147.479 345.788 144.202C345.9 144.091 346.031 143.962 346.184 143.812C347.598 142.426 350.915 139.224 351.843 136.115C352.753 133.062 357.665 114.587 357.665 84.1514Z" stroke="white" stroke-width="0.701462" stroke-miterlimit="3"/>
<path d="M357.238 84.1513C357.238 53.7616 352.333 35.3284 351.434 32.3113C350.545 29.3332 347.329 26.214 345.887 24.8002C345.735 24.6511 345.602 24.5207 345.486 24.4055C342.283 21.2336 334.614 19.2301 327.654 17.383C325.939 16.9279 324.248 16.4793 322.641 16.0221C314.318 13.6554 303.931 11.4981 296.912 11.4981L271.439 11.4981C261.368 11.4981 258.386 11.6176 252.228 12.6914C244.668 13.8369 237.035 14.4141 229.39 14.4181C211.219 14.4181 201.266 14.4204 195.812 14.4216C176.321 14.4261 214.225 14.4175 140.257 14.2455C141.491 11.0054 143.472 5.63995 143.614 4.80423C143.7 4.38959 143.659 3.95818 143.496 3.56792C143.338 3.22941 143.081 2.94802 142.759 2.76181C141.84 2.33315 140.833 2.13147 139.821 2.17344C137.065 2.08012 135.577 2.21108 132.737 4.76114C130.682 6.61093 127.558 11.1844 125.456 14.2556C117.189 14.1886 109.247 13.5029 102.51 12.9209C97.4155 12.4806 92.9765 12.0967 89.6448 12.0967C87.8772 12.0967 80.7781 12.2723 73.0068 12.4644C64.9409 12.6638 56.133 12.8816 51.7242 12.9424C43.8141 13.0515 35.6766 17.0212 32.1694 18.7262C31.7152 18.9471 31.3459 19.1266 31.0615 19.2576C28.3652 20.4914 26.7101 22.5699 23.8745 26.082C23.6339 26.3802 23.3801 26.6941 23.3801 26.6941C22.9993 27.166 22.6263 27.6245 22.6263 27.6245C19.7572 31.1593 17.2136 34.2819 15.6275 39.0946C12.9816 47.4717 9.76387 65.9431 9.76387 84.1512C9.76387 102.359 12.9816 120.831 15.6308 129.218C17.2138 134.02 19.7572 137.143 22.6263 140.677C22.8751 140.984 23.1262 141.293 23.3806 141.609C23.6342 141.922 23.8745 142.22 23.8745 142.22C26.7102 145.732 28.3652 147.811 31.0596 149.043C31.346 149.175 31.7153 149.355 32.1695 149.576C35.6766 151.281 43.8142 155.25 51.7242 155.36C56.1331 155.42 64.9409 155.638 73.0069 155.838C80.7781 156.03 87.8773 156.205 89.6449 156.205C92.9766 156.205 97.4155 155.821 102.51 155.381C109.249 154.799 117.192 154.113 125.456 154.046C127.558 157.118 130.682 161.691 132.738 163.542C135.577 166.091 137.065 166.222 139.821 166.128C140.833 166.171 141.84 165.969 142.759 165.54C143.081 165.354 143.338 165.073 143.496 164.734C143.659 164.345 143.7 163.914 143.614 163.5C143.472 162.662 141.491 157.297 140.258 154.056C188.824 153.944 189.289 153.926 189.546 153.805C189.345 153.9 188.934 153.884 229.39 153.884C237.035 153.888 244.669 154.465 252.229 155.611C258.386 156.684 261.368 156.804 271.439 156.804L296.913 156.804C303.931 156.804 314.318 154.647 322.641 152.28C324.248 151.823 325.939 151.375 327.654 150.92C334.615 149.072 342.284 147.069 345.488 143.895C345.602 143.782 345.735 143.651 345.887 143.502C347.33 142.088 350.546 138.969 351.435 135.991C352.333 132.974 357.238 114.541 357.238 84.1513Z" stroke="white" stroke-width="0.701462" stroke-miterlimit="3"/>
<path d="M356.81 84.1508C356.81 53.8072 351.912 35.4157 351.024 32.4353C350.174 29.5877 347.059 26.5511 345.588 25.1094C345.36 24.8863 345.185 24.7132 345.185 24.7132C342.086 21.6431 334.569 19.6643 327.544 17.8C325.83 17.3451 324.136 16.8955 322.524 16.4371C314.21 14.0731 303.869 11.9297 296.911 11.9297L271.438 11.9297C261.374 11.9297 258.421 12.0492 252.3 13.1166C244.716 14.2663 237.058 14.8454 229.389 14.8493C211.218 14.8493 201.265 14.8517 195.81 14.8529C176.278 14.8574 214.411 14.8487 139.634 14.6754C140.842 11.5247 143.049 5.56711 143.191 4.72967C143.263 4.40093 143.233 4.05805 143.106 3.74701C142.983 3.48786 142.785 3.27298 142.538 3.13162C141.681 2.74283 140.745 2.56231 139.806 2.60455C137.132 2.51407 135.76 2.62337 133.02 5.08303C131.008 6.8939 127.91 11.4277 125.791 14.5243L125.678 14.6883C117.311 14.632 109.269 13.9372 102.472 13.3501C97.3703 12.9099 92.9528 12.5276 89.6437 12.5276C87.883 12.5276 80.7924 12.7029 73.0161 12.8952C64.9516 13.0945 56.1407 13.3123 51.7289 13.3732C43.9276 13.4808 35.8728 17.4035 32.3539 19.1144C31.9012 19.3345 31.5272 19.5163 31.2369 19.6497C28.6503 20.8332 27.0591 22.8182 24.2048 26.3536C23.9641 26.6518 23.7104 26.9657 23.7104 26.9657C23.3289 27.4384 22.9559 27.8971 22.9559 27.8971C20.0841 31.4351 17.5905 34.5017 16.0337 39.2247C13.4031 47.5534 10.1903 65.9797 10.1903 84.1501C10.1903 102.321 13.4031 120.747 16.0353 129.081C17.5905 133.798 20.0841 136.865 22.9559 140.403C23.3289 140.863 23.7107 141.335 23.7107 141.335C23.9644 141.649 24.2048 141.947 24.2048 141.947C27.0591 145.482 28.6504 147.467 31.236 148.65C31.5272 148.784 31.9012 148.966 32.3539 149.186C35.8728 150.897 43.9276 154.82 51.7289 154.927C56.1407 154.988 64.9516 155.206 73.0161 155.405C80.7925 155.598 87.883 155.773 89.6437 155.773C92.9529 155.773 97.3703 155.391 102.472 154.95C109.27 154.363 117.312 153.669 125.678 153.612L125.791 153.776C127.91 156.873 131.008 161.407 133.021 163.218C135.76 165.677 137.132 165.786 139.806 165.696C140.745 165.738 141.681 165.557 142.538 165.169C142.785 165.027 142.983 164.812 143.106 164.553C143.233 164.243 143.263 163.9 143.192 163.572C143.049 162.733 140.842 156.776 139.634 153.625C188.94 153.511 189.219 153.481 189.363 153.412C189.277 153.453 189.06 153.451 229.389 153.451C237.058 153.455 244.716 154.034 252.3 155.184C258.421 156.251 261.374 156.371 271.438 156.371L296.911 156.371C303.869 156.371 314.21 154.227 322.524 151.863C324.136 151.405 325.83 150.955 327.544 150.5C334.569 148.635 342.086 146.657 345.186 143.586C345.302 143.471 345.436 143.339 345.588 143.191C347.058 141.749 350.174 138.712 351.024 135.865C351.912 132.886 356.81 114.494 356.81 84.1508Z" stroke="white" stroke-width="0.701462" stroke-miterlimit="3"/>
<path d="M356.383 84.1519C356.383 53.8542 351.492 35.5045 350.615 32.5609C349.722 29.5695 346.159 26.2908 344.887 25.0225C341.165 21.3369 330.712 19.215 322.408 16.8537C314.104 14.4925 303.809 12.3624 296.912 12.3624L271.439 12.3624C261.381 12.3624 258.458 12.4822 252.374 13.5431C244.766 14.697 237.083 15.2783 229.39 15.2821C146.01 15.2821 235.663 15.33 139.01 15.1067C140.156 12.147 142.629 5.49414 142.771 4.65642C142.945 3.65131 142.384 3.12478 139.792 3.03704C137.201 2.94932 135.944 3.03705 133.306 5.40623C131.267 7.2411 128.043 11.9955 125.902 15.1226L125.894 15.1226C111.12 15.0429 97.3402 12.9607 89.6445 12.9607C86.0732 12.9607 60.4107 13.6866 51.7354 13.8068C43.0602 13.927 34.0294 18.8405 31.4141 20.0451C28.799 21.2417 27.2423 23.2838 24.0426 27.2406C20.8427 31.2053 18.101 34.3243 16.4417 39.358C13.8264 47.6384 10.6186 66.02 10.6186 84.1523C10.6186 102.285 13.8264 120.666 16.4417 128.947C18.1006 133.98 20.8427 137.099 24.0426 141.064C27.2423 145.021 28.799 147.063 31.4141 148.259C34.0294 149.464 43.0604 154.378 51.7355 154.498C60.4105 154.618 86.0732 155.344 89.6445 155.344C97.3403 155.344 111.12 153.262 125.894 153.182L125.902 153.182C128.043 156.309 131.267 161.064 133.306 162.898C135.944 165.268 137.201 165.355 139.792 165.268C142.384 165.18 142.945 164.653 142.771 163.648C142.629 162.811 140.156 156.158 139.01 153.198C235.663 152.975 146.01 153.022 229.39 153.022C237.083 153.026 244.766 153.608 252.374 154.762C258.458 155.822 261.381 155.942 271.439 155.942L296.912 155.942C303.809 155.942 314.105 153.812 322.408 151.451C330.712 149.089 341.165 146.968 344.887 143.282C346.159 142.014 349.722 138.735 350.615 135.744C351.492 132.799 356.383 114.449 356.383 84.1519Z" stroke="white" stroke-width="0.701462" stroke-miterlimit="3"/>
<path d="M135.26 26.7485L132.27 22.0654" stroke="white" stroke-width="0.701462" stroke-linecap="round" stroke-linejoin="round"/>
<g filter="url(#filter0_d_507_9959)">
<path fill-rule="evenodd" clip-rule="evenodd" d="M16.3277 39.6293C13.7221 47.8572 10.5273 66.1366 10.5273 84.1544C10.5273 102.173 13.723 120.445 16.337 128.678C17.8546 133.276 20.2819 136.259 23.1356 139.767C23.3896 140.08 23.6471 140.396 23.9075 140.718C24.0693 140.918 24.2269 141.113 24.3807 141.304L24.3807 141.304C25.8334 143.103 26.9409 144.475 28.0004 145.537L92.9582 147.155C98.2927 147.196 99.8959 146.098 103.038 143.945C103.672 143.511 104.369 143.033 105.172 142.514C104.817 142.229 104.459 141.916 104.098 141.571C101.116 138.726 94.6776 132.174 92.3062 122.98C89.9348 113.786 89.0237 104.963 89.0237 84.1542C89.0237 63.3455 89.9306 54.5231 92.3019 45.3294C94.6733 36.1357 101.111 29.5828 104.094 26.737C104.474 26.3741 104.85 26.046 105.224 25.7494C105.224 25.7439 105.224 25.7384 105.225 25.7328C104.399 25.1998 103.686 24.7109 103.038 24.2668C99.8957 22.1142 98.2925 21.0157 92.958 21.0574L28.0931 22.6729C26.9961 23.7532 25.8576 25.1625 24.3446 27.0356L24.3396 27.0418L23.8981 27.588C23.6438 27.9024 23.3924 28.2115 23.1442 28.5166L23.1433 28.5177C20.2816 32.0356 17.8484 35.0268 16.3277 39.6293Z" fill="#FF0000" fill-opacity="0.4" shape-rendering="crispEdges"/>
<path d="M16.3277 39.6293L15.9228 39.4955L15.9212 39.5006L16.3277 39.6293ZM16.337 128.678L15.9307 128.807L15.9322 128.811L16.337 128.678ZM23.1356 139.767L23.4663 139.498L23.1356 139.767ZM23.9075 140.718L23.576 140.986L23.576 140.986L23.9075 140.718ZM24.3807 141.304L24.049 141.572L24.0632 141.589L24.0792 141.605L24.3807 141.304ZM24.3807 141.304L24.7124 141.036L24.6981 141.018L24.6821 141.002L24.3807 141.304ZM28.0004 145.537L27.6986 145.838L27.8191 145.959L27.9898 145.963L28.0004 145.537ZM92.9582 147.155L92.9476 147.581L92.9549 147.581L92.9582 147.155ZM103.038 143.945L103.279 144.297L103.279 144.297L103.038 143.945ZM105.172 142.514L105.403 142.871L105.9 142.55L105.438 142.181L105.172 142.514ZM104.098 141.571L104.393 141.263L104.393 141.263L104.098 141.571ZM92.3062 122.98L91.8934 123.086L92.3062 122.98ZM92.3019 45.3294L92.7148 45.4359L92.3019 45.3294ZM104.094 26.737L104.388 27.0454L104.094 26.737ZM105.224 25.7494L105.489 26.0835L105.649 25.9566L105.651 25.7524L105.224 25.7494ZM105.225 25.7328L105.651 25.7363L105.653 25.5019L105.456 25.3747L105.225 25.7328ZM103.038 24.2668L102.797 24.6185L103.038 24.2668ZM92.958 21.0574L92.9546 20.631L92.9473 20.6312L92.958 21.0574ZM28.0931 22.6729L28.0824 22.2467L27.914 22.2509L27.7939 22.3691L28.0931 22.6729ZM24.3446 27.0356L24.0129 26.7677L24.0128 26.7678L24.3446 27.0356ZM24.3396 27.0418L24.6711 27.3098L24.6713 27.3095L24.3396 27.0418ZM23.8981 27.588L24.2296 27.8561L24.2297 27.856L23.8981 27.588ZM23.1442 28.5166L22.8135 28.2476L22.8123 28.249L23.1442 28.5166ZM23.1433 28.5177L23.474 28.7867L23.4752 28.7852L23.1433 28.5177ZM10.9537 84.1544C10.9537 66.1737 14.1436 47.9384 16.7341 39.758L15.9212 39.5006C13.3007 47.776 10.101 66.0995 10.101 84.1544L10.9537 84.1544ZM16.7434 128.549C14.1444 120.363 10.9537 102.136 10.9537 84.1544L10.101 84.1544C10.101 102.21 13.3015 120.526 15.9307 128.807L16.7434 128.549ZM23.4663 139.498C20.6102 135.987 18.2319 133.059 16.7419 128.544L15.9322 128.811C17.4773 133.493 19.9536 136.531 22.8048 140.036L23.4663 139.498ZM24.239 140.45C23.9781 140.127 23.7203 139.81 23.4663 139.498L22.8048 140.036C23.059 140.349 23.316 140.665 23.576 140.986L24.239 140.45ZM24.7124 141.036C24.5587 140.846 24.401 140.65 24.239 140.45L23.576 140.986C23.7377 141.186 23.8952 141.381 24.049 141.572L24.7124 141.036ZM24.6821 141.002L24.6821 141.002L24.0792 141.605L24.0792 141.605L24.6821 141.002ZM28.3023 145.236C27.262 144.193 26.1701 142.841 24.7124 141.036L24.049 141.572C25.4967 143.365 26.6197 144.756 27.6986 145.838L28.3023 145.236ZM92.9688 146.728L28.011 145.111L27.9898 145.963L92.9476 147.581L92.9688 146.728ZM102.797 143.594C101.217 144.676 100.075 145.456 98.6727 145.973C97.2782 146.487 95.6001 146.749 92.9615 146.728L92.9549 147.581C95.6508 147.602 97.4416 147.336 98.9677 146.773C100.486 146.213 101.716 145.368 103.279 144.297L102.797 143.594ZM104.94 142.156C104.132 142.679 103.431 143.159 102.797 143.594L103.279 144.297C103.913 143.862 104.606 143.388 105.403 142.871L104.94 142.156ZM103.804 141.88C104.173 142.232 104.54 142.553 104.905 142.846L105.438 142.181C105.093 141.904 104.745 141.6 104.393 141.263L103.804 141.88ZM91.8934 123.086C94.2965 132.403 100.813 139.026 103.804 141.88L104.393 141.263C101.42 138.427 95.0587 131.944 92.719 122.873L91.8934 123.086ZM88.5974 84.1542C88.5974 104.974 89.5084 113.84 91.8934 123.086L92.719 122.873C90.3613 113.733 89.4501 104.952 89.4501 84.1542L88.5974 84.1542ZM91.8891 45.2229C89.5041 54.4696 88.5974 63.335 88.5974 84.1542L89.4501 84.1542C89.4501 63.3559 90.357 54.5767 92.7148 45.4359L91.8891 45.2229ZM103.8 26.4285C100.808 29.2833 94.2922 35.9062 91.8891 45.2229L92.7148 45.4359C95.0544 36.3651 101.415 29.8824 104.388 27.0454L103.8 26.4285ZM104.959 25.4154C104.575 25.7207 104.189 26.0574 103.8 26.4285L104.388 27.0454C104.76 26.6908 105.126 26.3714 105.489 26.0835L104.959 25.4154ZM105.651 25.7524C105.651 25.7468 105.651 25.7415 105.651 25.7363L104.798 25.7293C104.798 25.7352 104.798 25.741 104.798 25.7465L105.651 25.7524ZM105.456 25.3747C104.636 24.8452 103.927 24.3593 103.278 23.9151L102.797 24.6185C103.444 25.0624 104.162 25.5544 104.993 26.0909L105.456 25.3747ZM103.278 23.9151C101.716 22.8445 100.486 21.9992 98.9675 21.4392C97.4413 20.8765 95.6506 20.61 92.9546 20.6311L92.9613 21.4838C95.5999 21.4631 97.278 21.725 98.6725 22.2393C100.074 22.7562 101.217 23.5365 102.797 24.6185L103.278 23.9151ZM92.9473 20.6312L28.0824 22.2467L28.1037 23.0991L92.9686 21.4836L92.9473 20.6312ZM24.6762 27.3035C26.1947 25.4236 27.3163 24.0361 28.3922 22.9767L27.7939 22.3691C26.6758 23.4702 25.5204 24.9014 24.0129 26.7677L24.6762 27.3035ZM24.6713 27.3095L24.6764 27.3033L24.0128 26.7678L24.0078 26.774L24.6713 27.3095ZM24.2297 27.856L24.6711 27.3098L24.008 26.7738L23.5666 27.32L24.2297 27.856ZM23.4749 28.7856C23.7231 28.4806 23.9749 28.1711 24.2296 27.8561L23.5667 27.3199C23.3128 27.6338 23.0617 27.9424 22.8135 28.2476L23.4749 28.7856ZM23.4752 28.7852L23.4761 28.7841L22.8123 28.249L22.8114 28.2502L23.4752 28.7852ZM16.7325 39.763C18.2256 35.2439 20.6099 32.3077 23.474 28.7867L22.8126 28.2487C19.9534 31.7635 17.4711 34.8097 15.9229 39.4955L16.7325 39.763Z" fill="#FF0000"/>
</g>
<defs>
<filter id="filter0_d_507_9959" x="0.721236" y="11.2506" width="114.558" height="145.711" filterUnits="userSpaceOnUse" color-interpolation-filters="sRGB">
<feFlood flood-opacity="0" result="BackgroundImageFix"/>
<feColorMatrix in="SourceAlpha" type="matrix" values="0 0 0 0 0 0 0 0 0 0 0 0 0 0 0 0 0 0 127 0" result="hardAlpha"/>
<feOffset/>
<feGaussianBlur stdDeviation="4.68967"/>
<feComposite in2="hardAlpha" operator="out"/>
<feColorMatrix type="matrix" values="0 0 0 0 1 0 0 0 0 0 0 0 0 0 0 0 0 0 1 0"/>
<feBlend mode="normal" in2="BackgroundImageFix" result="effect1_dropShadow_507_9959"/>
<feBlend mode="normal" in="SourceGraphic" in2="effect1_dropShadow_507_9959" result="shape"/>
</filter>
</defs>
</svg>
