<svg width="24" height="24" viewBox="0 0 24 24" fill="none" xmlns="http://www.w3.org/2000/svg">
<path d="M1.61621 16.3848V14.3848H11.7002L2.88521 7.44577V10.8848H1.88521V5.88477H2.26921L14.3852 12.5888V5.38477H17.9232L22.3852 10.7308V16.3848H20.1542C20.3722 17.1154 20.2472 17.7981 19.7792 18.4328C19.3112 19.0674 18.6799 19.3848 17.8852 19.3848C17.0905 19.3848 16.4592 19.0674 15.9912 18.4328C15.5232 17.7981 15.3982 17.1154 15.6162 16.3848H8.65421C8.87221 17.1154 8.74721 17.7981 8.27921 18.4328C7.81121 19.0668 7.17988 19.3838 6.38521 19.3838C5.58988 19.3838 4.95854 19.0668 4.49121 18.4328C4.02321 17.7981 3.89821 17.1151 4.11621 16.3838L1.61621 16.3848ZM6.38521 18.4998C6.81854 18.4998 7.17688 18.3518 7.46021 18.0558C7.74354 17.7598 7.88521 17.4078 7.88521 16.9998C7.88521 16.5918 7.74354 16.2398 7.46021 15.9438C7.17688 15.6478 6.81854 15.4998 6.38521 15.4998C5.95188 15.4998 5.59354 15.6478 5.31021 15.9438C5.02688 16.2398 4.88521 16.5918 4.88521 16.9998C4.88521 17.4078 5.02688 17.7598 5.31021 18.0558C5.59354 18.3518 5.95188 18.4998 6.38521 18.4998ZM17.8852 18.4998C18.3185 18.4998 18.6765 18.3518 18.9592 18.0558C19.2419 17.7598 19.3839 17.4078 19.3852 16.9998C19.3865 16.5918 19.2449 16.2398 18.9602 15.9438C18.6755 15.6478 18.3172 15.4998 17.8852 15.4998C17.4532 15.4998 17.0949 15.6478 16.8102 15.9438C16.5255 16.2398 16.3839 16.5918 16.3852 16.9998C16.3865 17.4078 16.5282 17.7598 16.8102 18.0558C17.0922 18.3518 17.4505 18.4998 17.8852 18.4998ZM15.3852 10.7298H21.0932L17.4362 6.38477H15.3862L15.3852 10.7298Z" fill="white"/>
</svg>
