<svg width="70" height="70" viewBox="0 0 70 70" fill="none" xmlns="http://www.w3.org/2000/svg">
<path d="M4.71289 47.7894V41.9561H34.1246L8.41414 21.7173V31.7477H5.49747V17.1644H6.61747L41.9558 36.7177V15.7061H52.275L65.2891 31.2986V47.7894H58.7821C59.4179 49.9205 59.0533 51.9116 57.6883 53.7627C56.3233 55.6138 54.4819 56.5394 52.1641 56.5394C49.8464 56.5394 48.005 55.6138 46.64 53.7627C45.275 51.9116 44.9104 49.9205 45.5462 47.7894H25.2404C25.8762 49.9205 25.5116 51.9116 24.1466 53.7627C22.7816 55.6119 20.9403 56.5365 18.6225 56.5365C16.3028 56.5365 14.4614 55.6119 13.0983 53.7627C11.7333 51.9116 11.3687 49.9195 12.0046 47.7865L4.71289 47.7894ZM18.6225 53.9581C19.8864 53.9581 20.9315 53.5265 21.7579 52.6631C22.5843 51.7998 22.9975 50.7731 22.9975 49.5831C22.9975 48.3931 22.5843 47.3665 21.7579 46.5031C20.9315 45.6398 19.8864 45.2081 18.6225 45.2081C17.3586 45.2081 16.3134 45.6398 15.4871 46.5031C14.6607 47.3665 14.2475 48.3931 14.2475 49.5831C14.2475 50.7731 14.6607 51.7998 15.4871 52.6631C16.3134 53.5265 17.3586 53.9581 18.6225 53.9581ZM52.1641 53.9581C53.428 53.9581 54.4722 53.5265 55.2966 52.6631C56.1211 51.7998 56.5353 50.7731 56.5391 49.5831C56.543 48.3931 56.1298 47.3665 55.2996 46.5031C54.4693 45.6398 53.4241 45.2081 52.1641 45.2081C50.9041 45.2081 49.859 45.6398 49.0287 46.5031C48.1984 47.3665 47.7852 48.3931 47.7891 49.5831C47.793 50.7731 48.2062 51.7998 49.0287 52.6631C49.8512 53.5265 50.8964 53.9581 52.1641 53.9581ZM44.8725 31.2956H61.5208L50.8546 18.6227H44.8754L44.8725 31.2956Z" fill="#001F3F"/>
</svg>
