<svg width="130" height="130" viewBox="0 0 130 130" fill="none" xmlns="http://www.w3.org/2000/svg">
<rect x="0.5" y="0.5" width="129" height="129" rx="64.5" stroke="#C5C9FB"/>
<rect x="6.5" y="6.5" width="117" height="117" rx="58.5" fill="white"/>
<rect x="6.5" y="6.5" width="117" height="117" rx="58.5" stroke="#008FBF" stroke-width="3"/>
<path d="M78.2508 59.3216V53.6431C78.2508 50.1289 76.8549 46.7588 74.37 44.2739C71.8851 41.789 68.515 40.3931 65.0008 40.3931C61.4867 40.3931 58.1165 41.789 55.6317 44.2739C53.1468 46.7588 51.7508 50.1289 51.7508 53.6431V59.3216M80.1437 59.3216H49.858C48.8539 59.3216 47.891 59.7205 47.1811 60.4304C46.4711 61.1404 46.0723 62.1033 46.0723 63.1074V85.8216C46.0723 86.8257 46.4711 87.7886 47.1811 88.4985C47.891 89.2085 48.8539 89.6074 49.858 89.6074H80.1437C81.1477 89.6074 82.1106 89.2085 82.8206 88.4985C83.5306 87.7886 83.9294 86.8257 83.9294 85.8216V63.1074C83.9294 62.1033 83.5306 61.1404 82.8206 60.4304C82.1106 59.7205 81.1477 59.3216 80.1437 59.3216Z" stroke="#008FBF" stroke-width="2" stroke-linecap="round" stroke-linejoin="round"/>
<path d="M65.0003 76.3575C65.5023 76.3575 65.9838 76.1581 66.3387 75.8031C66.6937 75.4481 66.8931 74.9667 66.8931 74.4646C66.8931 73.9626 66.6937 73.4812 66.3387 73.1262C65.9838 72.7712 65.5023 72.5718 65.0003 72.5718C64.4983 72.5718 64.0168 72.7712 63.6618 73.1262C63.3068 73.4812 63.1074 73.9626 63.1074 74.4646C63.1074 74.9667 63.3068 75.4481 63.6618 75.8031C64.0168 76.1581 64.4983 76.3575 65.0003 76.3575Z" stroke="#008FBF" stroke-width="2" stroke-linecap="round" stroke-linejoin="round"/>
</svg>
