<svg width="189" height="399" viewBox="0 0 189 399" fill="none" xmlns="http://www.w3.org/2000/svg">
<path d="M29.1973 305.121C29.3327 305.413 29.5524 305.413 29.6877 305.121L31.1009 302.075C31.2363 301.736 31.2363 301.358 31.1009 301.018L29.6877 297.972C29.5524 297.681 29.3327 297.681 29.1973 297.972L27.7842 301.018C27.6488 301.358 27.6488 301.736 27.7842 302.075L29.1973 305.121Z" stroke="white" stroke-width="0.918517" stroke-miterlimit="10"/>
<path d="M23.8652 220.443C27.5345 221.392 31.2871 221.986 35.0711 222.217" stroke="white" stroke-width="0.918517" stroke-linecap="round" stroke-linejoin="round"/>
<path d="M43.334 188.373C43.3438 187.461 44.0892 186.728 45.0053 186.728C45.9215 186.728 46.6669 187.461 46.6767 188.373L46.6767 195.343C46.6669 196.254 45.9215 196.988 45.0053 196.988C44.0892 196.988 43.3438 196.254 43.334 195.343L43.334 188.373Z" stroke="white" stroke-width="0.918517" stroke-linecap="round" stroke-linejoin="round"/>
<path d="M43.334 191.858L46.6767 191.858" stroke="white" stroke-width="0.918517" stroke-linecap="round" stroke-linejoin="round"/>
<path d="M11.5654 137.344C11.5654 137.344 16.3716 133.99 19.6004 134.44C21.073 134.645 20.724 136.698 20.724 138.045C20.724 139.392 20.3953 143.554 20.3953 143.554" stroke="white" stroke-width="0.918517" stroke-linecap="round" stroke-linejoin="round"/>
<path d="M24.3577 136.09C23.8 136.827 22.5381 138.981 21.4976 140.152C20.5025 141.273 20.4033 143.207 20.2538 145.368C20.1043 147.529 19.1595 147.725 17.8158 148.314C16.4722 148.904 5.67586 152.98 4.53143 153.177C3.387 153.373 2.79012 152.735 2.69056 149.788C2.591 146.841 2.69056 145.417 5.37746 142.421C7.69864 139.832 14.1493 135.543 17.5418 133.18C18.4127 132.574 19.1268 131.771 19.6254 130.837L24.8788 120.962" stroke="white" stroke-width="0.918517" stroke-linecap="round" stroke-linejoin="round"/>
<path d="M15.8906 120.668C16.0613 120.58 16.2364 120.5 16.4151 120.429C17.6241 119.983 18.9211 119.824 20.2028 119.965C21.8169 120.144 23.3973 120.55 24.8969 121.171" stroke="white" stroke-width="0.918517" stroke-linecap="round" stroke-linejoin="round"/>
<path d="M16.5967 209.934C17.814 210.48 19.083 210.905 20.3849 211.201C21.5154 211.449 22.6638 211.607 23.8194 211.675C27.4542 213.2 31.2344 214.357 35.1025 215.127" stroke="white" stroke-width="0.918517" stroke-linecap="round" stroke-linejoin="round"/>
<path d="M35.1307 208.334C31.1087 206.843 27.2988 204.837 23.7969 202.368" stroke="white" stroke-width="0.918517" stroke-linecap="round" stroke-linejoin="round"/>
<path d="M38.0522 12.1993C38.0522 12.1993 34.9231 75.8796 34.3566 91.2177C33.9934 101.054 30.7485 105.955 28.0752 110.923" stroke="white" stroke-width="0.918517" stroke-linecap="round" stroke-linejoin="round"/>
<path d="M24.5205 22.9429C24.5205 22.9429 23.0235 87.2182 22.8241 92.7328C22.6146 98.5288 22.1274 102.419 24.7089 106.112C26.3788 108.5 27.4935 110.095 28.0728 110.923" stroke="white" stroke-width="0.918517" stroke-linecap="round" stroke-linejoin="round"/>
<path d="M38.8656 164.506L28.0752 110.923" stroke="white" stroke-width="0.918517" stroke-linecap="round" stroke-linejoin="round"/>
<path d="M24.8955 121.171L35.2619 173.719" stroke="white" stroke-width="0.918517" stroke-linecap="round" stroke-linejoin="round"/>
<path d="M49.2851 324.607C49.2753 323.695 48.5299 322.961 47.6137 322.961C46.6976 322.961 45.9522 323.695 45.9424 324.607L45.9424 331.576C45.9522 332.488 46.6976 333.222 47.6137 333.222C48.5299 333.222 49.2753 332.488 49.2851 331.576L49.2851 324.607Z" stroke="white" stroke-width="0.918517" stroke-linecap="round" stroke-linejoin="round"/>
<path d="M49.2851 328.091L45.9424 328.091" stroke="white" stroke-width="0.918517" stroke-linecap="round" stroke-linejoin="round"/>
<path d="M43.0703 263.15C43.0801 262.238 43.8255 261.504 44.7417 261.504C45.6578 261.504 46.4032 262.238 46.413 263.15L46.413 270.12C46.4032 271.031 45.6578 271.765 44.7417 271.765C43.8255 271.765 43.0801 271.031 43.0703 270.12L43.0703 263.15Z" stroke="white" stroke-width="0.918517" stroke-linecap="round" stroke-linejoin="round"/>
<path d="M43.0703 266.635L46.413 266.635" stroke="white" stroke-width="0.918517" stroke-linecap="round" stroke-linejoin="round"/>
<path d="M19.9523 146.766C19.876 159.671 19.8037 246.212 21.4737 298.675C22.3967 327.672 24.8903 378.835 24.8903 378.835" stroke="white" stroke-width="0.918517" stroke-linecap="round" stroke-linejoin="round"/>
<path d="M13.3105 291.06C13.3105 291.06 17.5838 291.458 21.2425 291.458C29.1682 290.376 26.0529 291.438 35.9543 292.176" stroke="white" stroke-width="0.918517" stroke-linecap="round" stroke-linejoin="round"/>
<path d="M35.5052 271.111C31.6211 270.747 27.7731 270.07 23.999 269.087" stroke="white" stroke-width="0.918517" stroke-linecap="round" stroke-linejoin="round"/>
<path d="M36.3956 308.239C34.776 308.766 33.1888 309.386 31.6422 310.098C29.0054 311.395 27.7015 312.221 27.9386 318.591C28.1757 324.961 30.3991 362.942 31.0206 370.059C31.6421 377.175 32.5271 384.838 35.4067 387.537C36.989 389.093 38.9616 390.199 41.1191 390.739" stroke="white" stroke-width="0.918517" stroke-linecap="round" stroke-linejoin="round"/>
<path d="M46.237 373.445C45.9788 371.939 45.7508 370.267 45.5531 368.387C44.9766 362.904 44.7329 356.499 44.353 348.989C43.5369 332.86 42.3383 306.982 41.7913 286.471C40.592 241.502 40.7737 233.957 40.7547 184.676C41.015 177.899 40.3797 171.118 38.8652 164.506" stroke="white" stroke-width="0.918517" stroke-linecap="round" stroke-linejoin="round"/>
<path d="M29.5284 144.638L24.2285 141.24" stroke="white" stroke-width="0.918517" stroke-linecap="round" stroke-linejoin="round"/>
<path d="M159.785 305.121C159.65 305.413 159.43 305.413 159.295 305.121L157.882 302.075C157.746 301.736 157.746 301.358 157.882 301.018L159.295 297.972C159.43 297.681 159.65 297.681 159.785 297.972L161.199 301.018C161.334 301.358 161.334 301.736 161.199 302.075L159.785 305.121Z" stroke="white" stroke-width="0.918517" stroke-miterlimit="10"/>
<path d="M165.116 220.443C161.447 221.392 157.694 221.986 153.91 222.217" stroke="white" stroke-width="0.918517" stroke-linecap="round" stroke-linejoin="round"/>
<path d="M145.649 188.373C145.64 187.461 144.894 186.727 143.978 186.727C143.062 186.727 142.316 187.461 142.307 188.373L142.307 195.343C142.316 196.254 143.062 196.988 143.978 196.988C144.894 196.988 145.64 196.254 145.649 195.343L145.649 188.373Z" stroke="white" stroke-width="0.918517" stroke-linecap="round" stroke-linejoin="round"/>
<path d="M145.649 191.858L142.307 191.858" stroke="white" stroke-width="0.918517" stroke-linecap="round" stroke-linejoin="round"/>
<path d="M172.611 133.99C172.699 117.192 175.053 101.522 175.053 92.7712C175.053 88.7176 174.238 59.5325 174.102 49.6689C173.966 39.8053 168.399 29.5366 167.041 26.5639C165.683 23.5913 163.375 21.8263 158.894 18.1868C154.413 14.5472 150.883 11.4309 145.18 9.53927C135.811 6.56666 115.011 2.91833 94.4901 2.91833C73.9689 2.91833 53.1705 6.56645 43.8006 9.53928C38.0976 11.4309 34.5674 14.5472 30.0862 18.1868C25.6051 21.8263 23.2969 23.5914 21.9391 26.564C20.5813 29.5365 15.014 39.8058 14.8782 49.6689C14.7424 59.532 13.9277 88.7176 13.9277 92.7712C13.9277 101.522 16.2813 117.192 16.3693 133.99" stroke="white" stroke-width="0.918517" stroke-miterlimit="10" stroke-linecap="round"/>
<path d="M177.417 137.344C177.417 137.344 172.611 133.99 169.382 134.44C167.91 134.645 168.259 136.698 168.259 138.045C168.259 139.392 168.588 143.554 168.588 143.554" stroke="white" stroke-width="0.918517" stroke-linecap="round" stroke-linejoin="round"/>
<path d="M164.625 136.09C165.182 136.827 166.444 138.981 167.485 140.152C168.48 141.273 168.579 143.207 168.729 145.368C168.878 147.529 169.823 147.725 171.166 148.314C172.51 148.904 183.306 152.98 184.451 153.177C185.595 153.373 186.192 152.735 186.292 149.788C186.391 146.841 186.292 145.417 183.605 142.421C181.284 139.832 174.833 135.543 171.441 133.18C170.57 132.574 169.856 131.771 169.357 130.837L164.104 120.962" stroke="white" stroke-width="0.918517" stroke-linecap="round" stroke-linejoin="round"/>
<path d="M173.092 120.668C172.839 120.537 172.568 120.429 172.568 120.429C171.359 119.983 170.062 119.824 168.78 119.965C167.166 120.144 165.585 120.55 164.086 121.171" stroke="white" stroke-width="0.918517" stroke-linecap="round" stroke-linejoin="round"/>
<path d="M172.387 209.934C171.169 210.48 169.9 210.905 168.598 211.201C167.468 211.449 166.32 211.607 165.164 211.675C161.529 213.2 157.749 214.357 153.881 215.127" stroke="white" stroke-width="0.918517" stroke-linecap="round" stroke-linejoin="round"/>
<path d="M153.851 208.334C157.872 206.843 161.682 204.837 165.184 202.368" stroke="white" stroke-width="0.918517" stroke-linecap="round" stroke-linejoin="round"/>
<path d="M133.73 15.7087C135.427 37.3953 135.069 64.679 134.804 76.4031C134.764 77.9098 134.109 79.3352 132.99 80.3505C131.87 81.3658 130.383 81.8833 128.872 81.7836C122.01 81.3565 109.491 80.7464 94.4922 80.7464C79.4936 80.7464 66.9743 81.3565 60.1125 81.7836C58.6011 81.8833 57.1142 81.3658 55.9947 80.3505C54.8753 79.3352 54.22 77.9098 54.1801 76.4031C53.915 64.679 53.5577 37.3953 55.2548 15.7087" stroke="white" stroke-width="0.918517" stroke-linecap="round" stroke-linejoin="round"/>
<path d="M150.932 12.1993C150.932 12.1993 154.061 75.8796 154.627 91.2177C154.99 101.054 158.235 105.955 160.909 110.923" stroke="white" stroke-width="0.918517" stroke-linecap="round" stroke-linejoin="round"/>
<path d="M164.459 22.9429C164.459 22.9429 165.957 87.2182 166.156 92.7328C166.365 98.5288 166.853 102.419 164.271 106.112C162.601 108.5 161.487 110.095 160.907 110.923" stroke="white" stroke-width="0.918517" stroke-linecap="round" stroke-linejoin="round"/>
<path d="M150.117 164.506L160.908 110.923" stroke="white" stroke-width="0.918517" stroke-linecap="round" stroke-linejoin="round"/>
<path d="M164.086 121.171L153.72 173.719" stroke="white" stroke-width="0.918517" stroke-linecap="round" stroke-linejoin="round"/>
<path d="M94.4905 5.37759C94.666 5.37502 94.8372 5.43153 94.9764 5.5379L98.0188 7.97191C98.1447 8.06176 98.2194 8.20657 98.2194 8.3608C98.2194 8.51502 98.1447 8.65981 98.0188 8.74969L94.9764 11.1837C94.6882 11.3976 94.293 11.3976 94.0047 11.1837L90.9624 8.74969C90.8364 8.65981 90.7617 8.51502 90.7617 8.3608C90.7617 8.20657 90.8364 8.06176 90.9624 7.97191L94.0047 5.5379C94.1439 5.43153 94.3151 5.37502 94.4905 5.37759Z" stroke="white" stroke-width="0.918517" stroke-linecap="round" stroke-linejoin="round"/>
<path d="M139.697 324.607C139.707 323.695 140.452 322.961 141.369 322.961C142.285 322.961 143.03 323.695 143.04 324.607L143.04 331.576C143.03 332.488 142.285 333.222 141.369 333.222C140.452 333.222 139.707 332.488 139.697 331.576L139.697 324.607Z" stroke="white" stroke-width="0.918517" stroke-linecap="round" stroke-linejoin="round"/>
<path d="M139.697 328.091L143.04 328.091" stroke="white" stroke-width="0.918517" stroke-linecap="round" stroke-linejoin="round"/>
<path d="M145.912 263.15C145.902 262.238 145.157 261.504 144.241 261.504C143.325 261.504 142.579 262.238 142.569 263.15L142.569 270.12C142.579 271.031 143.325 271.765 144.241 271.765C145.157 271.765 145.902 271.031 145.912 270.12L145.912 263.15Z" stroke="white" stroke-width="0.918517" stroke-linecap="round" stroke-linejoin="round"/>
<path d="M145.912 266.635L142.569 266.635" stroke="white" stroke-width="0.918517" stroke-linecap="round" stroke-linejoin="round"/>
<path d="M169.03 146.766C169.106 159.671 169.178 246.212 167.508 298.675C166.585 327.672 164.092 378.835 164.092 378.835" stroke="white" stroke-width="0.918517" stroke-linecap="round" stroke-linejoin="round"/>
<path d="M175.671 291.06C175.671 291.06 171.398 291.458 167.739 291.458C159.813 290.376 162.929 291.438 153.027 292.176" stroke="white" stroke-width="0.918517" stroke-linecap="round" stroke-linejoin="round"/>
<path d="M153.478 271.111C157.362 270.747 161.21 270.07 164.984 269.087" stroke="white" stroke-width="0.918517" stroke-linecap="round" stroke-linejoin="round"/>
<path d="M150.174 371.343C147.274 373.917 144.374 373.432 142.745 373.445C136.128 373.502 117.551 373.639 94.4914 373.639C71.4314 373.639 52.8549 373.502 46.2374 373.445C44.6094 373.432 41.7087 373.917 38.8086 371.343" stroke="white" stroke-width="0.918517" stroke-linecap="round" stroke-linejoin="round"/>
<path d="M172.631 148.902C172.38 258.796 172.43 156.86 172.43 251.66C172.433 260.411 173.091 269.149 174.397 277.802C175.6 284.716 175.734 288.041 175.734 299.476L175.734 328.437C175.734 336.282 173.328 347.982 170.656 357.423C167.983 366.864 165.579 378.757 161.408 382.984C159.976 384.434 156.258 388.481 152.879 389.495C149.549 390.494 128.775 396.057 94.4922 396.057C60.2092 396.057 39.4352 390.495 36.1054 389.495C32.7262 388.481 29.0082 384.434 27.5769 382.984C23.4057 378.758 21.0014 366.865 18.3289 357.423C15.6565 347.982 13.251 336.282 13.251 328.437L13.251 299.476C13.251 288.04 13.3845 284.716 14.5873 277.802C15.8938 269.148 16.5513 260.41 16.5545 251.66C16.5545 156.859 16.6046 258.796 16.3531 148.901" stroke="white" stroke-width="0.918517" stroke-miterlimit="10" stroke-linecap="round"/>
<path d="M152.586 308.239C154.205 308.766 155.793 309.386 157.339 310.098C159.976 311.395 161.28 312.221 161.043 318.591C160.806 324.961 158.582 362.942 157.961 370.059C157.339 377.175 156.454 384.839 153.575 387.537C151.992 389.093 150.02 390.199 147.862 390.739" stroke="white" stroke-width="0.918517" stroke-linecap="round" stroke-linejoin="round"/>
<path d="M144.631 349.519L94.492 349.519L44.3535 349.519" stroke="white" stroke-width="0.918517" stroke-linecap="round" stroke-linejoin="round"/>
<path d="M146.489 307.623L94.492 307.623L42.4951 307.623" stroke="white" stroke-width="0.918517" stroke-linecap="round" stroke-linejoin="round"/>
<path d="M147.192 286.47L94.4913 286.47L41.791 286.47" stroke="white" stroke-width="0.918517" stroke-linecap="round" stroke-linejoin="round"/>
<path d="M142.745 373.445C142.346 375.962 141.703 378.434 140.825 380.828C140.514 381.646 140.398 381.952 138.857 382.25C123.452 385.272 108.027 385.991 94.4899 385.991C80.9526 385.991 65.5283 385.272 50.1226 382.25C48.5815 381.952 48.4655 381.646 48.1553 380.828C47.2771 378.434 46.6341 375.962 46.2354 373.445" stroke="white" stroke-width="0.918517" stroke-linecap="round" stroke-linejoin="round"/>
<path d="M148.228 184.676C148.228 184.676 120.259 180.855 94.4916 180.855C68.7243 180.855 40.7549 184.676 40.7549 184.676" stroke="white" stroke-width="0.918517" stroke-linecap="round" stroke-linejoin="round"/>
<path d="M142.745 373.445C143.003 371.939 143.231 370.267 143.429 368.387C144.006 362.904 144.25 356.499 144.629 348.989C145.445 332.86 146.644 306.982 147.191 286.471C148.39 241.502 148.208 233.957 148.227 184.676C147.967 177.899 148.602 171.118 150.117 164.506" stroke="white" stroke-width="0.918517" stroke-linecap="round" stroke-linejoin="round"/>
<path d="M143.43 368.384L94.4914 368.384L45.5527 368.384" stroke="white" stroke-width="0.918517" stroke-linecap="round" stroke-linejoin="round"/>
<path d="M148.788 390.48L146.489 388.394C145.884 387.845 145.055 387.611 144.251 387.762C127.832 390.759 111.184 392.334 94.4917 392.47C77.7998 392.334 61.1511 390.759 44.7326 387.762C43.9281 387.611 43.099 387.845 42.4939 388.393L40.1953 390.479" stroke="white" stroke-width="0.918517" stroke-linecap="round" stroke-linejoin="round"/>
<path d="M157.43 375.28C155.7 375.5 153.945 375.178 152.407 374.359C149.922 373.218 149.889 371.343 150.161 366.018C155.114 269.058 153.691 212.31 153.691 168.906C153.691 165.62 151.479 164.929 150.116 164.506C128.883 157.908 95.0566 157.812 94.4897 157.813C93.923 157.812 60.0963 157.908 38.8634 164.506C37.5008 164.929 35.2889 165.62 35.2889 168.906C35.2889 212.31 33.8654 269.058 38.8183 366.018C39.0902 371.343 39.0572 373.218 36.5719 374.359C35.0347 375.178 33.2793 375.5 31.5498 375.28" stroke="white" stroke-width="0.918517" stroke-linecap="round" stroke-linejoin="round"/>
<path d="M153.174 286.136C157.145 285.726 160.899 284.871 161.968 284.287C163.481 283.461 164.578 281.796 164.751 278.551C165.022 273.491 165.16 253.795 165.16 243.343C165.16 193.125 165.227 196.065 165.152 179.002C165.152 179.002 165.102 166.12 164.928 151.347C164.754 136.574 164.245 124.447 164.079 120.346C163.913 116.244 163.108 113.142 159.867 109.739C156.626 106.335 149.163 98.9836 138.692 96.2767C128.222 93.5698 118.189 92.529 94.4903 92.529C70.7911 92.529 60.7591 93.5693 50.2884 96.2767C39.8177 98.9841 32.3546 106.334 29.1138 109.739C25.8729 113.143 25.0682 116.245 24.902 120.346C24.7358 124.447 24.2271 136.575 24.0527 151.347C23.8783 166.119 23.8287 179.002 23.8287 179.002C23.7532 196.065 23.8208 193.125 23.8208 243.343C23.8208 253.794 23.9589 273.491 24.2293 278.551C24.4027 281.796 25.4994 283.461 27.0124 284.287C28.0813 284.871 31.8361 285.726 35.8067 286.136" stroke="white" stroke-width="0.918517" stroke-linecap="round" stroke-linejoin="round"/>
<path d="M94.4905 352.9C94.8844 352.9 97.3298 352.299 97.2711 364.235L91.71 364.235C91.6513 352.299 94.0966 352.9 94.4905 352.9Z" stroke="white" stroke-width="0.918517" stroke-linecap="round" stroke-linejoin="round"/>
<path d="M134.43 188.923C136.603 189.221 138.22 191.073 138.213 193.256C138.171 222.705 138.207 231.074 137.183 276.666C137.13 279.04 135.182 280.936 132.796 280.937L56.1837 280.937C53.798 280.936 51.8497 279.04 51.7967 276.666C50.773 231.074 50.8094 222.705 50.7676 193.256C50.7605 191.073 52.3768 189.221 54.5499 188.923C67.7837 187.094 81.1289 186.179 94.4897 186.185C107.851 186.186 121.195 187.101 134.43 188.923Z" stroke="white" stroke-width="0.918517" stroke-linecap="round" stroke-linejoin="round"/>
<path d="M94.4905 311.063L131.242 311.063C132.437 311.064 133.581 311.549 134.409 312.407C135.237 313.264 135.678 314.421 135.631 315.609C135.265 324.589 134.988 332.936 134.801 341.767C134.751 344.143 132.8 346.043 130.412 346.041L58.5688 346.041C56.1804 346.043 54.2296 344.143 54.1796 341.767C53.9927 332.936 53.7159 324.589 53.3491 315.609C53.302 314.421 53.7434 313.264 54.5717 312.407C55.3999 311.549 56.5434 311.064 57.7388 311.063L94.4905 311.063Z" stroke="white" stroke-width="0.918517" stroke-linecap="round" stroke-linejoin="round"/>
<path d="M94.4912 398C128.987 398 149.943 392.407 153.441 391.36C157.106 390.261 160.823 386.374 162.36 384.798C162.53 384.625 162.674 384.477 162.804 384.346C166.624 380.471 168.947 371.404 170.998 363.638C171.514 361.686 172.02 359.773 172.534 357.954C175.219 348.469 177.69 336.555 177.69 328.437L177.69 299.474C177.69 288.008 177.555 284.551 176.325 277.466C175.039 268.925 174.39 260.3 174.386 251.664C174.386 231.003 174.383 219.686 174.382 213.485C174.377 191.419 174.386 233.991 174.578 151.731C178.23 153.114 183.187 154.934 184.121 155.094C184.785 155.226 185.473 155.154 186.095 154.886C186.657 154.625 187.126 154.199 187.438 153.665C188.013 152.479 188.289 151.172 188.243 149.856C188.355 146.535 188.158 144.58 185.068 141.122C182.965 138.775 177.996 135.336 174.575 132.984C174.674 123.813 175.43 115.008 176.077 107.483C176.574 101.708 177.014 96.6127 177.014 92.7734C177.014 90.7478 176.814 82.6568 176.597 73.8321C176.371 64.6579 176.125 54.6504 176.056 49.6441C175.929 40.403 171.331 30.9626 169.414 27.0019C169.162 26.4818 168.965 26.0724 168.822 25.7626C167.312 22.4472 164.749 20.4202 160.827 17.2386C160.602 17.0561 160.371 16.8692 160.134 16.6764C159.779 16.3887 159.43 16.104 159.083 15.8208C155.09 12.5645 151.43 9.55961 145.779 7.68883C136.19 4.64572 115.184 0.975907 94.4917 0.975908C73.7997 0.975909 52.7936 4.64581 43.1805 7.69643C37.5538 9.55981 33.8937 12.5645 29.9007 15.8208C29.5537 16.1039 29.2046 16.3885 28.8483 16.6774C28.4942 16.9653 28.157 17.2384 28.157 17.2384C24.2348 20.42 21.6711 22.4469 20.1631 25.758C20.019 26.0722 19.8211 26.4816 19.5694 27.0017C17.6528 30.9624 13.054 40.4028 12.927 49.6439C12.8587 54.6502 12.612 64.6577 12.3863 73.8319C12.1691 82.6565 11.9698 90.7476 11.9698 92.7732C11.9698 96.6127 12.4095 101.708 12.9062 107.483C13.5533 115.01 14.3099 123.819 14.4084 132.984C10.9873 135.336 6.01869 138.775 3.91422 141.124C0.825361 144.58 0.628288 146.535 0.740259 149.857C0.694506 151.172 0.97066 152.479 1.54496 153.665C1.85725 154.199 2.32617 154.625 2.8888 154.886C3.50801 155.153 4.19446 155.226 4.85639 155.095C5.79554 154.934 10.753 153.114 14.4049 151.731C14.5269 204.875 14.5222 206.21 14.7725 206.76C14.5492 206.271 14.5966 205.772 14.5966 251.664C14.5921 260.301 13.9438 268.925 12.657 277.467C11.4274 284.551 11.2924 288.009 11.2924 299.475L11.2924 328.438C11.2924 336.555 13.7638 348.47 16.4485 357.955C16.9631 359.773 17.4686 361.687 17.9841 363.638C20.0354 371.404 22.3588 380.472 26.1835 384.352C26.3081 384.477 26.4525 384.625 26.6221 384.799C28.1591 386.375 31.8761 390.261 35.5426 391.36C39.0393 392.407 59.9954 398 94.4912 398Z" stroke="white" stroke-width="0.918517" stroke-miterlimit="3"/>
<path d="M94.4908 397.514C128.935 397.514 149.843 391.928 153.3 390.894C156.818 389.839 160.441 386.067 162.01 384.459C162.179 384.286 162.325 384.136 162.455 384.006C166.16 380.247 168.455 371.354 170.526 363.514C171.041 361.563 171.548 359.645 172.064 357.822C174.745 348.348 177.201 336.485 177.201 328.437L177.201 299.474C177.201 288.016 177.066 284.591 175.844 277.548C174.552 268.98 173.902 260.328 173.897 251.664C173.897 231.003 173.895 219.687 173.893 213.485C173.888 191.371 173.898 234.206 174.091 151.026C177.78 152.43 183.264 154.454 184.205 154.614C184.771 154.73 185.36 154.67 185.891 154.443C186.364 154.223 186.757 153.864 187.019 153.414C187.549 152.299 187.801 151.073 187.754 149.84C187.863 146.612 187.69 144.789 184.702 141.445C182.603 139.102 177.531 135.607 174.083 133.237C174.171 123.952 174.937 115.034 175.59 107.441C176.087 101.658 176.524 96.5865 176.524 92.7727C176.524 90.755 176.325 82.6735 176.108 73.8432C175.882 64.6706 175.636 54.6597 175.567 49.65C175.442 40.5327 170.897 31.1862 168.973 27.212C168.722 26.6937 168.522 26.2787 168.377 25.9625C166.924 22.7719 164.466 20.8175 160.517 17.6148C160.18 17.341 159.824 17.0525 159.824 17.0525C159.469 16.7644 159.119 16.4789 158.772 16.1963C154.776 12.937 151.179 9.98882 145.63 8.15138C136.095 5.12578 115.14 1.46152 94.4913 1.46152C73.8425 1.46152 52.887 5.12578 43.3344 8.15714C37.8035 9.98885 34.2066 12.9371 30.21 16.1963C29.863 16.4792 29.5134 16.7644 29.1569 17.0534C28.8023 17.3415 28.4652 17.6148 28.4652 17.6148C24.5168 20.8175 22.0588 22.7719 20.6072 25.9592C20.4606 26.2791 20.2599 26.6937 20.0091 27.212C18.086 31.1863 13.5403 40.5327 13.4152 49.6501C13.3468 54.6597 13.1001 64.6706 12.8743 73.8432C12.657 82.6736 12.458 90.7551 12.458 92.7727C12.458 96.5865 12.8953 101.658 13.3926 107.441C14.0456 115.036 14.8119 123.956 14.8991 133.237C11.4512 135.607 6.37922 139.102 4.27856 141.447C1.29161 144.789 1.11897 146.612 1.22771 149.84C1.18092 151.073 1.43311 152.299 1.96294 153.414C2.22446 153.864 2.61816 154.223 3.09105 154.443C3.62102 154.67 4.20788 154.73 4.77305 154.615C5.71844 154.454 11.2021 152.43 14.8911 151.026C15.0154 205.012 15.0231 206.134 15.2158 206.557C15.0519 206.199 15.0848 205.917 15.0848 251.664C15.0803 260.328 14.4296 268.98 13.138 277.549C11.9156 284.591 11.7805 288.016 11.7805 299.474L11.7805 328.437C11.7805 336.486 14.2367 348.348 16.9182 357.822C17.4343 359.645 17.9409 361.563 18.4562 363.514C20.5269 371.353 22.8223 380.247 26.5307 384.009C26.657 384.136 26.803 384.286 26.9722 384.459C28.5407 386.067 32.1642 389.839 35.6827 390.894C39.1383 391.928 60.0466 397.514 94.4908 397.514Z" stroke="white" stroke-width="0.918517" stroke-miterlimit="3"/>
<path d="M94.4917 397.028C128.884 397.028 149.745 391.451 153.16 390.429C156.53 389.418 160.06 385.761 161.66 384.121C161.829 383.948 161.976 383.797 162.107 383.665C165.696 380.024 167.964 371.304 170.054 363.39C170.569 361.44 171.077 359.518 171.594 357.69C174.273 348.227 176.714 336.417 176.714 328.437L176.714 299.474C176.714 288.023 176.579 284.632 175.364 277.631C174.067 269.035 173.414 260.356 173.409 251.664C173.409 231.003 173.407 219.687 173.405 213.485C173.4 191.324 173.41 234.421 173.605 150.32C177.272 151.723 183.344 153.974 184.29 154.136C184.759 154.234 185.247 154.187 185.689 154.001C186.072 153.822 186.39 153.529 186.601 153.164C187.086 152.119 187.314 150.974 187.267 149.824C187.372 146.69 187.224 144.998 184.338 141.769C182.245 139.432 177.069 135.88 173.593 133.49C173.669 124.091 174.445 115.061 175.104 107.4C175.602 101.608 176.037 96.5608 176.037 92.7727C176.037 90.7629 175.838 82.6912 175.62 73.8552C175.395 64.6842 175.148 54.6696 175.079 49.6567C174.956 40.6629 170.463 31.4105 168.534 27.4229C168.284 26.9064 168.081 26.4865 167.932 26.1632C166.536 23.0975 164.184 21.2156 160.209 17.9915C159.872 17.7179 159.517 17.4294 159.517 17.4294C158.982 16.9964 158.464 16.5723 158.464 16.5723C154.463 13.3101 150.929 10.418 145.483 8.61458C136.002 5.60625 115.098 1.94765 94.4918 1.94765C73.8854 1.94765 52.9812 5.60626 43.4896 8.61838C38.0546 10.4183 34.5208 13.3101 30.5204 16.5723C30.1736 16.8552 29.8235 17.1407 29.4667 17.43C29.112 17.7182 28.7747 17.9915 28.7747 17.9915C24.8001 21.2157 22.4477 23.0975 21.0525 26.161C20.9032 26.4866 20.7001 26.9065 20.4501 27.423C18.5205 31.4106 14.028 40.663 13.9045 49.6568C13.8361 54.6697 13.5893 64.6842 13.3636 73.8552C13.1461 82.6912 12.9474 90.763 12.9474 92.7728C12.9474 96.5609 13.3821 101.608 13.8801 107.4C14.539 115.062 15.3151 124.094 15.3907 133.491C11.9145 135.88 6.73916 139.432 4.64484 141.77C1.75979 144.998 1.61158 146.69 1.7172 149.824C1.66965 150.974 1.89789 152.119 2.38306 153.164C2.59379 153.53 2.91224 153.822 3.29534 154.001C3.73606 154.187 4.22327 154.234 4.69164 154.136C5.64017 153.974 11.7124 151.723 15.3792 150.32C15.5063 205.54 15.5267 206.068 15.6639 206.36C15.5564 206.132 15.5746 205.665 15.5746 251.664C15.57 260.356 14.9169 269.036 13.6205 277.631C12.4051 284.633 12.2695 288.023 12.2695 299.474L12.2695 328.437C12.2695 336.417 14.7104 348.227 17.3892 357.69C17.9071 359.518 18.4144 361.44 18.9294 363.39C21.0198 371.304 23.287 380.024 26.8792 383.668C27.0072 383.797 27.1548 383.948 27.3235 384.121C28.9235 385.761 32.4536 389.418 35.8239 390.429C39.2384 391.451 60.0997 397.028 94.4917 397.028Z" stroke="white" stroke-width="0.918517" stroke-miterlimit="3"/>
<path d="M94.491 396.542C128.831 396.542 149.645 390.973 153.018 389.963C156.241 388.997 159.677 385.455 161.309 383.782C161.561 383.524 161.757 383.325 161.757 383.325C165.232 379.8 167.471 371.254 169.581 363.267C170.096 361.317 170.605 359.391 171.123 357.558C173.799 348.106 176.224 336.348 176.224 328.437L176.224 299.474C176.224 288.031 176.089 284.673 174.881 277.714C173.58 269.091 172.925 260.383 172.92 251.664C172.92 231.003 172.918 219.687 172.916 213.485C172.911 191.277 172.921 234.634 173.117 149.611C176.683 150.985 183.425 153.495 184.373 153.657C184.745 153.738 185.133 153.704 185.485 153.559C185.778 153.42 186.021 153.195 186.181 152.914C186.621 151.939 186.826 150.875 186.778 149.807C186.88 146.767 186.756 145.207 183.973 142.092C181.923 139.805 176.793 136.281 173.288 133.872L173.102 133.744C173.166 124.23 173.952 115.087 174.617 107.359C175.115 101.558 175.548 96.5352 175.548 92.7727C175.548 90.7708 175.349 82.7088 175.132 73.867C174.906 64.6977 174.66 54.6796 174.591 49.6634C174.469 40.7932 170.03 31.6349 168.093 27.6339C167.844 27.1192 167.639 26.6939 167.488 26.3638C166.148 23.4229 163.902 21.6137 159.901 18.3684C159.563 18.0947 159.208 17.8062 159.208 17.8062C158.673 17.3725 158.154 16.9483 158.154 16.9483C154.15 13.6831 150.679 10.8478 145.334 9.07777C135.909 6.08679 115.055 2.43377 94.4918 2.43378C73.9281 2.43378 53.075 6.08677 43.6435 9.07961C38.3045 10.8478 34.8337 13.6831 30.8298 16.9483C30.3095 17.3724 29.7754 17.8065 29.7754 17.8065C29.4202 18.095 29.083 18.3684 29.083 18.3684C25.0821 21.6137 22.8354 23.423 21.4966 26.3628C21.3448 26.694 21.139 27.1192 20.8899 27.6339C18.9538 31.635 14.5144 40.7933 14.3925 49.6634C14.3236 54.6797 14.0771 64.6977 13.8514 73.8671C13.6339 82.7088 13.4354 90.7708 13.4354 92.7727C13.4354 96.5353 13.8678 101.558 14.3664 107.359C15.0308 115.088 15.817 124.232 15.8809 133.744L15.6952 133.872C12.1907 136.281 7.05985 139.805 5.00999 142.093C2.22685 145.207 2.10315 146.767 2.20584 149.807C2.15804 150.875 2.36233 151.939 2.80234 152.914C2.96229 153.195 3.20548 153.42 3.49878 153.559C3.85029 153.704 4.23782 153.738 4.6094 153.657C5.55851 153.495 12.3009 150.985 15.8665 149.612C15.9958 205.673 16.0298 205.99 16.1069 206.154C16.0608 206.056 16.0635 205.81 16.0635 251.664C16.0591 260.383 15.4036 269.091 14.1025 277.714C12.8946 284.673 12.7592 288.03 12.7592 299.474L12.7592 328.437C12.7592 336.348 15.185 348.106 17.8604 357.558C18.3791 359.391 18.888 361.317 19.4028 363.267C21.5132 371.254 23.752 379.8 27.2277 383.326C27.3576 383.457 27.5067 383.61 27.675 383.782C29.3067 385.455 32.7431 388.997 35.9659 389.963C39.337 390.973 60.1509 396.542 94.491 396.542Z" stroke="white" stroke-width="0.918517" stroke-miterlimit="3"/>
<path d="M94.4909 396.055C128.779 396.055 149.546 390.495 152.877 389.497C156.262 388.482 159.973 384.431 161.408 382.984C165.579 378.753 167.981 366.868 170.653 357.426C173.325 347.985 175.736 336.279 175.736 328.437L175.736 299.474C175.736 288.038 175.6 284.714 174.4 277.797C173.094 269.146 172.436 260.411 172.432 251.664C172.432 156.861 172.377 258.796 172.63 148.901C175.98 150.204 183.509 153.016 184.457 153.178C185.594 153.375 186.19 152.737 186.289 149.791C186.389 146.845 186.289 145.416 183.608 142.416C181.532 140.098 176.151 136.432 172.612 133.998L172.612 133.989C172.702 117.19 175.059 101.523 175.059 92.7726C175.059 88.7121 174.237 59.5337 174.101 49.6699C173.965 39.806 168.404 29.538 167.041 26.5644C165.687 23.5911 163.376 21.8211 158.898 18.183C154.411 14.5447 150.881 11.4274 145.185 9.54075C135.814 6.56716 115.011 2.91981 94.4904 2.91981C73.9699 2.91981 53.1674 6.56716 43.7964 9.54075C38.0997 11.4269 34.5698 14.5447 30.083 18.183C25.605 21.8211 23.2939 23.5911 21.9397 26.5645C20.5764 29.538 15.0152 39.8063 14.8797 49.6699C14.7442 59.5335 13.9222 88.7121 13.9222 92.7726C13.9222 101.523 16.2787 117.19 16.3689 133.989L16.3689 133.998C12.8298 136.432 7.44921 140.098 5.37278 142.416C2.69145 145.416 2.59218 146.844 2.69145 149.791C2.79072 152.738 3.38662 153.375 4.52421 153.178C5.47195 153.016 13.0013 150.204 16.3509 148.901C16.6036 258.796 16.5494 156.861 16.5494 251.664C16.545 260.411 15.8872 269.146 14.5812 277.797C13.3807 284.714 13.2451 288.038 13.2451 299.474L13.2451 328.437C13.2451 336.279 15.6557 347.985 18.328 357.426C21.0004 366.868 23.4016 378.753 27.5726 382.984C29.0081 384.431 32.7186 388.482 36.1041 389.497C39.4363 390.495 60.203 396.055 94.4909 396.055Z" stroke="white" stroke-width="0.918517" stroke-miterlimit="3"/>
<path d="M159.454 144.638L164.754 141.24" stroke="white" stroke-width="0.918517" stroke-linecap="round" stroke-linejoin="round"/>
</svg>
