<svg width="115" height="99" viewBox="0 0 115 99" fill="none" xmlns="http://www.w3.org/2000/svg">
<rect x="0.5" y="0.5" width="114" height="98" rx="9.5" fill="white"/>
<rect x="0.5" y="0.5" width="114" height="98" rx="9.5" stroke="#F1F1F1"/>
<path d="M61.25 27V24.5M61.25 27V29.5M61.25 27H55.625M46.25 34.5V45.75C46.25 46.413 46.5134 47.0489 46.9822 47.5178C47.4511 47.9866 48.087 48.25 48.75 48.25H66.25C66.913 48.25 67.5489 47.9866 68.0178 47.5178C68.4866 47.0489 68.75 46.413 68.75 45.75V34.5M46.25 34.5H68.75M46.25 34.5V29.5C46.25 28.837 46.5134 28.2011 46.9822 27.7322C47.4511 27.2634 48.087 27 48.75 27H51.25M68.75 34.5V29.5C68.75 28.837 68.4866 28.2011 68.0178 27.7322C67.5489 27.2634 66.913 27 66.25 27H65.625M51.25 24.5V29.5" stroke="#7C797A" stroke-width="1.5" stroke-linecap="round" stroke-linejoin="round"/>
<path d="M23.4091 65.2727L25.8381 72.3807H25.9361L28.3651 65.2727H29.7884L26.6477 74H25.1264L21.9858 65.2727H23.4091ZM30.9464 74V67.4545H32.2205V74H30.9464ZM31.5898 66.4446C31.3683 66.4446 31.1779 66.3707 31.0188 66.223C30.8626 66.0724 30.7844 65.8935 30.7844 65.6861C30.7844 65.4759 30.8626 65.2969 31.0188 65.1491C31.1779 64.9986 31.3683 64.9233 31.5898 64.9233C31.8114 64.9233 32.0004 64.9986 32.1566 65.1491C32.3157 65.2969 32.3952 65.4759 32.3952 65.6861C32.3952 65.8935 32.3157 66.0724 32.1566 66.223C32.0004 66.3707 31.8114 66.4446 31.5898 66.4446ZM36.7557 74.1321C36.1108 74.1321 35.5554 73.9943 35.0895 73.7188C34.6264 73.4403 34.2685 73.0497 34.0156 72.5469C33.7656 72.0412 33.6406 71.4489 33.6406 70.7699C33.6406 70.0994 33.7656 69.5085 34.0156 68.9972C34.2685 68.4858 34.6207 68.0866 35.0724 67.7997C35.527 67.5128 36.0582 67.3693 36.6662 67.3693C37.0355 67.3693 37.3935 67.4304 37.7401 67.5526C38.0866 67.6747 38.3977 67.8665 38.6733 68.1278C38.9489 68.3892 39.1662 68.7287 39.3253 69.1463C39.4844 69.5611 39.5639 70.0653 39.5639 70.6591V71.1108H34.3608V70.1562H38.3153C38.3153 69.821 38.2472 69.5241 38.1108 69.2656C37.9744 69.0043 37.7827 68.7983 37.5355 68.6477C37.2912 68.4972 37.0043 68.4219 36.6747 68.4219C36.3168 68.4219 36.0043 68.5099 35.7372 68.6861C35.473 68.8594 35.2685 69.0866 35.1236 69.3679C34.9815 69.6463 34.9105 69.9489 34.9105 70.2756V71.0213C34.9105 71.4588 34.9872 71.831 35.1406 72.1378C35.2969 72.4446 35.5142 72.679 35.7926 72.8409C36.071 73 36.3963 73.0795 36.7685 73.0795C37.0099 73.0795 37.2301 73.0455 37.429 72.9773C37.6278 72.9062 37.7997 72.8011 37.9446 72.6619C38.0895 72.5227 38.2003 72.3509 38.277 72.1463L39.483 72.3636C39.3864 72.7187 39.2131 73.0298 38.9631 73.2969C38.7159 73.5611 38.4048 73.767 38.0298 73.9148C37.6577 74.0597 37.233 74.1321 36.7557 74.1321ZM42.3849 74L40.4588 67.4545H41.7756L43.0582 72.2614H43.1222L44.4091 67.4545H45.7259L47.0043 72.2401H47.0682L48.3423 67.4545H49.6591L47.7372 74H46.4375L45.108 69.2741H45.0099L43.6804 74H42.3849ZM54.044 74V67.4545H55.2756V68.4943H55.3438C55.4631 68.142 55.6733 67.8651 55.9744 67.6634C56.2784 67.4588 56.6222 67.3565 57.0057 67.3565C57.0852 67.3565 57.179 67.3594 57.2869 67.3651C57.3977 67.3707 57.4844 67.3778 57.5469 67.3864V68.6051C57.4957 68.5909 57.4048 68.5753 57.2741 68.5582C57.1435 68.5384 57.0128 68.5284 56.8821 68.5284C56.581 68.5284 56.3125 68.5923 56.0767 68.7202C55.8438 68.8452 55.6591 69.0199 55.5227 69.2443C55.3864 69.4659 55.3182 69.7187 55.3182 70.0028V74H54.044ZM61.2362 74.1321C60.5913 74.1321 60.0359 73.9943 59.57 73.7188C59.1069 73.4403 58.7489 73.0497 58.4961 72.5469C58.2461 72.0412 58.1211 71.4489 58.1211 70.7699C58.1211 70.0994 58.2461 69.5085 58.4961 68.9972C58.7489 68.4858 59.1012 68.0866 59.5529 67.7997C60.0075 67.5128 60.5387 67.3693 61.1467 67.3693C61.516 67.3693 61.8739 67.4304 62.2205 67.5526C62.5671 67.6747 62.8782 67.8665 63.1538 68.1278C63.4293 68.3892 63.6467 68.7287 63.8058 69.1463C63.9648 69.5611 64.0444 70.0653 64.0444 70.6591V71.1108H58.8413V70.1562H62.7958C62.7958 69.821 62.7276 69.5241 62.5913 69.2656C62.4549 69.0043 62.2631 68.7983 62.016 68.6477C61.7717 68.4972 61.4847 68.4219 61.1552 68.4219C60.7972 68.4219 60.4847 68.5099 60.2177 68.6861C59.9535 68.8594 59.7489 69.0866 59.604 69.3679C59.462 69.6463 59.391 69.9489 59.391 70.2756V71.0213C59.391 71.4588 59.4677 71.831 59.6211 72.1378C59.7773 72.4446 59.9947 72.679 60.2731 72.8409C60.5515 73 60.8768 73.0795 61.2489 73.0795C61.4904 73.0795 61.7106 73.0455 61.9094 72.9773C62.1083 72.9062 62.2802 72.8011 62.4251 72.6619C62.57 72.5227 62.6808 72.3509 62.7575 72.1463L63.9634 72.3636C63.8668 72.7187 63.6935 73.0298 63.4435 73.2969C63.1964 73.5611 62.8853 73.767 62.5103 73.9148C62.1381 74.0597 61.7134 74.1321 61.2362 74.1321ZM68.2152 74.1321C67.5817 74.1321 67.0362 73.9886 66.5788 73.7017C66.1243 73.4119 65.7749 73.0128 65.5305 72.5043C65.2862 71.9957 65.1641 71.4134 65.1641 70.7571C65.1641 70.0923 65.2891 69.5057 65.5391 68.9972C65.7891 68.4858 66.1413 68.0866 66.5959 67.7997C67.0504 67.5128 67.5859 67.3693 68.2024 67.3693C68.6996 67.3693 69.1428 67.4616 69.532 67.6463C69.9212 67.8281 70.2351 68.0838 70.4737 68.4134C70.7152 68.7429 70.8587 69.1278 70.9041 69.5682H69.6641C69.5959 69.2614 69.4396 68.9972 69.1953 68.7756C68.9538 68.554 68.63 68.4432 68.2237 68.4432C67.8686 68.4432 67.5575 68.5369 67.2905 68.7244C67.0263 68.9091 66.8203 69.1733 66.6726 69.517C66.5249 69.858 66.451 70.2614 66.451 70.7273C66.451 71.2045 66.5234 71.6165 66.6683 71.9631C66.8132 72.3097 67.0178 72.5781 67.282 72.7685C67.549 72.9588 67.8629 73.054 68.2237 73.054C68.4652 73.054 68.6839 73.0099 68.88 72.9219C69.0788 72.831 69.245 72.7017 69.3786 72.5341C69.5149 72.3665 69.6101 72.1648 69.6641 71.929H70.9041C70.8587 72.3523 70.7209 72.7301 70.4908 73.0625C70.2607 73.3949 69.9524 73.6562 69.5661 73.8466C69.1825 74.0369 68.7322 74.1321 68.2152 74.1321ZM75.0877 74.1321C74.4428 74.1321 73.8874 73.9943 73.4215 73.7188C72.9585 73.4403 72.6005 73.0497 72.3477 72.5469C72.0977 72.0412 71.9727 71.4489 71.9727 70.7699C71.9727 70.0994 72.0977 69.5085 72.3477 68.9972C72.6005 68.4858 72.9528 68.0866 73.4045 67.7997C73.859 67.5128 74.3903 67.3693 74.9982 67.3693C75.3675 67.3693 75.7255 67.4304 76.0721 67.5526C76.4187 67.6747 76.7298 67.8665 77.0053 68.1278C77.2809 68.3892 77.4982 68.7287 77.6573 69.1463C77.8164 69.5611 77.896 70.0653 77.896 70.6591V71.1108H72.6928V70.1562H76.6474C76.6474 69.821 76.5792 69.5241 76.4428 69.2656C76.3065 69.0043 76.1147 68.7983 75.8675 68.6477C75.6232 68.4972 75.3363 68.4219 75.0067 68.4219C74.6488 68.4219 74.3363 68.5099 74.0692 68.6861C73.805 68.8594 73.6005 69.0866 73.4556 69.3679C73.3136 69.6463 73.2425 69.9489 73.2425 70.2756V71.0213C73.2425 71.4588 73.3192 71.831 73.4727 72.1378C73.6289 72.4446 73.8462 72.679 74.1246 72.8409C74.4031 73 74.7283 73.0795 75.1005 73.0795C75.342 73.0795 75.5621 73.0455 75.761 72.9773C75.9599 72.9062 76.1317 72.8011 76.2766 72.6619C76.4215 72.5227 76.5323 72.3509 76.609 72.1463L77.815 72.3636C77.7184 72.7187 77.5451 73.0298 77.2951 73.2969C77.0479 73.5611 76.7369 73.767 76.3619 73.9148C75.9897 74.0597 75.565 74.1321 75.0877 74.1321ZM79.3097 74V67.4545H80.5838V74H79.3097ZM79.9531 66.4446C79.7315 66.4446 79.5412 66.3707 79.3821 66.223C79.2259 66.0724 79.1477 65.8935 79.1477 65.6861C79.1477 65.4759 79.2259 65.2969 79.3821 65.1491C79.5412 64.9986 79.7315 64.9233 79.9531 64.9233C80.1747 64.9233 80.3636 64.9986 80.5199 65.1491C80.679 65.2969 80.7585 65.4759 80.7585 65.6861C80.7585 65.8935 80.679 66.0724 80.5199 66.223C80.3636 66.3707 80.1747 66.4446 79.9531 66.4446ZM82.2979 76.4545V67.4545H83.5423V68.5156H83.6488C83.7227 68.3793 83.8292 68.2216 83.9684 68.0426C84.1076 67.8636 84.3008 67.7074 84.5479 67.5739C84.7951 67.4375 85.1218 67.3693 85.5281 67.3693C86.0565 67.3693 86.5281 67.5028 86.9428 67.7699C87.3576 68.0369 87.6829 68.4219 87.9187 68.9247C88.1573 69.4276 88.2766 70.0327 88.2766 70.7401C88.2766 71.4474 88.1587 72.054 87.9229 72.5597C87.6871 73.0625 87.3633 73.4503 86.9513 73.723C86.5394 73.9929 86.0692 74.1278 85.5408 74.1278C85.1431 74.1278 84.8178 74.0611 84.565 73.9276C84.315 73.794 84.119 73.6378 83.9769 73.4588C83.8349 73.2798 83.7255 73.1207 83.6488 72.9815H83.5721V76.4545H82.2979ZM83.5465 70.7273C83.5465 71.1875 83.6133 71.5909 83.7468 71.9375C83.8803 72.2841 84.0735 72.5554 84.3263 72.7514C84.5792 72.9446 84.8888 73.0412 85.2553 73.0412C85.636 73.0412 85.9542 72.9403 86.2099 72.7386C86.4656 72.5341 86.6587 72.2571 86.7894 71.9077C86.9229 71.5582 86.9897 71.1648 86.9897 70.7273C86.9897 70.2955 86.9244 69.9077 86.7937 69.5639C86.6658 69.2202 86.4727 68.9489 86.2141 68.75C85.9585 68.5511 85.6388 68.4517 85.2553 68.4517C84.886 68.4517 84.5735 68.5469 84.3178 68.7372C84.065 68.9276 83.8732 69.1932 83.7425 69.5341C83.6119 69.875 83.5465 70.2727 83.5465 70.7273ZM92.7596 67.4545V68.4773H89.1843V67.4545H92.7596ZM90.1431 65.8864H91.4173V72.0781C91.4173 72.3253 91.4542 72.5114 91.5281 72.6364C91.6019 72.7585 91.6971 72.8423 91.8136 72.8878C91.9329 72.9304 92.0621 72.9517 92.2013 72.9517C92.3036 72.9517 92.3931 72.9446 92.4698 72.9304C92.5465 72.9162 92.6062 72.9048 92.6488 72.8963L92.8789 73.9489C92.805 73.9773 92.6999 74.0057 92.5636 74.0341C92.4272 74.0653 92.2567 74.0824 92.0522 74.0852C91.717 74.0909 91.4045 74.0312 91.1147 73.9062C90.8249 73.7812 90.5906 73.5881 90.4116 73.3267C90.2326 73.0653 90.1431 72.7372 90.1431 72.3423V65.8864Z" fill="#7C797A"/>
</svg>
