<svg width="115" height="99" viewBox="0 0 115 99" fill="none" xmlns="http://www.w3.org/2000/svg">
<rect x="0.5" y="0.5" width="114" height="98" rx="9.5" fill="white"/>
<rect x="0.5" y="0.5" width="114" height="98" rx="9.5" stroke="#F1F1F1"/>
<g clip-path="url(#clip0_731_22151)">
<path d="M50 29.5H63.75C64.7446 29.5 65.6984 29.8951 66.4017 30.5983C67.1049 31.3016 67.5 32.2554 67.5 33.25V42C67.5 42.9946 67.1049 43.9484 66.4017 44.6517C65.6984 45.3549 64.7446 45.75 63.75 45.75H50C49.0054 45.75 48.0516 45.3549 47.3483 44.6517C46.6451 43.9484 46.25 42.9946 46.25 42V33.25C46.25 32.2554 46.6451 31.3016 47.3483 30.5983C48.0516 29.8951 49.0054 29.5 50 29.5ZM50 30.75C49.337 30.75 48.7011 31.0134 48.2322 31.4822C47.7634 31.9511 47.5 32.587 47.5 33.25H66.25C66.25 32.587 65.9866 31.9511 65.5178 31.4822C65.0489 31.0134 64.413 30.75 63.75 30.75H50ZM47.5 42C47.5 42.663 47.7634 43.2989 48.2322 43.7678C48.7011 44.2366 49.337 44.5 50 44.5H63.75C64.413 44.5 65.0489 44.2366 65.5178 43.7678C65.9866 43.2989 66.25 42.663 66.25 42V37H47.5V42ZM50 40.75H53.75V42H50V40.75ZM56.25 40.75H58.75V42H56.25V40.75ZM47.5 34.5V35.75H66.25V34.5H47.5ZM46.25 25.75H48.75V27H46.25C45.587 27 44.9511 27.2634 44.4822 27.7322C44.0134 28.2011 43.75 28.837 43.75 29.5V32H42.5V29.5C42.5 28.5054 42.8951 27.5516 43.5983 26.8483C44.3016 26.1451 45.2554 25.75 46.25 25.75ZM43.75 45.75C43.75 46.413 44.0134 47.0489 44.4822 47.5178C44.9511 47.9866 45.587 48.25 46.25 48.25H48.75V49.5H46.25C45.2554 49.5 44.3016 49.1049 43.5983 48.4017C42.8951 47.6984 42.5 46.7446 42.5 45.75V43.25H43.75V45.75ZM67.5 25.75C68.4946 25.75 69.4484 26.1451 70.1517 26.8483C70.8549 27.5516 71.25 28.5054 71.25 29.5V32H70V29.5C70 28.837 69.7366 28.2011 69.2678 27.7322C68.7989 27.2634 68.163 27 67.5 27H65V25.75H67.5ZM71.25 45.75C71.25 46.7446 70.8549 47.6984 70.1517 48.4017C69.4484 49.1049 68.4946 49.5 67.5 49.5H65V48.25H67.5C68.163 48.25 68.7989 47.9866 69.2678 47.5178C69.7366 47.0489 70 46.413 70 45.75V43.25H71.25V45.75Z" fill="#7C797A"/>
</g>
<path d="M10.9989 65.2727L13.4279 72.3807H13.5259L15.9549 65.2727H17.3782L14.2376 74H12.7163L9.57564 65.2727H10.9989ZM18.5362 74V67.4545H19.8104V74H18.5362ZM19.1797 66.4446C18.9581 66.4446 18.7678 66.3707 18.6087 66.223C18.4524 66.0724 18.3743 65.8935 18.3743 65.6861C18.3743 65.4759 18.4524 65.2969 18.6087 65.1491C18.7678 64.9986 18.9581 64.9233 19.1797 64.9233C19.4013 64.9233 19.5902 64.9986 19.7464 65.1491C19.9055 65.2969 19.9851 65.4759 19.9851 65.6861C19.9851 65.8935 19.9055 66.0724 19.7464 66.223C19.5902 66.3707 19.4013 66.4446 19.1797 66.4446ZM24.3455 74.1321C23.7006 74.1321 23.1452 73.9943 22.6793 73.7188C22.2163 73.4403 21.8583 73.0497 21.6055 72.5469C21.3555 72.0412 21.2305 71.4489 21.2305 70.7699C21.2305 70.0994 21.3555 69.5085 21.6055 68.9972C21.8583 68.4858 22.2106 68.0866 22.6623 67.7997C23.1168 67.5128 23.6481 67.3693 24.256 67.3693C24.6254 67.3693 24.9833 67.4304 25.3299 67.5526C25.6765 67.6747 25.9876 67.8665 26.2631 68.1278C26.5387 68.3892 26.756 68.7287 26.9151 69.1463C27.0742 69.5611 27.1538 70.0653 27.1538 70.6591V71.1108H21.9506V70.1562H25.9052C25.9052 69.821 25.837 69.5241 25.7006 69.2656C25.5643 69.0043 25.3725 68.7983 25.1254 68.6477C24.881 68.4972 24.5941 68.4219 24.2646 68.4219C23.9066 68.4219 23.5941 68.5099 23.3271 68.6861C23.0629 68.8594 22.8583 69.0866 22.7134 69.3679C22.5714 69.6463 22.5004 69.9489 22.5004 70.2756V71.0213C22.5004 71.4588 22.5771 71.831 22.7305 72.1378C22.8867 72.4446 23.104 72.679 23.3825 72.8409C23.6609 73 23.9862 73.0795 24.3583 73.0795C24.5998 73.0795 24.82 73.0455 25.0188 72.9773C25.2177 72.9062 25.3896 72.8011 25.5344 72.6619C25.6793 72.5227 25.7901 72.3509 25.8668 72.1463L27.0728 72.3636C26.9762 72.7187 26.8029 73.0298 26.5529 73.2969C26.3058 73.5611 25.9947 73.767 25.6197 73.9148C25.2475 74.0597 24.8228 74.1321 24.3455 74.1321ZM29.9748 74L28.0487 67.4545H29.3654L30.6481 72.2614H30.712L31.9989 67.4545H33.3157L34.5941 72.2401H34.658L35.9322 67.4545H37.2489L35.3271 74H34.0273L32.6978 69.2741H32.5998L31.2702 74H29.9748ZM44.6893 67.4545V68.4773H41.114V67.4545H44.6893ZM42.0728 65.8864H43.3469V72.0781C43.3469 72.3253 43.3839 72.5114 43.4577 72.6364C43.5316 72.7585 43.6268 72.8423 43.7433 72.8878C43.8626 72.9304 43.9918 72.9517 44.131 72.9517C44.2333 72.9517 44.3228 72.9446 44.3995 72.9304C44.4762 72.9162 44.5359 72.9048 44.5785 72.8963L44.8086 73.9489C44.7347 73.9773 44.6296 74.0057 44.4933 74.0341C44.3569 74.0653 44.1864 74.0824 43.9819 74.0852C43.6467 74.0909 43.3342 74.0312 43.0444 73.9062C42.7546 73.7812 42.5202 73.5881 42.3413 73.3267C42.1623 73.0653 42.0728 72.7372 42.0728 72.3423V65.8864ZM46.0987 74V67.4545H47.3303V68.4943H47.3984C47.5178 68.142 47.728 67.8651 48.0291 67.6634C48.3331 67.4588 48.6768 67.3565 49.0604 67.3565C49.1399 67.3565 49.2337 67.3594 49.3416 67.3651C49.4524 67.3707 49.5391 67.3778 49.6016 67.3864V68.6051C49.5504 68.5909 49.4595 68.5753 49.3288 68.5582C49.1982 68.5384 49.0675 68.5284 48.9368 68.5284C48.6357 68.5284 48.3672 68.5923 48.1314 68.7202C47.8984 68.8452 47.7138 69.0199 47.5774 69.2443C47.4411 69.4659 47.3729 69.7187 47.3729 70.0028V74H46.0987ZM52.5504 74.1449C52.1357 74.1449 51.7607 74.0682 51.4254 73.9148C51.0902 73.7585 50.8246 73.5327 50.6286 73.2372C50.4354 72.9418 50.3388 72.5795 50.3388 72.1506C50.3388 71.7812 50.4098 71.4773 50.5518 71.2386C50.6939 71 50.8857 70.8111 51.1271 70.6719C51.3686 70.5327 51.6385 70.4276 51.9368 70.3565C52.2351 70.2855 52.5391 70.2315 52.8487 70.1946C53.2408 70.1491 53.5589 70.1122 53.8033 70.0838C54.0476 70.0526 54.2251 70.0028 54.3359 69.9347C54.4467 69.8665 54.5021 69.7557 54.5021 69.6023V69.5724C54.5021 69.2003 54.397 68.9119 54.1868 68.7074C53.9794 68.5028 53.6697 68.4006 53.2578 68.4006C52.8288 68.4006 52.4908 68.4957 52.2436 68.6861C51.9993 68.8736 51.8303 69.0824 51.7365 69.3125L50.5391 69.0398C50.6811 68.642 50.8885 68.321 51.1612 68.0767C51.4368 67.8295 51.7536 67.6506 52.1115 67.5398C52.4695 67.4261 52.8459 67.3693 53.2408 67.3693C53.5021 67.3693 53.7791 67.4006 54.0717 67.4631C54.3672 67.5227 54.6428 67.6335 54.8984 67.7955C55.157 67.9574 55.3686 68.1889 55.5334 68.4901C55.6982 68.7884 55.7805 69.1761 55.7805 69.6534V74H54.5362V73.1051H54.4851C54.4027 73.2699 54.2791 73.4318 54.1143 73.5909C53.9496 73.75 53.7379 73.8821 53.4794 73.9872C53.2209 74.0923 52.9112 74.1449 52.5504 74.1449ZM52.8274 73.1222C53.1797 73.1222 53.4808 73.0526 53.7308 72.9134C53.9837 72.7741 54.1754 72.5923 54.3061 72.3679C54.4396 72.1406 54.5064 71.8977 54.5064 71.6392V70.7955C54.4609 70.8409 54.3729 70.8835 54.2422 70.9233C54.1143 70.9602 53.968 70.9929 53.8033 71.0213C53.6385 71.0469 53.478 71.071 53.3217 71.0938C53.1655 71.1136 53.0348 71.1307 52.9297 71.1449C52.6825 71.1761 52.4567 71.2287 52.2521 71.3026C52.0504 71.3764 51.8885 71.483 51.7663 71.6222C51.647 71.7585 51.5874 71.9403 51.5874 72.1676C51.5874 72.483 51.7038 72.7216 51.9368 72.8835C52.1697 73.0426 52.4666 73.1222 52.8274 73.1222ZM58.7518 70.1136V74H57.4776V67.4545H58.7006V68.5199H58.7816C58.9322 68.1733 59.168 67.8949 59.489 67.6847C59.8129 67.4744 60.2205 67.3693 60.712 67.3693C61.158 67.3693 61.5487 67.4631 61.8839 67.6506C62.2191 67.8352 62.479 68.1108 62.6637 68.4773C62.8484 68.8437 62.9407 69.2969 62.9407 69.8366V74H61.6665V69.9901C61.6665 69.5156 61.543 69.1449 61.2958 68.8778C61.0487 68.608 60.7092 68.473 60.2773 68.473C59.9819 68.473 59.7191 68.5369 59.489 68.6648C59.2617 68.7926 59.0813 68.9801 58.9478 69.2273C58.8171 69.4716 58.7518 69.767 58.7518 70.1136ZM69.5543 69.0526L68.3995 69.2571C68.3512 69.1094 68.2745 68.9687 68.1694 68.8352C68.0671 68.7017 67.9279 68.5923 67.7518 68.5071C67.5756 68.4219 67.3555 68.3793 67.0913 68.3793C66.7305 68.3793 66.4293 68.4602 66.1879 68.6222C65.9464 68.7812 65.8256 68.9872 65.8256 69.2401C65.8256 69.4588 65.9066 69.6349 66.0685 69.7685C66.2305 69.902 66.4918 70.0114 66.8526 70.0966L67.8924 70.3352C68.4947 70.4744 68.9435 70.6889 69.239 70.9787C69.5344 71.2685 69.6822 71.6449 69.6822 72.108C69.6822 72.5 69.5685 72.8494 69.3413 73.1562C69.1168 73.4602 68.8029 73.6989 68.3995 73.8722C67.9989 74.0455 67.5344 74.1321 67.006 74.1321C66.2731 74.1321 65.6751 73.9759 65.212 73.6634C64.7489 73.348 64.4648 72.9006 64.3597 72.321L65.5913 72.1335C65.668 72.4545 65.8256 72.6974 66.0643 72.8622C66.3029 73.0241 66.614 73.1051 66.9975 73.1051C67.4151 73.1051 67.7489 73.0185 67.9989 72.8452C68.2489 72.669 68.3739 72.4545 68.3739 72.2017C68.3739 71.9972 68.2972 71.8253 68.1438 71.6861C67.9933 71.5469 67.7617 71.4418 67.4492 71.3707L66.3413 71.1278C65.7305 70.9886 65.2788 70.767 64.9862 70.4631C64.6964 70.1591 64.5515 69.7741 64.5515 69.3082C64.5515 68.9219 64.6594 68.5838 64.8754 68.294C65.0913 68.0043 65.3896 67.7784 65.7702 67.6165C66.1509 67.4517 66.587 67.3693 67.0785 67.3693C67.7859 67.3693 68.3427 67.5227 68.7489 67.8295C69.1552 68.1335 69.4237 68.5412 69.5543 69.0526ZM72.9879 74.1449C72.5732 74.1449 72.1982 74.0682 71.8629 73.9148C71.5277 73.7585 71.2621 73.5327 71.0661 73.2372C70.8729 72.9418 70.7763 72.5795 70.7763 72.1506C70.7763 71.7812 70.8473 71.4773 70.9893 71.2386C71.1314 71 71.3232 70.8111 71.5646 70.6719C71.8061 70.5327 72.076 70.4276 72.3743 70.3565C72.6726 70.2855 72.9766 70.2315 73.2862 70.1946C73.6783 70.1491 73.9964 70.1122 74.2408 70.0838C74.4851 70.0526 74.6626 70.0028 74.7734 69.9347C74.8842 69.8665 74.9396 69.7557 74.9396 69.6023V69.5724C74.9396 69.2003 74.8345 68.9119 74.6243 68.7074C74.4169 68.5028 74.1072 68.4006 73.6953 68.4006C73.2663 68.4006 72.9283 68.4957 72.6811 68.6861C72.4368 68.8736 72.2678 69.0824 72.174 69.3125L70.9766 69.0398C71.1186 68.642 71.326 68.321 71.5987 68.0767C71.8743 67.8295 72.1911 67.6506 72.549 67.5398C72.907 67.4261 73.2834 67.3693 73.6783 67.3693C73.9396 67.3693 74.2166 67.4006 74.5092 67.4631C74.8047 67.5227 75.0803 67.6335 75.3359 67.7955C75.5945 67.9574 75.8061 68.1889 75.9709 68.4901C76.1357 68.7884 76.218 69.1761 76.218 69.6534V74H74.9737V73.1051H74.9226C74.8402 73.2699 74.7166 73.4318 74.5518 73.5909C74.3871 73.75 74.1754 73.8821 73.9169 73.9872C73.6584 74.0923 73.3487 74.1449 72.9879 74.1449ZM73.2649 73.1222C73.6172 73.1222 73.9183 73.0526 74.1683 72.9134C74.4212 72.7741 74.6129 72.5923 74.7436 72.3679C74.8771 72.1406 74.9439 71.8977 74.9439 71.6392V70.7955C74.8984 70.8409 74.8104 70.8835 74.6797 70.9233C74.5518 70.9602 74.4055 70.9929 74.2408 71.0213C74.076 71.0469 73.9155 71.071 73.7592 71.0938C73.603 71.1136 73.4723 71.1307 73.3672 71.1449C73.12 71.1761 72.8942 71.2287 72.6896 71.3026C72.4879 71.3764 72.326 71.483 72.2038 71.6222C72.0845 71.7585 72.0249 71.9403 72.0249 72.1676C72.0249 72.483 72.1413 72.7216 72.3743 72.8835C72.6072 73.0426 72.9041 73.1222 73.2649 73.1222ZM80.6722 74.1321C80.0387 74.1321 79.4933 73.9886 79.0359 73.7017C78.5813 73.4119 78.2319 73.0128 77.9876 72.5043C77.7433 71.9957 77.6211 71.4134 77.6211 70.7571C77.6211 70.0923 77.7461 69.5057 77.9961 68.9972C78.2461 68.4858 78.5984 68.0866 79.0529 67.7997C79.5075 67.5128 80.043 67.3693 80.6594 67.3693C81.1566 67.3693 81.5998 67.4616 81.989 67.6463C82.3782 67.8281 82.6921 68.0838 82.9308 68.4134C83.1722 68.7429 83.3157 69.1278 83.3612 69.5682H82.1211C82.0529 69.2614 81.8967 68.9972 81.6523 68.7756C81.4109 68.554 81.087 68.4432 80.6808 68.4432C80.3256 68.4432 80.0146 68.5369 79.7475 68.7244C79.4833 68.9091 79.2773 69.1733 79.1296 69.517C78.9819 69.858 78.908 70.2614 78.908 70.7273C78.908 71.2045 78.9805 71.6165 79.1254 71.9631C79.2702 72.3097 79.4748 72.5781 79.739 72.7685C80.006 72.9588 80.32 73.054 80.6808 73.054C80.9222 73.054 81.141 73.0099 81.337 72.9219C81.5359 72.831 81.7021 72.7017 81.8356 72.5341C81.9719 72.3665 82.0671 72.1648 82.1211 71.929H83.3612C83.3157 72.3523 83.1779 72.7301 82.9478 73.0625C82.7177 73.3949 82.4094 73.6562 82.0231 73.8466C81.6396 74.0369 81.1893 74.1321 80.6722 74.1321ZM87.7791 67.4545V68.4773H84.2038V67.4545H87.7791ZM85.1626 65.8864H86.4368V72.0781C86.4368 72.3253 86.4737 72.5114 86.5476 72.6364C86.6214 72.7585 86.7166 72.8423 86.8331 72.8878C86.9524 72.9304 87.0817 72.9517 87.2209 72.9517C87.3232 72.9517 87.4126 72.9446 87.4893 72.9304C87.5661 72.9162 87.6257 72.9048 87.6683 72.8963L87.8984 73.9489C87.8246 73.9773 87.7195 74.0057 87.5831 74.0341C87.4467 74.0653 87.2763 74.0824 87.0717 74.0852C86.7365 74.0909 86.424 74.0312 86.1342 73.9062C85.8445 73.7812 85.6101 73.5881 85.4311 73.3267C85.2521 73.0653 85.1626 72.7372 85.1626 72.3423V65.8864ZM89.1886 74V67.4545H90.4627V74H89.1886ZM89.832 66.4446C89.6104 66.4446 89.4201 66.3707 89.261 66.223C89.1048 66.0724 89.0266 65.8935 89.0266 65.6861C89.0266 65.4759 89.1048 65.2969 89.261 65.1491C89.4201 64.9986 89.6104 64.9233 89.832 64.9233C90.0536 64.9233 90.2425 64.9986 90.3988 65.1491C90.5579 65.2969 90.6374 65.4759 90.6374 65.6861C90.6374 65.8935 90.5579 66.0724 90.3988 66.223C90.2425 66.3707 90.0536 66.4446 89.832 66.4446ZM94.9339 74.1321C94.3203 74.1321 93.7848 73.9915 93.3274 73.7102C92.87 73.429 92.5149 73.0355 92.2621 72.5298C92.0092 72.0241 91.8828 71.4332 91.8828 70.7571C91.8828 70.0781 92.0092 69.4844 92.2621 68.9759C92.5149 68.4673 92.87 68.0724 93.3274 67.7912C93.7848 67.5099 94.3203 67.3693 94.9339 67.3693C95.5476 67.3693 96.0831 67.5099 96.5405 67.7912C96.9979 68.0724 97.353 68.4673 97.6058 68.9759C97.8587 69.4844 97.9851 70.0781 97.9851 70.7571C97.9851 71.4332 97.8587 72.0241 97.6058 72.5298C97.353 73.0355 96.9979 73.429 96.5405 73.7102C96.0831 73.9915 95.5476 74.1321 94.9339 74.1321ZM94.9382 73.0625C95.3359 73.0625 95.6655 72.9574 95.9268 72.7472C96.1882 72.5369 96.3814 72.2571 96.5064 71.9077C96.6342 71.5582 96.6982 71.1733 96.6982 70.7528C96.6982 70.3352 96.6342 69.9517 96.5064 69.6023C96.3814 69.25 96.1882 68.9673 95.9268 68.7543C95.6655 68.5412 95.3359 68.4347 94.9382 68.4347C94.5376 68.4347 94.2053 68.5412 93.9411 68.7543C93.6797 68.9673 93.4851 69.25 93.3572 69.6023C93.2322 69.9517 93.1697 70.3352 93.1697 70.7528C93.1697 71.1733 93.2322 71.5582 93.3572 71.9077C93.4851 72.2571 93.6797 72.5369 93.9411 72.7472C94.2053 72.9574 94.5376 73.0625 94.9382 73.0625ZM100.681 70.1136V74H99.4073V67.4545H100.63V68.5199H100.711C100.862 68.1733 101.098 67.8949 101.419 67.6847C101.743 67.4744 102.15 67.3693 102.642 67.3693C103.088 67.3693 103.478 67.4631 103.814 67.6506C104.149 67.8352 104.409 68.1108 104.593 68.4773C104.778 68.8437 104.87 69.2969 104.87 69.8366V74H103.596V69.9901C103.596 69.5156 103.473 69.1449 103.225 68.8778C102.978 68.608 102.639 68.473 102.207 68.473C101.912 68.473 101.649 68.5369 101.419 68.6648C101.191 68.7926 101.011 68.9801 100.877 69.2273C100.747 69.4716 100.681 69.767 100.681 70.1136Z" fill="#7C797A"/>
<defs>
<clipPath id="clip0_731_22151">
<rect width="30" height="30" fill="white" transform="translate(42.5 22)"/>
</clipPath>
</defs>
</svg>
