<svg width="68" height="23" viewBox="0 0 68 23" fill="none" xmlns="http://www.w3.org/2000/svg">
<path fill-rule="evenodd" clip-rule="evenodd" d="M48.9257 1.66053L48.1481 6.15464C45.8165 4.86989 40.5101 4.56592 40.5095 6.93221C40.5095 7.87227 41.7102 8.51878 43.1572 9.298C45.3519 10.4798 48.1134 11.9667 48.1134 15.2459C48.1134 20.4857 42.5041 22.4108 38.7859 22.4108C35.0688 22.4108 32.6359 21.2291 32.6359 21.2291L33.4459 16.5301C35.6767 18.3209 42.4364 18.8298 42.4364 15.9899C42.4364 14.7965 41.1057 14.0928 39.5627 13.2767C37.4336 12.1507 34.9003 10.8109 34.9003 7.6762C34.9003 1.9298 41.3213 0.748047 44.0251 0.748047C46.5263 0.748047 48.9257 1.66053 48.9257 1.66053ZM67.1088 22.0498H62.1058L61.4676 18.9412H54.5411L53.4053 22.0498H47.7255L55.8516 2.68106C55.8516 2.68106 56.3443 1.12145 58.3668 1.12145H62.7468L67.1088 22.0498ZM29.2815 22.0497H23.833L27.2383 1.12192H32.6874L29.2815 22.0497ZM19.2487 1.122L14.0542 15.5163L13.4396 12.4166L13.4401 12.4177L11.6068 3.0063C11.6068 3.0063 11.3851 1.122 9.02216 1.122H0.434749L0.333984 1.47635C0.333984 1.47635 2.96003 2.02272 6.03336 3.8684L10.7671 22.0503H16.4441L25.1126 1.122H19.2487ZM56.1095 14.647L58.9723 6.81529L60.5829 14.647H56.1095Z" fill="#2566AF"/>
<path d="M13.4401 12.4171L11.6068 3.00564C11.6068 3.00564 11.3851 1.12134 9.02216 1.12134H0.434749L0.333984 1.47569C0.333984 1.47569 4.46143 2.33108 8.42037 5.53596C12.2058 8.59922 13.4401 12.4171 13.4401 12.4171Z" fill="#E6A540"/>
</svg>
