<svg width="109" height="44" viewBox="0 0 109 44" fill="none" xmlns="http://www.w3.org/2000/svg">
<rect x="0.785156" y="0.110352" width="107.835" height="43.2385" rx="5.93272" fill="#E54A59"/>
<path d="M33.4109 28.2295H31.0758V22.629L25.7031 13.7442H28.323L32.2149 20.4268L36.1447 13.7442H38.7266L33.4109 22.629V28.2295ZM42.4942 28.4383C41.469 28.4383 40.5578 28.2042 39.7604 27.7359C38.9631 27.2549 38.3429 26.6031 37.8999 25.7805C37.4569 24.9451 37.2354 24.0149 37.2354 22.9897C37.2354 22.0278 37.4316 21.1229 37.824 20.2749C38.229 19.4269 38.8238 18.7435 39.6085 18.2246C40.3932 17.7056 41.3361 17.4462 42.4373 17.4462C43.3738 17.4462 44.2345 17.6487 45.0192 18.0537C45.8165 18.4587 46.4557 19.0662 46.9366 19.8762C47.4176 20.6736 47.6581 21.6481 47.6581 22.7999V23.3694H39.3617C39.3997 23.7871 39.501 24.1668 39.6655 24.5085C39.9186 25.154 40.2983 25.6666 40.8046 26.0463C41.3108 26.4259 41.8867 26.6158 42.5322 26.6158C43.203 26.6158 43.7788 26.4449 44.2598 26.1032C44.7407 25.7488 45.0888 25.2995 45.3039 24.7553H47.4872C47.1328 25.8437 46.5316 26.7297 45.6836 27.4131C44.8483 28.0966 43.7852 28.4383 42.4942 28.4383ZM45.4938 21.6798C45.4432 21.2874 45.3356 20.952 45.1711 20.6736C44.9179 20.1926 44.5509 19.8256 44.0699 19.5725C43.6017 19.3067 43.0827 19.1738 42.5132 19.1738C41.9183 19.1738 41.3931 19.3067 40.9375 19.5725C40.4818 19.8256 40.1211 20.1926 39.8553 20.6736C39.7035 20.9267 39.5832 21.2621 39.4946 21.6798H45.4938ZM52.7415 28.4383C51.7037 28.4383 50.8683 28.1662 50.2355 27.622C49.6027 27.0651 49.2863 26.312 49.2863 25.3628C49.2863 24.3883 49.666 23.6225 50.4254 23.0657C50.9949 22.648 51.8113 22.3379 52.8744 22.1354L56.3296 21.4709C56.317 20.7369 56.1208 20.1736 55.7411 19.7813C55.3234 19.3636 54.7665 19.1548 54.0704 19.1548C53.5009 19.1548 53.001 19.3193 52.5706 19.6484C52.153 19.9648 51.8872 20.3951 51.7733 20.9394H49.704C49.8811 19.8256 50.3811 18.965 51.2037 18.3574C52.0264 17.7499 52.9883 17.4462 54.0894 17.4462C54.7096 17.4462 55.2918 17.5411 55.836 17.7309C56.3929 17.9081 56.8612 18.1739 57.2409 18.5283C57.7471 18.9966 58.0636 19.5472 58.1901 20.18C58.3293 20.8128 58.3989 21.5405 58.3989 22.3632V28.2295H56.3106V26.6727C56.0195 27.1663 55.6525 27.5524 55.2095 27.8308C54.5767 28.2358 53.754 28.4383 52.7415 28.4383ZM53.1592 26.7107C53.7161 26.7107 54.2223 26.5968 54.6779 26.369C55.2981 26.0526 55.7284 25.6349 55.9689 25.116C56.222 24.5844 56.3486 23.901 56.3486 23.0657L53.368 23.6542C52.6339 23.8061 52.1024 24.0339 51.7733 24.3376C51.5075 24.6034 51.3746 24.9262 51.3746 25.3058C51.3746 25.7488 51.5328 26.0969 51.8492 26.35C52.1783 26.5905 52.6149 26.7107 53.1592 26.7107ZM60.8097 28.2295V17.655H62.898V19.0029C63.3283 18.446 63.803 18.0474 64.3219 17.8069C64.8408 17.5664 65.442 17.4462 66.1254 17.4462H66.3343V19.4965H65.7647C64.9167 19.4965 64.2586 19.7307 63.7903 20.199C63.1955 20.7685 62.898 21.7051 62.898 23.0087V28.2295H60.8097ZM70.4151 28.2295C69.5924 28.2295 68.9722 28.0396 68.5546 27.66C68.1369 27.2803 67.9281 26.6411 67.9281 25.7425V13.7442H70.0164V25.2299C70.0164 25.6729 70.086 25.9893 70.2252 26.1791C70.3645 26.369 70.6492 26.4639 71.0795 26.4639H71.6681V28.2295H70.4151ZM73.5298 32.1403V30.3178H74.6119C75.0296 30.3178 75.3333 30.2609 75.5232 30.1469C75.7257 30.033 75.9092 29.7609 76.0737 29.3306L76.4914 28.1725L72.4856 17.655H74.7638L77.5925 25.6476L80.1934 17.655H82.4526L78.0481 29.9001C77.7444 30.7481 77.3837 31.3303 76.966 31.6467C76.5483 31.9758 75.9598 32.1403 75.2004 32.1403H73.5298Z" fill="white"/>
</svg>
